<svg width="225" height="522" viewBox="0 0 225 522" fill="none" xmlns="http://www.w3.org/2000/svg">
<path d="M126.296 17.6228L181.194 87.1098L246.62 132.149L308.346 194.597L404.844 190.445L331.69 108.182L398.491 75.6819L404.844 190.445L476.728 248.582L365.916 269.908L398.566 338.709L332.71 385.158L387.479 454.415M126.5 280.88L37.9803 249.167L126.5 280.88Z" stroke="#000A8E" stroke-width="0.5"/>
<path d="M317.778 48.2154L331.69 108.182M398.566 338.709L310.055 306.958L267.972 249.089L204.661 190.753L308.475 194.826L366.045 270.138L398.566 338.709Z" stroke="#000A8E" stroke-width="0.5"/>
<path d="M246.62 132.15L241.86 57.5513L181.194 87.1101L132.777 132.615L204.661 190.753L246.62 132.15ZM246.62 132.15L331.69 108.182L308.346 194.597L267.972 249.09L208.008 282.032L126.5 280.88L176.208 367.257L251.997 357.691L265.909 417.658L332.71 385.158L310.055 306.958L365.916 269.908L404.844 190.445L453.26 144.94L398.362 75.4526" stroke="#000A8E" stroke-width="0.5"/>
<path d="M267.972 249.089L365.916 269.908M180.839 441.625L175.95 366.797L115.413 396.585L180.839 441.625ZM204.661 190.752L208.008 282.032L310.055 306.957L251.997 357.691L204.661 190.752ZM93.8493 212.078L208.008 282.032L93.8493 212.078Z" stroke="#000A8E" stroke-width="0.5"/>
<path d="M365.916 269.908L480.074 339.862M448.146 424.856L332.71 385.158L251.997 357.691L208.008 282.032L176.208 367.256L60.5148 327.099L126.5 280.88L93.8492 212.079L204.661 190.753L181.194 87.1099L448.146 424.856ZM265.909 417.658L176.208 367.256L265.909 417.658ZM241.86 57.5511L331.69 108.182L241.86 57.5511ZM339.063 499.92L332.581 384.928L339.063 499.92Z" stroke="#000A8E" stroke-width="0.5"/>
</svg>
