<svg width="237" height="465" viewBox="0 0 237 465" fill="none" xmlns="http://www.w3.org/2000/svg">
<path d="M171.878 451.94L107.312 391.33L35.9474 356.456L-34.3309 303.818L-129.155 322.188L-44.6458 392.734L-105.909 434.751L-129.155 322.188L-208.843 275.314L-102.4 237.844L-144.861 174.624L-86.5943 118.952L-150.999 58.5507M132.764 191.604L224.999 209.885L132.764 191.604Z" stroke="#000A8E" stroke-width="0.5"/>
<path d="M-22.0227 449.986L-44.6458 392.734M-144.861 174.624L-52.6293 192.944L-2.45481 243.957L68.7831 292.295L-34.4923 303.61L-102.562 237.636L-144.861 174.624Z" stroke="#000A8E" stroke-width="0.5"/>
<path d="M35.9474 356.456L51.6811 429.531L107.312 391.33L148.471 339.168L68.7831 292.295L35.9474 356.456ZM35.9474 356.456L-44.6458 392.734L-34.3308 303.818L-2.45474 243.956L51.9813 202.512L132.764 191.604L70.8348 113.524L-2.70753 134.186L-25.3307 76.9348L-86.5942 118.952L-52.6293 192.944L-102.4 237.843L-129.155 322.188L-170.314 374.35L-105.748 434.959" stroke="#000A8E" stroke-width="0.5"/>
<path d="M-2.45482 243.957L-102.4 237.844M55.2625 40.6569L71.1576 113.94L126.627 75.5311L55.2625 40.6569ZM68.7831 292.295L51.9812 202.513L-52.6293 192.945L-2.70761 134.187L68.7831 292.295ZM175.226 254.824L51.9812 202.513L175.226 254.824Z" stroke="#000A8E" stroke-width="0.5"/>
<path d="M-102.4 237.844L-225.645 185.532M-206.63 96.7518L-86.5942 118.952L-2.70755 134.186L51.9813 202.512L70.8348 113.524L191.193 136.14L132.764 191.604L175.226 254.824L68.7831 292.295L107.312 391.33L-206.63 96.7518ZM-25.3307 76.9349L70.8348 113.524L-25.3307 76.9349ZM51.6811 429.531L-44.6458 392.734L51.6811 429.531ZM-109.84 6.38885L-86.4328 119.16L-109.84 6.38885Z" stroke="#000A8E" stroke-width="0.5"/>
</svg>
