<svg width="1440" height="647" viewBox="0 0 1440 647" fill="none" xmlns="http://www.w3.org/2000/svg">
<g clip-path="url(#clip0)">
<path d="M1703.44 0H1134.65V647H1703.44V0Z" fill="#FAF7F7"/>
<path d="M1793.73 711.7L1654.38 596.049L1504.36 533.775L1354.34 435.107L1163.09 484.441L1344.39 617.885L1224.59 711.296L1163.09 484.441L994.582 398.714L1207.17 308.942L1112.61 185.204L1224.59 64.2956L1085.59 -50.9512M1681.4 185.204L1871.94 211.003L1681.4 185.204Z" stroke="#FAF7F7" stroke-width="0.5"/>
<path d="M1397.71 731.919L1344.39 617.885M1112.61 185.204L1303.15 211.084L1411.93 308.943L1563.37 398.714L1353.99 434.703L1206.81 308.538L1112.61 185.204Z" stroke="#FAF7F7" stroke-width="0.5"/>
<path d="M1504.36 533.775L1545.6 680.967L1654.38 596.049L1731.88 484.441L1563.37 398.714L1504.36 533.775ZM1504.36 533.775L1344.39 617.885L1354.34 435.107L1411.93 308.942L1517.87 217.554L1681.4 185.204L1545.24 33.5631L1397.71 84.9187L1344.39 -29.115L1224.59 64.2956L1303.15 211.084L1207.17 308.942L1163.09 484.441L1085.59 596.049L1224.94 711.7" stroke="#FAF7F7" stroke-width="0.5"/>
<path d="M1411.93 308.943H1207.17M1504.36 -113.225L1545.95 34.3719L1654.38 -50.9512L1504.36 -113.225ZM1563.37 398.714L1517.87 217.554L1303.15 211.084L1397.71 84.9188L1563.37 398.714ZM1775.96 308.943L1517.87 217.554L1775.96 308.943Z" stroke="#FAF7F7" stroke-width="0.5"/>
<path d="M1207.17 308.943L949.079 217.554M976.807 33.9675L1224.59 64.2957L1397.71 84.9188L1517.87 217.554L1545.24 33.5632L1793.73 64.7L1681.4 185.204L1775.96 308.943L1563.37 398.714L1654.38 596.049L976.807 33.9675ZM1344.39 -29.115L1545.24 33.5632L1344.39 -29.115ZM1545.6 680.968L1344.39 617.885L1545.6 680.968ZM1163.09 -162.559L1224.94 64.7L1163.09 -162.559Z" stroke="#FAF7F7" stroke-width="0.5"/>
<path d="M1354.34 439.151C1356.31 439.151 1357.9 437.341 1357.9 435.108C1357.9 432.874 1356.31 431.064 1354.34 431.064C1352.38 431.064 1350.79 432.874 1350.79 435.108C1350.79 437.341 1352.38 439.151 1354.34 439.151Z" fill="#FAF7F7"/>
<path d="M1344.39 621.929C1346.35 621.929 1347.94 620.118 1347.94 617.885C1347.94 615.652 1346.35 613.841 1344.39 613.841C1342.43 613.841 1340.83 615.652 1340.83 617.885C1340.83 620.118 1342.43 621.929 1344.39 621.929Z" fill="#FAF7F7"/>
<path d="M1163.09 488.485C1165.05 488.485 1166.64 486.675 1166.64 484.441C1166.64 482.208 1165.05 480.398 1163.09 480.398C1161.12 480.398 1159.53 482.208 1159.53 484.441C1159.53 486.675 1161.12 488.485 1163.09 488.485Z" fill="#FAF7F7"/>
<path d="M1207.17 312.986C1209.13 312.986 1210.72 311.176 1210.72 308.942C1210.72 306.709 1209.13 304.899 1207.17 304.899C1205.2 304.899 1203.61 306.709 1203.61 308.942C1203.61 311.176 1205.2 312.986 1207.17 312.986Z" fill="#FAF7F7"/>
<path d="M1224.94 68.7438C1226.91 68.7438 1228.5 66.9333 1228.5 64.7C1228.5 62.4667 1226.91 60.6562 1224.94 60.6562C1222.98 60.6562 1221.39 62.4667 1221.39 64.7C1221.39 66.9333 1222.98 68.7438 1224.94 68.7438Z" fill="#FAF7F7"/>
<path d="M1397.71 88.9625C1399.68 88.9625 1401.27 87.1521 1401.27 84.9188C1401.27 82.6855 1399.68 80.875 1397.71 80.875C1395.75 80.875 1394.16 82.6855 1394.16 84.9188C1394.16 87.1521 1395.75 88.9625 1397.71 88.9625Z" fill="#FAF7F7"/>
<path d="M1303.15 215.128C1305.11 215.128 1306.71 213.317 1306.71 211.084C1306.71 208.85 1305.11 207.04 1303.15 207.04C1301.19 207.04 1299.6 208.85 1299.6 211.084C1299.6 213.317 1301.19 215.128 1303.15 215.128Z" fill="#FAF7F7"/>
<path d="M1411.93 312.986C1413.9 312.986 1415.49 311.176 1415.49 308.942C1415.49 306.709 1413.9 304.899 1411.93 304.899C1409.97 304.899 1408.38 306.709 1408.38 308.942C1408.38 311.176 1409.97 312.986 1411.93 312.986Z" fill="#FAF7F7"/>
</g>
<g clip-path="url(#clip1)">
<path d="M1703.07 0H1134.27V647H1703.07V0Z" fill="#00044D"/>
<path d="M1793.36 711.7L1654.01 596.049L1503.99 533.775L1353.97 435.107L1162.71 484.441L1344.02 617.885L1224.21 711.296L1162.71 484.441L994.21 398.714L1206.8 308.942L1112.23 185.204L1224.21 64.2956L1085.22 -50.9512M1681.02 185.204L1871.57 211.003L1681.02 185.204Z" stroke="#000A8E" stroke-width="0.5"/>
<path d="M1397.34 731.919L1344.02 617.885M1112.23 185.204L1302.78 211.084L1411.56 308.943L1563 398.714L1353.61 434.703L1206.44 308.538L1112.23 185.204Z" stroke="#000A8E" stroke-width="0.5"/>
<path d="M1503.99 533.775L1545.23 680.967L1654.01 596.049L1731.51 484.441L1563 398.714L1503.99 533.775ZM1503.99 533.775L1344.02 617.885L1353.97 435.107L1411.56 308.942L1517.5 217.554L1681.03 185.204L1544.87 33.5631L1397.34 84.9187L1344.02 -29.115L1224.21 64.2956L1302.78 211.084L1206.8 308.942L1162.71 484.441L1085.22 596.049L1224.57 711.7" stroke="#000A8E" stroke-width="0.5"/>
<path d="M1411.56 308.943H1206.8M1503.99 -113.225L1545.58 34.3719L1654.01 -50.9512L1503.99 -113.225ZM1563 398.714L1517.5 217.554L1302.78 211.084L1397.34 84.9188L1563 398.714ZM1775.59 308.943L1517.5 217.554L1775.59 308.943Z" stroke="#000A8E" stroke-width="0.5"/>
<path d="M1206.8 308.943L948.706 217.554M976.435 33.9675L1224.21 64.2957L1397.34 84.9188L1517.5 217.554L1544.87 33.5632L1793.36 64.7L1681.02 185.204L1775.59 308.943L1563 398.714L1654.01 596.049L976.435 33.9675ZM1344.02 -29.115L1544.87 33.5632L1344.02 -29.115ZM1545.23 680.968L1344.02 617.885L1545.23 680.968ZM1162.71 -162.559L1224.57 64.7L1162.71 -162.559Z" stroke="#000A8E" stroke-width="0.5"/>
<path d="M1353.97 439.151C1355.93 439.151 1357.52 437.341 1357.52 435.108C1357.52 432.874 1355.93 431.064 1353.97 431.064C1352.01 431.064 1350.42 432.874 1350.42 435.108C1350.42 437.341 1352.01 439.151 1353.97 439.151Z" fill="#FAF7F7"/>
<path d="M1344.02 621.929C1345.98 621.929 1347.57 620.118 1347.57 617.885C1347.57 615.652 1345.98 613.841 1344.02 613.841C1342.05 613.841 1340.46 615.652 1340.46 617.885C1340.46 620.118 1342.05 621.929 1344.02 621.929Z" fill="#000A8E"/>
<path d="M1162.71 488.485C1164.68 488.485 1166.27 486.675 1166.27 484.441C1166.27 482.208 1164.68 480.398 1162.71 480.398C1160.75 480.398 1159.16 482.208 1159.16 484.441C1159.16 486.675 1160.75 488.485 1162.71 488.485Z" fill="#000A8E"/>
<path d="M1206.8 312.986C1208.76 312.986 1210.35 311.176 1210.35 308.942C1210.35 306.709 1208.76 304.899 1206.8 304.899C1204.83 304.899 1203.24 306.709 1203.24 308.942C1203.24 311.176 1204.83 312.986 1206.8 312.986Z" fill="#000A8E"/>
<path d="M1224.57 68.7438C1226.53 68.7438 1228.12 66.9333 1228.12 64.7C1228.12 62.4667 1226.53 60.6562 1224.57 60.6562C1222.61 60.6562 1221.01 62.4667 1221.01 64.7C1221.01 66.9333 1222.61 68.7438 1224.57 68.7438Z" fill="#FAF7F7"/>
<path d="M1397.34 88.9625C1399.3 88.9625 1400.9 87.1521 1400.9 84.9188C1400.9 82.6855 1399.3 80.875 1397.34 80.875C1395.38 80.875 1393.79 82.6855 1393.79 84.9188C1393.79 87.1521 1395.38 88.9625 1397.34 88.9625Z" fill="#000A8E"/>
<path d="M1302.78 215.128C1304.74 215.128 1306.33 213.317 1306.33 211.084C1306.33 208.85 1304.74 207.04 1302.78 207.04C1300.82 207.04 1299.22 208.85 1299.22 211.084C1299.22 213.317 1300.82 215.128 1302.78 215.128Z" fill="#FAF7F7"/>
<path d="M1411.56 312.986C1413.52 312.986 1415.12 311.176 1415.12 308.942C1415.12 306.709 1413.52 304.899 1411.56 304.899C1409.6 304.899 1408.01 306.709 1408.01 308.942C1408.01 311.176 1409.6 312.986 1411.56 312.986Z" fill="#000A8E"/>
</g>
<g clip-path="url(#clip2)">
<path d="M1134.79 0H566V647H1134.79V0Z" fill="#00044D"/>
<path d="M1224.94 711.7L1085.59 596.049L935.57 533.775L785.552 435.107L594.296 484.441L775.598 617.885L655.796 711.296L594.296 484.441L425.791 398.714L638.377 308.942L543.815 185.204L655.796 64.2956L516.798 -50.9512M1112.61 185.204L1303.15 211.003L1112.61 185.204Z" stroke="#000A8E" stroke-width="0.5"/>
<path d="M828.922 731.919L775.598 617.885M543.815 185.204L734.36 211.084L843.142 308.943L994.582 398.714L785.196 434.703L638.021 308.538L543.815 185.204Z" stroke="#000A8E" stroke-width="0.5"/>
<path d="M935.57 533.775L976.808 680.967L1085.59 596.049L1163.09 484.441L994.582 398.714L935.57 533.775ZM935.57 533.775L775.598 617.885L785.552 435.107L843.142 308.942L949.079 217.554L1112.61 185.204L976.452 33.5631L828.922 84.9187L775.598 -29.115L655.796 64.2956L734.361 211.084L638.377 308.942L594.296 484.441L516.798 596.049L656.152 711.7" stroke="#000A8E" stroke-width="0.5"/>
<path d="M843.142 308.943H638.377M935.57 -113.225L977.163 34.3719L1085.59 -50.9512L935.57 -113.225ZM994.582 398.714L949.079 217.554L734.36 211.084L828.922 84.9188L994.582 398.714ZM1207.17 308.943L949.079 217.554L1207.17 308.943Z" stroke="#000A8E" stroke-width="0.5"/>
<path d="M638.377 308.943L380.288 217.554M408.017 33.9675L655.796 64.2957L828.922 84.9188L949.079 217.554L976.452 33.5632L1224.94 64.7L1112.61 185.204L1207.17 308.943L994.582 398.714L1085.59 596.049L408.017 33.9675ZM775.598 -29.115L976.452 33.5632L775.598 -29.115ZM976.808 680.968L775.598 617.885L976.808 680.968ZM594.296 -162.559L656.152 64.7L594.296 -162.559Z" stroke="#000A8E" stroke-width="0.5"/>
<path d="M1112.61 189.248C1114.57 189.248 1116.16 187.437 1116.16 185.204C1116.16 182.97 1114.57 181.16 1112.61 181.16C1110.64 181.16 1109.05 182.97 1109.05 185.204C1109.05 187.437 1110.64 189.248 1112.61 189.248Z" fill="#000A8E"/>
<path d="M949.079 221.598C951.042 221.598 952.634 219.787 952.634 217.554C952.634 215.32 951.042 213.51 949.079 213.51C947.116 213.51 945.524 215.32 945.524 217.554C945.524 219.787 947.116 221.598 949.079 221.598Z" fill="#000A8E"/>
<path d="M994.583 402.758C996.546 402.758 998.137 400.947 998.137 398.714C998.137 396.481 996.546 394.67 994.583 394.67C992.619 394.67 991.028 396.481 991.028 398.714C991.028 400.947 992.619 402.758 994.583 402.758Z" fill="#000A8E"/>
<path d="M1085.59 600.092C1087.55 600.092 1089.14 598.282 1089.14 596.049C1089.14 593.815 1087.55 592.005 1085.59 592.005C1083.63 592.005 1082.03 593.815 1082.03 596.049C1082.03 598.282 1083.63 600.092 1085.59 600.092Z" fill="#000A8E"/>
<path d="M935.57 537.819C937.534 537.819 939.125 536.008 939.125 533.775C939.125 531.542 937.534 529.731 935.57 529.731C933.607 529.731 932.015 531.542 932.015 533.775C932.015 536.008 933.607 537.819 935.57 537.819Z" fill="#FAF7F7"/>
<path d="M785.552 439.151C787.515 439.151 789.107 437.341 789.107 435.108C789.107 432.874 787.515 431.064 785.552 431.064C783.588 431.064 781.997 432.874 781.997 435.108C781.997 437.341 783.588 439.151 785.552 439.151Z" fill="#000A8E"/>
<path d="M775.598 621.929C777.561 621.929 779.153 620.118 779.153 617.885C779.153 615.652 777.561 613.841 775.598 613.841C773.635 613.841 772.043 615.652 772.043 617.885C772.043 620.118 773.635 621.929 775.598 621.929Z" fill="#FAF7F7"/>
<path d="M594.296 488.485C596.259 488.485 597.851 486.675 597.851 484.441C597.851 482.208 596.259 480.398 594.296 480.398C592.332 480.398 590.741 482.208 590.741 484.441C590.741 486.675 592.332 488.485 594.296 488.485Z" fill="#000A8E"/>
<path d="M638.377 312.986C640.34 312.986 641.932 311.176 641.932 308.942C641.932 306.709 640.34 304.899 638.377 304.899C636.414 304.899 634.822 306.709 634.822 308.942C634.822 311.176 636.414 312.986 638.377 312.986Z" fill="#FAF7F7"/>
<path d="M656.152 68.7438C658.115 68.7438 659.707 66.9333 659.707 64.7C659.707 62.4667 658.115 60.6562 656.152 60.6562C654.188 60.6562 652.597 62.4667 652.597 64.7C652.597 66.9333 654.188 68.7438 656.152 68.7438Z" fill="#FAF7F7"/>
<path d="M828.922 88.9625C830.885 88.9625 832.477 87.1521 832.477 84.9188C832.477 82.6855 830.885 80.875 828.922 80.875C826.959 80.875 825.367 82.6855 825.367 84.9188C825.367 87.1521 826.959 88.9625 828.922 88.9625Z" fill="#000A8E"/>
<path d="M976.808 38.0113C978.771 38.0113 980.363 36.2008 980.363 33.9675C980.363 31.7342 978.771 29.9238 976.808 29.9238C974.844 29.9238 973.253 31.7342 973.253 33.9675C973.253 36.2008 974.844 38.0113 976.808 38.0113Z" fill="#FAF7F7"/>
<path d="M734.36 215.128C736.324 215.128 737.915 213.317 737.915 211.084C737.915 208.85 736.324 207.04 734.36 207.04C732.397 207.04 730.806 208.85 730.806 211.084C730.806 213.317 732.397 215.128 734.36 215.128Z" fill="#000A8E"/>
<path d="M843.142 312.986C845.105 312.986 846.697 311.176 846.697 308.942C846.697 306.709 845.105 304.899 843.142 304.899C841.179 304.899 839.587 306.709 839.587 308.942C839.587 311.176 841.179 312.986 843.142 312.986Z" fill="#000A8E"/>
</g>
<g clip-path="url(#clip3)">
<path d="M566.144 0H-3.06494V647H566.144V0Z" fill="#00044D"/>
<path d="M656.329 711.7L516.924 596.049L366.85 533.775L216.776 435.107L25.45 484.441L206.819 617.885L86.9732 711.296L25.45 484.441L-143.116 398.714L69.5475 308.942L-25.0487 185.204L86.9732 64.2956L-52.0762 -50.9512M543.951 185.204L734.566 211.003L543.951 185.204Z" stroke="#000A8E" stroke-width="0.5"/>
<path d="M260.163 731.919L206.819 617.885M-25.0488 185.204L165.566 211.084L274.388 308.943L425.884 398.714L216.421 434.703L69.1919 308.538L-25.0488 185.204Z" stroke="#000A8E" stroke-width="0.5"/>
<path d="M366.85 533.775L408.103 680.967L516.924 596.049L594.45 484.441L425.884 398.714L366.85 533.775ZM366.85 533.775L206.819 617.885L216.776 435.107L274.388 308.942L380.364 217.554L543.951 185.204L407.747 33.5631L260.163 84.9187L206.819 -29.115L86.9732 64.2956L165.566 211.084L69.5475 308.942L25.45 484.441L-52.0762 596.049L87.3288 711.7" stroke="#000A8E" stroke-width="0.5"/>
<path d="M274.387 308.943H69.5475M366.85 -113.225L408.458 34.3719L516.924 -50.9512L366.85 -113.225ZM425.884 398.714L380.364 217.554L165.566 211.084L260.162 84.9188L425.884 398.714ZM638.547 308.943L380.364 217.554L638.547 308.943Z" stroke="#000A8E" stroke-width="0.5"/>
<path d="M69.5475 308.943L-188.636 217.554M-160.897 33.9675L86.9731 64.2957L260.162 84.9188L380.364 217.554L407.747 33.5632L656.329 64.7L543.951 185.204L638.547 308.943L425.884 398.714L516.924 596.049L-160.897 33.9675ZM206.819 -29.115L407.747 33.5632L206.819 -29.115ZM408.102 680.968L206.819 617.885L408.102 680.968ZM25.45 -162.559L87.3287 64.7L25.45 -162.559Z" stroke="#000A8E" stroke-width="0.5"/>
<path d="M543.951 189.248C545.915 189.248 547.507 187.437 547.507 185.204C547.507 182.97 545.915 181.16 543.951 181.16C541.987 181.16 540.395 182.97 540.395 185.204C540.395 187.437 541.987 189.248 543.951 189.248Z" fill="#000A8E"/>
<path d="M380.364 221.598C382.328 221.598 383.92 219.787 383.92 217.554C383.92 215.32 382.328 213.51 380.364 213.51C378.4 213.51 376.807 215.32 376.807 217.554C376.807 219.787 378.4 221.598 380.364 221.598Z" fill="#000A8E"/>
<path d="M425.884 402.758C427.848 402.758 429.44 400.947 429.44 398.714C429.44 396.481 427.848 394.67 425.884 394.67C423.92 394.67 422.328 396.481 422.328 398.714C422.328 400.947 423.92 402.758 425.884 402.758Z" fill="#000A8E"/>
<path d="M516.924 600.092C518.888 600.092 520.48 598.282 520.48 596.049C520.48 593.815 518.888 592.005 516.924 592.005C514.96 592.005 513.367 593.815 513.367 596.049C513.367 598.282 514.96 600.092 516.924 600.092Z" fill="#000A8E"/>
<path d="M366.85 537.819C368.814 537.819 370.406 536.008 370.406 533.775C370.406 531.542 368.814 529.731 366.85 529.731C364.886 529.731 363.294 531.542 363.294 533.775C363.294 536.008 364.886 537.819 366.85 537.819Z" fill="#FAF7F7"/>
<path d="M216.776 439.151C218.74 439.151 220.332 437.341 220.332 435.108C220.332 432.874 218.74 431.064 216.776 431.064C214.812 431.064 213.22 432.874 213.22 435.108C213.22 437.341 214.812 439.151 216.776 439.151Z" fill="#000A8E"/>
<path d="M206.819 621.929C208.783 621.929 210.375 620.118 210.375 617.885C210.375 615.652 208.783 613.841 206.819 613.841C204.855 613.841 203.262 615.652 203.262 617.885C203.262 620.118 204.855 621.929 206.819 621.929Z" fill="#FAF7F7"/>
<path d="M25.45 488.485C27.414 488.485 29.0062 486.675 29.0062 484.441C29.0062 482.208 27.414 480.398 25.45 480.398C23.4859 480.398 21.8937 482.208 21.8937 484.441C21.8937 486.675 23.4859 488.485 25.45 488.485Z" fill="#000A8E"/>
<path d="M69.5475 312.986C71.5115 312.986 73.1037 311.176 73.1037 308.942C73.1037 306.709 71.5115 304.899 69.5475 304.899C67.5834 304.899 65.9912 306.709 65.9912 308.942C65.9912 311.176 67.5834 312.986 69.5475 312.986Z" fill="white"/>
<path d="M87.3287 68.7438C89.2928 68.7438 90.885 66.9333 90.885 64.7C90.885 62.4667 89.2928 60.6562 87.3287 60.6562C85.3647 60.6562 83.7725 62.4667 83.7725 64.7C83.7725 66.9333 85.3647 68.7438 87.3287 68.7438Z" fill="#000A8E"/>
<path d="M260.162 88.9625C262.127 88.9625 263.719 87.1521 263.719 84.9188C263.719 82.6855 262.127 80.875 260.162 80.875C258.198 80.875 256.606 82.6855 256.606 84.9188C256.606 87.1521 258.198 88.9625 260.162 88.9625Z" fill="#FAF7F7"/>
<path d="M408.103 38.0113C410.067 38.0113 411.659 36.2008 411.659 33.9675C411.659 31.7342 410.067 29.9238 408.103 29.9238C406.138 29.9238 404.546 31.7342 404.546 33.9675C404.546 36.2008 406.138 38.0113 408.103 38.0113Z" fill="#000A8E"/>
<path d="M165.566 215.128C167.53 215.128 169.123 213.317 169.123 211.084C169.123 208.85 167.53 207.04 165.566 207.04C163.602 207.04 162.01 208.85 162.01 211.084C162.01 213.317 163.602 215.128 165.566 215.128Z" fill="#000A8E"/>
<path d="M274.388 312.986C276.352 312.986 277.944 311.176 277.944 308.942C277.944 306.709 276.352 304.899 274.388 304.899C272.423 304.899 270.831 306.709 270.831 308.942C270.831 311.176 272.423 312.986 274.388 312.986Z" fill="#000A8E"/>
</g>
<defs>
<clipPath id="clip0">
<rect width="568.791" height="647" fill="white" transform="translate(1134.65)"/>
</clipPath>
<clipPath id="clip1">
<rect width="568.791" height="647" fill="white" transform="translate(1134.27)"/>
</clipPath>
<clipPath id="clip2">
<rect width="568.791" height="647" fill="white" transform="translate(565.856)"/>
</clipPath>
<clipPath id="clip3">
<rect width="569" height="647" fill="white" transform="translate(-3)"/>
</clipPath>
</defs>
</svg>
