<svg  preserveAspectRatio="none" fill="none" xmlns="http://www.w3.org/2000/svg">
<g filter="url(#filter0_d)">
<path d="M687.131 -722.781C801.252 -624.422 1472.13 -46.2011 1603.68 67.1795C1451.58 250.349 1428.11 278.61 1171.3 587.883C1030.85 757.02 723.611 260.316 469.973 490.293C216.336 720.269 -184.324 635.986 -283.114 445.664L687.131 -722.781Z" fill="#0009A0"/>
<path d="M687.131 -722.781C801.252 -624.422 1472.13 -46.2011 1603.68 67.1795C1451.58 250.349 1428.11 278.61 1171.3 587.883C1030.85 757.02 723.611 260.316 469.973 490.293C216.336 720.269 -184.324 635.986 -283.114 445.664L687.131 -722.781Z" fill="#000CD5"/>
</g>
<g filter="url(#filter1_d)">
<path d="M689.773 -784.074C803.894 -685.714 1474.77 -107.494 1606.32 5.88668C1454.22 189.056 1430.75 217.318 1173.94 526.59C1033.5 695.727 726.253 199.023 472.615 429C218.978 658.977 -181.682 574.693 -280.472 384.371L689.773 -784.074Z" fill="#0009A0"/>
<path d="M689.773 -784.074C803.894 -685.714 1474.77 -107.494 1606.32 5.88668C1454.22 189.056 1430.75 217.318 1173.94 526.59C1033.5 695.727 726.253 199.023 472.615 429C218.978 658.977 -181.682 574.693 -280.472 384.371L689.773 -784.074Z" fill="#030A80"/>
</g>
<g filter="url(#filter2_d)">
<path d="M686.983 -854.232C801.129 -755.911 1472.16 -177.919 1603.74 -64.5829C1451.6 118.52 1428.12 146.771 1171.23 455.932C1030.75 625.007 723.44 128.495 469.73 358.389C216.02 588.283 -184.74 504.038 -283.549 313.789L686.983 -854.232Z" fill="#00044D"/>
</g>
<defs>
<filter id="filter0_d" x="-303.114" y="-738.781" width="1926.79" height="1391.99" filterUnits="userSpaceOnUse" color-interpolation-filters="sRGB">
<feFlood flood-opacity="0" result="BackgroundImageFix"/>
<feColorMatrix in="SourceAlpha" type="matrix" values="0 0 0 0 0 0 0 0 0 0 0 0 0 0 0 0 0 0 127 0"/>
<feOffset dy="4"/>
<feGaussianBlur stdDeviation="10"/>
<feColorMatrix type="matrix" values="0 0 0 0 0 0 0 0 0 0 0 0 0 0 0 0 0 0 0.5 0"/>
<feBlend mode="normal" in2="BackgroundImageFix" result="effect1_dropShadow"/>
<feBlend mode="normal" in="SourceGraphic" in2="effect1_dropShadow" result="shape"/>
</filter>
<filter id="filter1_d" x="-300.472" y="-800.074" width="1926.79" height="1391.99" filterUnits="userSpaceOnUse" color-interpolation-filters="sRGB">
<feFlood flood-opacity="0" result="BackgroundImageFix"/>
<feColorMatrix in="SourceAlpha" type="matrix" values="0 0 0 0 0 0 0 0 0 0 0 0 0 0 0 0 0 0 127 0"/>
<feOffset dy="4"/>
<feGaussianBlur stdDeviation="10"/>
<feColorMatrix type="matrix" values="0 0 0 0 0 0 0 0 0 0 0 0 0 0 0 0 0 0 0.25 0"/>
<feBlend mode="normal" in2="BackgroundImageFix" result="effect1_dropShadow"/>
<feBlend mode="normal" in="SourceGraphic" in2="effect1_dropShadow" result="shape"/>
</filter>
<filter id="filter2_d" x="-303.549" y="-870.232" width="1927.29" height="1391.49" filterUnits="userSpaceOnUse" color-interpolation-filters="sRGB">
<feFlood flood-opacity="0" result="BackgroundImageFix"/>
<feColorMatrix in="SourceAlpha" type="matrix" values="0 0 0 0 0 0 0 0 0 0 0 0 0 0 0 0 0 0 127 0"/>
<feOffset dy="4"/>
<feGaussianBlur stdDeviation="10"/>
<feColorMatrix type="matrix" values="0 0 0 0 0 0 0 0 0 0 0 0 0 0 0 0 0 0 0.25 0"/>
<feBlend mode="normal" in2="BackgroundImageFix" result="effect1_dropShadow"/>
<feBlend mode="normal" in="SourceGraphic" in2="effect1_dropShadow" result="shape"/>
</filter>
</defs>
</svg>
