<svg viewBox="0 0 375 1203" fill="none" xmlns="http://www.w3.org/2000/svg">
<g filter="url(#filter0_d)">
<path d="M354.893 -358.582C437.219 -287.626 921.185 129.498 1016.08 211.29C906.36 343.427 889.431 363.814 704.169 586.921C602.852 708.935 381.209 350.617 198.237 516.52C15.2648 682.424 -273.768 621.622 -345.035 484.325L354.893 -358.582Z" fill="#0009A0"/>
<path d="M354.893 -358.582C437.219 -287.626 921.185 129.498 1016.08 211.29C906.36 343.427 889.431 363.814 704.169 586.921C602.852 708.935 381.209 350.617 198.237 516.52C15.2648 682.424 -273.768 621.622 -345.035 484.325L354.893 -358.582Z" fill="#000CD5"/>
</g>
<g filter="url(#filter1_d)">
<path d="M356.248 -405.275C438.574 -334.319 922.54 82.8046 1017.44 164.596C907.715 296.734 890.786 317.121 705.524 540.228C604.207 662.242 382.564 303.924 199.592 469.827C16.6199 635.731 -272.413 574.929 -343.679 437.632L356.248 -405.275Z" fill="#0009A0"/>
<path d="M356.248 -405.275C438.574 -334.319 922.54 82.8046 1017.44 164.596C907.715 296.734 890.786 317.121 705.524 540.228C604.207 662.242 382.564 303.924 199.592 469.827C16.6199 635.731 -272.413 574.929 -343.679 437.632L356.248 -405.275Z" fill="#030A80"/>
</g>
<g filter="url(#filter2_d)">
<path d="M354.235 -455.886C436.58 -384.959 920.656 32.0005 1015.58 113.76C905.821 245.849 888.886 266.229 703.57 489.256C602.223 611.225 380.535 253.045 197.511 418.889C14.4864 584.733 -274.619 523.959 -345.899 386.715L354.235 -455.886Z" fill="#00044D"/>
</g>
<defs>
<filter id="filter0_d" x="-365.035" y="-374.582" width="1401.12" height="1015.31" filterUnits="userSpaceOnUse" color-interpolation-filters="sRGB">
<feFlood flood-opacity="0" result="BackgroundImageFix"/>
<feColorMatrix in="SourceAlpha" type="matrix" values="0 0 0 0 0 0 0 0 0 0 0 0 0 0 0 0 0 0 127 0"/>
<feOffset dy="4"/>
<feGaussianBlur stdDeviation="10"/>
<feColorMatrix type="matrix" values="0 0 0 0 0 0 0 0 0 0 0 0 0 0 0 0 0 0 0.5 0"/>
<feBlend mode="normal" in2="BackgroundImageFix" result="effect1_dropShadow"/>
<feBlend mode="normal" in="SourceGraphic" in2="effect1_dropShadow" result="shape"/>
</filter>
<filter id="filter1_d" x="-363.679" y="-421.275" width="1401.12" height="1015.31" filterUnits="userSpaceOnUse" color-interpolation-filters="sRGB">
<feFlood flood-opacity="0" result="BackgroundImageFix"/>
<feColorMatrix in="SourceAlpha" type="matrix" values="0 0 0 0 0 0 0 0 0 0 0 0 0 0 0 0 0 0 127 0"/>
<feOffset dy="4"/>
<feGaussianBlur stdDeviation="10"/>
<feColorMatrix type="matrix" values="0 0 0 0 0 0 0 0 0 0 0 0 0 0 0 0 0 0 0.25 0"/>
<feBlend mode="normal" in2="BackgroundImageFix" result="effect1_dropShadow"/>
<feBlend mode="normal" in="SourceGraphic" in2="effect1_dropShadow" result="shape"/>
</filter>
<filter id="filter2_d" x="-365.899" y="-471.886" width="1401.47" height="1014.95" filterUnits="userSpaceOnUse" color-interpolation-filters="sRGB">
<feFlood flood-opacity="0" result="BackgroundImageFix"/>
<feColorMatrix in="SourceAlpha" type="matrix" values="0 0 0 0 0 0 0 0 0 0 0 0 0 0 0 0 0 0 127 0"/>
<feOffset dy="4"/>
<feGaussianBlur stdDeviation="10"/>
<feColorMatrix type="matrix" values="0 0 0 0 0 0 0 0 0 0 0 0 0 0 0 0 0 0 0.25 0"/>
<feBlend mode="normal" in2="BackgroundImageFix" result="effect1_dropShadow"/>
<feBlend mode="normal" in="SourceGraphic" in2="effect1_dropShadow" result="shape"/>
</filter>
</defs>
</svg>
