<svg width="432" height="285" viewBox="0 0 432 285" fill="none" xmlns="http://www.w3.org/2000/svg">
<path d="M386.935 195.037C386.541 209.764 384.074 224.362 379.606 238.401C379.504 238.727 379.397 239.048 379.29 239.374H351.938C351.967 239.082 351.996 238.756 352.025 238.401C353.849 217.439 364.364 89.8551 351.792 68.0367C352.891 69.8067 389.056 128.43 386.935 195.037Z" fill="#E6E6E6"/>
<path d="M384.883 238.401C384.654 238.727 384.416 239.053 384.173 239.374H363.654C363.809 239.097 363.989 238.771 364.198 238.401C367.588 232.284 377.622 213.996 386.935 195.037C396.944 174.663 406.126 153.516 405.353 145.862C405.591 147.588 412.517 200.211 384.883 238.401Z" fill="#E6E6E6"/>
<path d="M76.5109 241.108H38.0114C37.9637 240.961 37.9159 240.818 37.8682 240.674C37.7728 240.384 37.6773 240.097 37.5862 239.807C37.5775 239.785 37.5732 239.759 37.5645 239.737C37.2782 238.848 36.9962 237.955 36.7229 237.065C35.2868 232.398 34.0258 227.725 32.9397 223.046C39.1692 227.002 46.3233 229.264 53.6949 229.609C53.3478 228.976 52.9964 228.325 52.632 227.653L29.5037 204.741C28.9353 200.816 28.4754 196.902 28.124 192.999L63.6951 228.564C64.22 228.447 64.7406 228.316 65.2569 228.178C68.7043 227.256 72.0102 225.87 75.0835 224.057C75.461 228.759 75.7907 232.749 76.0553 235.89C76.1855 237.365 76.2939 238.653 76.3894 239.737C76.3894 239.759 76.3937 239.785 76.3937 239.807C76.4198 240.115 76.4458 240.405 76.4718 240.674C76.4848 240.826 76.4979 240.969 76.5109 241.108Z" fill="#E6E6E6"/>
<path d="M74.4588 216.045C73.821 216.527 73.1645 216.981 72.4891 217.407C70.4142 218.731 68.1906 219.805 65.8643 220.608L30.4885 185.239L27.3822 182.133C27.3258 180.988 27.2809 179.843 27.2477 178.698C27.1869 176.833 27.1493 174.971 27.1349 173.111C29.7788 168.733 33.4123 165.036 37.7438 162.316C42.0753 159.596 46.9843 157.928 52.0767 157.448C53.0398 157.357 54.0203 157.313 55.0095 157.313C58.3859 157.313 61.7414 157.843 64.9532 158.884C66.9916 159.537 68.9606 160.39 70.8319 161.43C71.3872 171.419 71.9859 181.001 72.5802 189.867H69.4826V197.098H73.0705C73.3568 201.158 73.6345 205.036 73.9035 208.693C74.0944 211.256 74.2795 213.707 74.4588 216.045Z" fill="#E6E6E6"/>
<path d="M70.2418 150.369C70.2896 151.293 70.3373 152.215 70.385 153.136C63.1759 150.13 55.2391 149.32 47.5713 150.809C39.9036 152.298 32.8466 156.018 27.2867 161.504C27.4603 156.611 27.764 151.764 28.1978 146.964C35.2435 67.6803 74.7235 3.15347 76.6758 0C66.6713 17.5241 67.1008 82.8317 69.8123 141.451C69.9512 144.444 70.0943 147.416 70.2418 150.369Z" fill="#E6E6E6"/>
<path d="M30.4886 185.239L27.3823 182.134L24.2629 179.015C24.6927 177.856 25.1866 176.722 25.7424 175.618C26.2413 176.646 26.7431 177.673 27.2478 178.698C28.3237 180.889 29.404 183.069 30.4886 185.239Z" fill="#E6E6E6"/>
<path d="M60.0205 241.108H31.1393C31.0309 240.965 30.9224 240.822 30.8139 240.674C30.6013 240.388 30.3888 240.097 30.1849 239.807C30.1675 239.785 30.1545 239.759 30.1371 239.737C27.6686 236.324 25.3909 232.836 23.3041 229.275L23.2997 229.271C14.1976 213.816 8.52728 197.259 5.06085 181.53C-3.15619 144.231 1.03476 111.616 1.3211 109.526C0.540176 117.546 7.45568 135.998 16.8268 156.693C18.4884 160.367 20.2281 164.111 22.0155 167.876C19.3105 171.923 17.375 176.434 16.3061 181.183L41.0831 205.956C45.3868 214.193 49.3782 221.645 52.6321 227.653L29.5037 204.741L15.2172 190.587C15.3099 200.916 19.4703 210.792 26.7965 218.075C28.6647 219.942 30.7237 221.609 32.9398 223.046C39.1693 227.002 46.3233 229.264 53.695 229.609C56.0725 233.986 57.9901 237.46 59.2526 239.737C59.2656 239.763 59.2786 239.785 59.2916 239.807C59.387 239.976 59.4782 240.136 59.5649 240.293C59.6387 240.427 59.7081 240.553 59.7775 240.674C59.8599 240.826 59.9424 240.969 60.0205 241.108Z" fill="#E6E6E6"/>
<path d="M429.832 239.808H2.92749V240.675H429.832V239.808Z" fill="#2F2E41"/>
<path d="M144.21 281.386L158.787 279.1L152.784 272.813H144.21V281.386Z" fill="#FFB8B8"/>
<path d="M147 284.856L161.419 280.114C161.802 279.988 162.153 279.781 162.448 279.508C162.744 279.234 162.977 278.9 163.132 278.529C163.287 278.157 163.36 277.756 163.346 277.354C163.332 276.951 163.231 276.557 163.051 276.197V276.197C162.804 275.702 162.416 275.292 161.936 275.017C161.456 274.743 160.906 274.616 160.354 274.653L157.083 274.874L155.801 274.153C155.666 274.077 155.511 274.045 155.357 274.061C155.203 274.078 155.058 274.142 154.942 274.244C154.825 274.347 154.744 274.483 154.709 274.634C154.674 274.785 154.687 274.943 154.746 275.086L155.928 277.957L143.923 277.099L143.331 281.837C143.272 282.307 143.333 282.785 143.509 283.225C143.684 283.666 143.968 284.055 144.334 284.356C144.7 284.658 145.137 284.861 145.603 284.949C146.069 285.036 146.55 285.004 147 284.856V284.856Z" fill="#2F2E41"/>
<path d="M104.527 274.207L119.676 278.208C116.886 272.421 115.168 267.3 116.246 263.919L109.1 263.061L104.527 274.207Z" fill="#FFB8B8"/>
<path d="M105.458 279.286L121.133 280.302C121.549 280.329 121.965 280.266 122.355 280.117C122.744 279.969 123.097 279.738 123.389 279.441C123.681 279.144 123.906 278.788 124.048 278.396C124.19 278.004 124.246 277.587 124.213 277.171V277.171C124.166 276.601 123.952 276.057 123.598 275.608C123.243 275.159 122.764 274.825 122.22 274.648L118.994 273.597L118.043 272.409C117.942 272.284 117.805 272.194 117.651 272.15C117.497 272.106 117.333 272.111 117.182 272.165C117.031 272.219 116.9 272.318 116.808 272.45C116.716 272.581 116.668 272.738 116.669 272.898L116.695 276.11L105.502 270.651L103.103 274.97C102.865 275.399 102.739 275.881 102.737 276.372C102.735 276.862 102.857 277.345 103.093 277.776C103.328 278.207 103.668 278.571 104.081 278.835C104.495 279.099 104.969 279.254 105.458 279.286V279.286Z" fill="#2F2E41"/>
<path d="M155.066 98.1806C160.907 98.1806 165.642 93.4466 165.642 87.6069C165.642 81.7672 160.907 77.0332 155.066 77.0332C149.226 77.0332 144.491 81.7672 144.491 87.6069C144.491 93.4466 149.226 98.1806 155.066 98.1806Z" fill="#FFB8B8"/>
<path d="M138.286 101.373L150.51 110.614C152.486 103.072 154.858 97.6851 157.964 96.3053L145.74 89.1508L138.286 101.373Z" fill="#FFB8B8"/>
<path d="M106.681 262.947L117.116 267.418L141.267 210.48L143.206 273.828L153.641 273.232L165.269 173.962L164.375 168.298L124.868 177.092L124.272 208.99L106.681 262.947Z" fill="#2F2E41"/>
<path d="M167.058 84.5301C167.058 84.5301 160.201 78.2699 158.114 80.9528C156.026 83.6358 155.43 84.232 154.237 84.232C153.045 84.232 150.063 87.5112 150.063 87.5112C150.063 87.5112 148.572 84.5301 146.783 86.915C144.994 89.2998 144.696 92.8771 144.696 92.8771C144.696 92.8771 138.137 77.6736 149.765 74.6926C161.393 71.7115 169.742 80.9528 167.058 84.5301Z" fill="#2F2E41"/>
<path d="M122.185 181.862C127.85 179.382 128.017 181.328 136.199 184.545C146.503 185.824 153.054 185.988 156.325 181.713C157.663 173.226 158.761 165.087 159.438 157.349C159.578 155.754 159.699 154.175 159.801 152.612C160.994 134.406 159.533 118.58 152.896 105.845L140.969 96.9015L137.078 99.7246C127.785 106.468 129.231 116.827 127.996 128.241L122.185 181.862Z" fill="#6C63FF"/>
<path d="M158.263 179.179L164.524 173.813L163.928 168.447H158.263V179.179Z" fill="#FFB8B8"/>
<path opacity="0.2" d="M141.737 125.371C141.737 125.371 124.122 148.325 136.704 158.759C149.287 169.192 156.325 175.751 156.325 175.751C156.325 175.751 155.578 130.737 141.737 125.371Z" fill="black"/>
<path opacity="0.2" d="M148.572 148.325L159.437 157.349C159.578 155.754 159.699 154.175 159.801 152.612L152.448 119.707L148.572 148.325Z" fill="black"/>
<path d="M156.474 175.602L165.12 168.745L153.79 140.127L153.533 110.297C153.521 108.904 153.081 107.549 152.273 106.415C151.465 105.28 150.328 104.422 149.016 103.955C147.998 103.593 146.909 103.48 145.838 103.623C144.767 103.766 143.746 104.163 142.86 104.779C141.973 105.396 141.246 106.215 140.74 107.169C140.233 108.123 139.961 109.184 139.947 110.263L139.478 144.897L156.474 175.602Z" fill="#6C63FF"/>
<path fill-rule="evenodd" clip-rule="evenodd" d="M55.2168 240.127C83.3396 240.127 106.275 217.193 106.275 189.071C106.275 160.954 83.3396 138.015 55.2168 138.015C27.0992 138.015 4.15881 160.954 4.15881 189.071C4.15371 217.193 27.0941 240.127 55.2168 240.127Z" fill="#6C63FF"/>
<path fill-rule="evenodd" clip-rule="evenodd" d="M42.1205 163.988H49.4729C49.7537 163.988 49.9783 164.218 49.9783 164.499V175.241C49.9783 175.527 50.2081 175.752 50.4889 175.752H59.9295C60.2104 175.752 60.4401 175.527 60.4401 175.241V164.499C60.4401 164.218 60.6648 163.988 60.9507 163.988H68.2979C68.5788 163.988 68.8085 164.218 68.8085 164.499V175.241C68.8085 175.527 69.0332 175.752 69.3191 175.752H78.3053C78.5912 175.752 78.8159 175.982 78.8159 176.262V183.594C78.8159 183.88 78.5912 184.105 78.3053 184.105H69.3191C69.0332 184.105 68.8085 184.334 68.8085 184.615V196.026C68.8085 196.307 69.0332 196.537 69.3191 196.537H78.3053C78.5912 196.537 78.8159 196.761 78.8159 197.047V204.379C78.8159 204.66 78.5912 204.89 78.3053 204.89H69.3191C69.0332 204.89 68.8085 205.119 68.8085 205.4V216.142C68.8085 216.423 68.5788 216.653 68.2979 216.653H60.9507C60.6648 216.653 60.4401 216.423 60.4401 216.142V205.4C60.4401 205.114 60.2104 204.89 59.9295 204.89H50.494C50.2132 204.89 49.9834 205.119 49.9834 205.4V216.142C49.9834 216.423 49.7588 216.653 49.478 216.653H42.1256C41.8448 216.653 41.615 216.423 41.615 216.142V205.4C41.615 205.114 41.3904 204.89 41.1045 204.89H32.1182C31.8323 204.89 31.6077 204.66 31.6077 204.379V197.047C31.6077 196.761 31.8323 196.537 32.1182 196.537H41.1045C41.3904 196.537 41.615 196.307 41.615 196.026V184.615C41.615 184.334 41.3904 184.105 41.1045 184.105H32.1182C31.8323 184.105 31.6077 183.88 31.6077 183.594V176.262C31.6077 175.982 31.8323 175.752 32.1182 175.752H41.1045C41.3904 175.752 41.615 175.527 41.615 175.241V164.499C41.6048 164.218 41.8397 163.988 42.1205 163.988ZM60.4452 196.031V184.615C60.4452 184.334 60.2155 184.105 59.9346 184.105H50.494C50.2132 184.105 49.9834 184.334 49.9834 184.615V196.026C49.9834 196.307 50.2132 196.537 50.494 196.537H59.9346C60.2155 196.542 60.4452 196.307 60.4452 196.031Z" fill="white"/>
</svg>
