<svg width="470" height="300" viewBox="0 0 470 300" fill="none" xmlns="http://www.w3.org/2000/svg">
<path opacity="0.5" d="M64.0908 65.2803C64.0908 65.2803 138.9 128.058 164.375 165.885C189.85 203.713 254.147 197.276 254.147 197.276" stroke="#5D596A" stroke-width="3" stroke-miterlimit="10"/>
<path d="M360.562 290.123C360.074 288.036 358.744 287.292 355.813 287.648C352.629 288.052 349.449 288.429 345.555 285.679C343.491 284.224 341.887 282.938 340.827 282.04L341 281.996C341 281.996 333.112 272.094 333.615 266.393C334.119 260.693 329.947 245.968 329.947 245.968C329.947 245.968 329.722 236.349 327.529 230.765C326.941 229.301 326.496 227.783 326.199 226.233C324.901 219.19 320.991 200.571 314.654 192.364L314.251 175.953V175.322L314.416 175.488C315.009 174.853 315.486 174.12 315.827 173.321C317.685 174.279 321.692 176.264 323.861 176.689C326.747 177.251 330.31 179.693 330.31 179.693C330.31 179.693 338.513 189.283 344.797 185.034C351.081 180.784 333.047 173.947 333.047 173.947C333.047 173.947 326.904 170.62 324.332 169.734C322.51 169.108 318.725 166.629 316.674 165.234C316.639 165.011 316.598 164.783 316.553 164.551C315.368 158.398 313.634 156.061 314.352 152.264C314.548 151.292 314.846 150.343 315.243 149.434C317.661 143.697 307.584 135.728 307.584 135.728C307.584 135.728 300.732 129.893 303.223 126.679C303.223 126.679 307.044 126.275 303.779 123.194C303.219 122.664 302.638 122.175 302.062 121.722C302.086 121.637 302.11 121.557 302.138 121.472C302.816 119.366 303.88 117.405 305.274 115.69C305.492 115.419 305.726 115.152 305.972 114.881C308.63 114.171 310.974 112.589 312.631 110.386C314.287 108.183 315.16 105.487 315.11 102.728C315.04 99.7268 313.865 96.8579 311.812 94.6738C312.193 94.3305 312.486 93.9014 312.668 93.422C312.85 92.9425 312.916 92.4264 312.86 91.9164C313.191 87.9137 305.182 83.8706 301.836 84.4609C299.929 84.7965 298.208 85.8274 296.298 86.1792C294.318 86.5431 292.267 86.1469 290.251 86.1792C287.557 86.2094 284.923 86.9814 282.637 88.411C282.064 88.731 281.581 89.1914 281.234 89.7493C280.955 90.4058 280.818 91.114 280.831 91.8274C280.267 99.19 274.954 105.315 269.311 110.155C268.55 110.724 267.902 111.43 267.4 112.237C266.828 113.321 266.84 114.602 266.832 115.823C266.743 128.026 262.43 140.842 252.643 148.282C252.796 148.379 252.95 148.472 253.111 148.557C252.962 148.674 252.812 148.799 252.659 148.912C255.84 150.986 260.62 149.976 262.736 146.891C261.952 150.267 260.588 153.481 258.706 156.388L259.109 156.368C258.976 156.586 258.847 156.805 258.706 157.019C263.067 156.926 266.28 153.113 268.863 149.636C268.892 149.972 268.912 150.311 268.924 150.647C268.939 154.407 267.917 158.099 265.969 161.313L266.372 161.276C266.246 161.503 266.112 161.726 265.969 161.947C266.612 161.893 267.254 161.827 267.896 161.749C265.324 167.005 261.289 176.588 261.289 176.588L259.79 180.315C258.978 182.313 257.798 184.139 256.311 185.697C254.679 187.407 252.619 189.485 251.736 190.039C250.164 191.022 246.311 203.737 253.284 201.679C260.257 199.621 262.902 189.776 262.902 189.776C263.117 188.163 263.74 186.632 264.712 185.329C265.242 184.588 265.685 183.789 266.034 182.947C267.967 178.673 270.135 174.509 272.527 170.474C273.904 168.19 275.069 165.784 276.006 163.286C276.544 161.868 277.232 160.513 278.058 159.243C279.624 158.585 281.111 157.754 282.492 156.764C283.665 155.943 284.68 154.916 285.487 153.732C285.982 155.721 286.583 157.682 287.289 159.606C288.982 164.199 292.073 174.833 287.595 181.945C283.487 188.47 283.399 191.628 283.705 192.93C283.705 192.999 283.665 193.067 283.645 193.14C282.873 196.053 283.241 199.151 284.673 201.8C285.451 203.289 285.882 204.936 285.934 206.616V207.097C285.96 208.21 285.813 209.32 285.499 210.388C284.624 213.364 282.802 219.922 282.194 224.672C281.387 231.004 276.103 237.121 276.103 237.121C276.103 237.121 262.096 252.283 256.755 270.081C256.755 270.081 253.744 277.726 251.547 279.356C251.547 279.356 247.367 281.85 246.669 286.633C246.669 286.763 246.633 286.892 246.621 287.038L245.714 289.269C245.714 289.269 253.502 293.523 255.098 293.482L256.009 291.566L264.131 297.687L276.252 297.404C276.584 297.182 276.879 296.909 277.127 296.596C277.707 295.836 278.05 294.647 276.212 293.41C275.298 292.818 274.198 292.586 273.124 292.759C271.564 292.989 268.581 292.468 265.788 286.617L264.248 283.738L264.446 283.807C264.446 283.807 261.789 279.453 267.082 273.647C272.374 267.841 279.981 252.517 279.981 252.517C279.981 252.517 290.316 244.071 292.105 238.662C292.105 238.662 298.998 226.989 302.989 220.063C303.654 221.511 304.198 222.606 304.198 222.606C304.198 222.606 312.437 233.774 313.594 242.268C314.751 250.763 322.567 271.69 325.896 277.302C329.226 282.914 329.27 285.113 329.27 285.113C329.27 285.113 327.206 290.418 328.5 294.776L328.541 294.914L328.601 297.437L337.872 297.534L337.844 296.272L349.662 296.624C349.662 296.624 361.074 293.199 360.695 290.685C360.649 290.488 360.605 290.3 360.562 290.123Z" fill="url(#paint0_linear)"/>
<path d="M308.999 115.063C307.55 116.073 306.253 117.285 305.145 118.662C303.796 120.345 302.768 122.264 302.114 124.322C301.559 125.982 301.287 127.723 301.308 129.473L295.322 124.35L287.663 126.081C289.261 124.544 290.64 122.795 291.763 120.881C292.774 119.165 293.586 117.338 294.181 115.435C294.582 114.207 294.864 112.942 295.024 111.659C295.024 111.659 317.202 109.298 308.999 115.063Z" fill="#EFB4B6"/>
<path d="M277.977 296.143C277.739 296.455 277.454 296.728 277.131 296.951L265.405 297.226L257.549 291.218L256.666 293.098C255.122 293.135 247.617 288.974 247.617 288.974L248.491 286.787C248.491 286.658 248.52 286.528 248.54 286.383C249.213 281.668 253.256 279.226 253.256 279.226L254.784 278.571L264.099 280.832L267.005 286.338C269.71 292.079 272.592 292.593 274.104 292.367C275.144 292.197 276.21 292.425 277.09 293.005C278.872 294.23 278.538 295.399 277.977 296.143Z" fill="#C17174"/>
<path d="M358.784 290.385C359.151 292.856 348.114 296.212 348.114 296.212L336.683 295.86L336.711 297.097L327.759 296.996L327.702 294.522L327.662 294.388C326.412 290.11 328.403 284.907 328.403 284.907L329.294 283.338L338.182 280.654C340.07 282.385 342.067 283.994 344.16 285.469C347.929 288.166 351.013 287.786 354.084 287.402C356.906 287.05 358.208 287.786 358.679 289.827C358.72 290.005 358.755 290.191 358.784 290.385Z" fill="#C17174"/>
<path d="M305.504 216.396C305.21 217.027 304.242 218.778 302.957 221.054C299.119 227.854 292.44 239.305 292.44 239.305C290.727 244.601 280.751 252.898 280.751 252.898C280.751 252.898 273.386 267.934 268.255 273.627C263.124 279.319 265.711 283.593 265.711 283.593L253.26 279.243C255.384 277.625 258.295 270.146 258.295 270.146C263.442 252.683 276.986 237.8 276.986 237.8C276.986 237.8 282.093 231.796 282.875 225.586C283.459 220.924 285.221 214.492 286.067 211.573C286.365 210.522 286.501 209.431 286.47 208.338V207.865C286.424 206.22 286.01 204.607 285.261 203.143C283.874 200.54 283.517 197.508 284.261 194.652C284.509 193.637 284.917 192.667 285.471 191.782L288.514 190.892L299.293 187.747C299.293 187.747 299.958 190.096 300.857 193.455C302.941 201.295 306.326 214.641 305.504 216.396Z" fill="#5D596A"/>
<path opacity="0.1" d="M305.504 216.396C305.21 217.027 304.242 218.778 302.957 221.054C299.119 227.854 292.44 239.305 292.44 239.305C290.727 244.601 280.751 252.898 280.751 252.898C280.751 252.898 273.386 267.934 268.255 273.627C263.124 279.319 265.711 283.593 265.711 283.593L253.26 279.243C255.384 277.625 258.295 270.146 258.295 270.146C263.442 252.683 276.986 237.8 276.986 237.8C276.986 237.8 282.093 231.796 282.875 225.586C283.459 220.924 285.221 214.492 286.067 211.573C286.365 210.522 286.501 209.431 286.47 208.338V207.865C286.424 206.22 286.01 204.607 285.261 203.143C283.874 200.54 283.517 197.508 284.261 194.652C284.509 193.637 284.917 192.667 285.471 191.782L288.514 190.892L299.293 187.747C299.293 187.747 299.958 190.096 300.857 193.455C302.941 201.295 306.326 214.641 305.504 216.396Z" fill="black"/>
<path d="M339.754 281.854L328.403 284.907C328.403 284.907 328.351 282.74 325.138 277.225C321.926 271.71 314.344 251.159 313.223 242.826C312.102 234.493 304.129 223.549 304.129 223.549C304.129 223.549 303.605 222.473 302.96 221.054C302.364 219.74 301.671 218.135 301.195 216.809C300.203 214.047 295.79 210.125 295.79 210.125C287.728 205.629 286.115 200.248 286.023 196.88C285.977 195.778 286.123 194.677 286.454 193.625L288.526 190.9L292.44 185.741L305.689 171.497L313.751 173.167L314.235 193.9C320.366 201.954 324.155 220.221 325.412 227.135C325.7 228.655 326.132 230.144 326.702 231.582C328.827 237.061 329.048 246.497 329.048 246.497C329.048 246.497 333.079 260.956 332.604 266.539C332.128 272.123 339.754 281.854 339.754 281.854Z" fill="#5D596A"/>
<path d="M314.828 166.326C314.828 166.326 321.108 170.822 323.595 171.695C326.082 172.569 332.027 175.832 332.027 175.832C332.027 175.832 349.473 182.543 343.394 186.712C337.316 190.88 329.379 181.456 329.379 181.456C329.379 181.456 325.929 179.058 323.135 178.504C320.342 177.95 314.404 174.683 314.404 174.683L314.828 166.326Z" fill="#EFB4B6"/>
<path opacity="0.1" d="M308.999 115.063C307.55 116.073 306.253 117.285 305.145 118.662C304.412 118.817 303.666 118.904 302.916 118.92C299.522 119.001 297.765 115.282 295.524 113.058C296.229 110.81 295.028 111.675 295.028 111.675C295.028 111.675 317.202 109.298 308.999 115.063Z" fill="black"/>
<path d="M302.897 118.311C309.543 118.155 314.804 112.625 314.649 105.959C314.493 99.293 308.98 94.0157 302.334 94.1717C295.689 94.3276 290.428 99.8577 290.583 106.523C290.738 113.189 296.252 118.467 302.897 118.311Z" fill="#EFB4B6"/>
<path opacity="0.1" d="M301.308 129.489L295.322 124.367L287.663 126.097C289.262 124.555 290.641 122.8 291.763 120.881H291.815C294.39 120.389 297.055 120.899 299.268 122.309C300.254 122.927 301.205 123.602 302.114 124.33C301.559 125.992 301.286 127.736 301.308 129.489V129.489Z" fill="black"/>
<path opacity="0.1" d="M313.751 173.163L313.86 177.792C312.929 176.858 308.301 172.447 309.563 178.836C310.962 185.923 302.751 191.07 302.751 191.07C302.155 191.896 301.518 192.691 300.84 193.451C294.326 200.693 288.554 198.509 286.019 196.892C285.529 196.589 285.07 196.238 284.648 195.845C284.404 195.501 284.264 195.094 284.245 194.672C284.493 193.657 284.901 192.688 285.454 191.802L288.498 190.912L292.44 185.741L305.689 171.497L313.751 173.163Z" fill="black"/>
<path d="M314.005 177.336C314.005 177.336 308.148 171.125 309.551 178.213C310.954 185.301 302.739 190.447 302.739 190.447C293.17 203.677 284.636 195.206 284.636 195.206C284.636 195.206 282.419 192.78 288.071 183.667C292.4 176.689 289.409 166.257 287.768 161.749C287.068 159.802 286.475 157.818 285.991 155.806L285.587 154.189L284.652 150.396C283.565 145.979 283.224 141.41 283.645 136.88C283.921 133.851 284.551 130.866 285.523 127.985C286.144 126.142 286.841 124.557 287.591 123.611C288.665 122.32 290.166 121.46 291.819 121.185C294.403 120.69 297.077 121.206 299.292 122.628C300.88 123.609 302.365 124.747 303.726 126.024C306.883 129.044 303.19 129.445 303.19 129.445C300.796 132.598 307.411 138.34 307.411 138.34C307.411 138.34 317.161 146.159 314.823 151.791C312.486 157.423 314.69 159.226 316.097 166.625C317.504 174.024 314.005 177.336 314.005 177.336Z" fill="#9F9EFF"/>
<path opacity="0.1" d="M301.824 88.6416C299.978 88.9731 298.309 89.9798 296.467 90.3235C294.552 90.6793 292.585 90.2912 290.634 90.3235C288.024 90.3533 285.475 91.1107 283.27 92.5108C282.71 92.8212 282.238 93.2692 281.899 93.8127C281.627 94.4514 281.49 95.1397 281.496 95.8343C280.952 103.059 275.816 109.067 270.359 113.81C269.623 114.363 268.995 115.049 268.509 115.832C267.952 116.895 267.968 118.152 267.96 119.353C267.88 131.325 263.712 143.899 254.255 151.197C257.448 153.311 262.317 152.163 264.236 148.844C263.533 152.503 262.147 155.996 260.149 159.137C264.365 159.049 267.473 155.305 269.972 151.896C270.323 156.126 269.336 160.359 267.15 163.993C272.793 163.504 278.557 162.283 283.12 158.935C285.208 157.403 287.107 155.171 287.063 152.576C287.038 151.088 286.377 149.701 285.906 148.29C284.676 144.619 284.971 139.989 288.014 137.608C288.588 137.231 289.128 136.804 289.626 136.33C290.324 135.546 290.569 134.466 290.711 133.423C291.053 130.885 290.925 128.305 290.332 125.814C290.171 125.29 290.088 124.745 290.086 124.197C290.154 123.053 291.013 122.094 291.988 121.504C292.964 120.914 294.076 120.59 295.112 120.101C296.89 119.228 298.392 117.878 299.452 116.201C300.511 114.524 301.086 112.585 301.114 110.6C301.114 109.439 300.961 108.146 301.695 107.252C302.779 105.926 305.032 106.379 306.33 105.267C307.56 104.212 307.423 102.247 308.281 100.868C308.987 99.7359 310.297 99.1335 311.252 98.2238C316.049 93.7925 305.697 87.9502 301.824 88.6416Z" fill="black"/>
<path opacity="0.1" d="M300.808 134.377V134.454L293.206 144.809L288.546 151.152C288.546 151.152 287.276 152.365 285.579 154.189L284.652 150.396C283.565 145.979 283.224 141.41 283.645 136.88C285.406 133.354 287.301 130.993 289.074 129.404C290.071 128.517 291.298 127.932 292.613 127.715C293.928 127.498 295.277 127.659 296.504 128.18C297.732 128.7 298.788 129.558 299.549 130.655C300.311 131.752 300.747 133.042 300.808 134.377V134.377Z" fill="black"/>
<path d="M301.808 88.0229C299.961 88.3544 298.293 89.3612 296.451 89.7048C294.536 90.0606 292.569 89.6725 290.618 89.7048C288.008 89.7347 285.459 90.492 283.254 91.8922C282.694 92.2025 282.222 92.6505 281.883 93.194C281.611 93.8327 281.474 94.5211 281.48 95.2156C280.936 102.441 275.8 108.449 270.343 113.191C269.606 113.745 268.979 114.43 268.492 115.213C267.936 116.276 267.952 117.534 267.944 118.734C267.864 130.706 263.696 143.28 254.239 150.578C257.432 152.693 262.301 151.544 264.22 148.225C263.517 151.884 262.13 155.377 260.132 158.519C264.349 158.43 267.456 154.686 269.956 151.278C270.307 155.507 269.32 159.741 267.134 163.375C272.777 162.885 278.541 161.664 283.104 158.317C285.192 156.784 287.091 154.553 287.047 151.957C287.022 150.469 286.361 149.082 285.89 147.671C284.66 144 284.955 139.371 287.998 136.989C288.572 136.612 289.112 136.185 289.61 135.712C290.308 134.927 290.553 133.848 290.694 132.805C291.037 130.266 290.909 127.687 290.316 125.195C290.155 124.671 290.072 124.126 290.07 123.578C290.138 122.434 290.997 121.476 291.972 120.885C292.948 120.295 294.06 119.972 295.096 119.482C296.874 118.609 298.376 117.259 299.435 115.582C300.495 113.905 301.07 111.966 301.098 109.981C301.098 108.821 300.945 107.527 301.679 106.633C302.763 105.307 305.016 105.76 306.314 104.648C307.544 103.593 307.407 101.628 308.265 100.249C308.97 99.1172 310.281 98.5148 311.236 97.6051C316.033 93.1577 305.681 87.3234 301.808 88.0229Z" fill="#C17174"/>
<path d="M300.175 133.771V133.848L292.569 144.202L287.909 150.546C287.909 150.546 279.138 158.806 276.837 165.356C275.932 167.804 274.807 170.164 273.475 172.407C271.161 176.367 269.066 180.451 267.199 184.642C266.862 185.465 266.434 186.248 265.921 186.974C264.978 188.261 264.376 189.766 264.172 191.349C264.172 191.349 261.62 201.008 254.876 203.026C248.133 205.043 251.853 192.57 253.373 191.604C254.227 191.062 256.219 189.024 257.807 187.346C259.247 185.813 260.388 184.022 261.169 182.066L262.64 178.383C262.64 178.383 269.654 161.499 270.867 160.541C271.221 160.235 271.521 159.871 271.754 159.465C272.725 157.876 273.713 156.299 274.728 154.739C276.063 152.697 278.175 148.613 281.202 140.479C281.416 139.908 281.629 139.359 281.851 138.833C283.919 133.852 286.285 130.747 288.449 128.798C289.447 127.913 290.673 127.33 291.986 127.115C293.3 126.899 294.648 127.061 295.874 127.581C297.1 128.101 298.154 128.958 298.915 130.053C299.676 131.148 300.113 132.437 300.175 133.771Z" fill="#EFB4B6"/>
<path d="M300.175 133.771V133.848L292.569 144.202L281.839 138.841C283.906 133.86 286.273 130.755 288.437 128.806C289.434 127.918 290.66 127.332 291.975 127.114C293.29 126.896 294.639 127.056 295.867 127.576C297.095 128.095 298.151 128.952 298.914 130.049C299.676 131.145 300.113 132.436 300.175 133.771V133.771Z" fill="#9F9EFF"/>
<path opacity="0.1" d="M290.759 125.547C290.759 125.547 298.986 129.081 303.005 129.295Z" fill="black"/>
<path opacity="0.1" d="M358.784 290.385C359.151 292.856 348.114 296.212 348.114 296.212L336.683 295.86L336.711 297.097L327.758 296.996L327.702 294.522L327.662 294.388L348.219 294.817L358.659 289.836C358.713 290.008 358.754 290.191 358.784 290.385Z" fill="black"/>
<path opacity="0.1" d="M277.977 296.143C277.739 296.456 277.454 296.728 277.131 296.952L265.405 297.226L257.549 291.218L256.666 293.098C255.122 293.135 247.617 288.974 247.617 288.974L248.491 286.787C248.491 286.658 248.52 286.528 248.54 286.383L257.686 290.426L265.538 296.123L277.977 296.143Z" fill="black"/>
<path opacity="0.1" d="M285.99 193.48C285.99 193.48 290.4 184.088 294.963 181.193Z" fill="black"/>
<path opacity="0.1" d="M303.525 151.573C303.525 151.573 306.109 156.404 313.937 154.548Z" fill="black"/>
<path d="M376.073 255.55C376.073 255.55 348.812 272.046 399.049 297.445C399.049 297.445 410.117 276.825 397.88 260.017C395.504 256.74 392.012 254.451 388.065 253.583C384.119 252.716 379.992 253.331 376.468 255.311L376.073 255.55Z" fill="#6C63FF"/>
<path d="M376.387 255.202C376.387 255.202 399.718 273.105 399.061 297.445" stroke="#535461" stroke-miterlimit="10"/>
<path d="M400.383 297.744C400.383 297.744 391.841 268.633 401.995 247.241C406.307 238.287 407.607 228.172 405.699 218.414C404.758 213.789 403.397 209.261 401.632 204.885" stroke="#535461" stroke-width="2" stroke-miterlimit="10"/>
<path d="M407.932 191.353C407.932 194.919 401.483 205.257 401.483 205.257C401.483 205.257 395.034 194.919 395.034 191.353C395.142 189.715 395.867 188.18 397.062 187.058C398.257 185.936 399.832 185.312 401.469 185.312C403.106 185.312 404.681 185.936 405.876 187.058C407.071 188.18 407.796 189.715 407.904 191.353H407.932Z" fill="#6C63FF"/>
<path d="M418.57 211.104C416.639 214.096 405.635 219.267 405.635 219.267C405.635 219.267 405.837 207.081 407.767 204.089C408.198 203.316 408.781 202.64 409.483 202.103C410.184 201.565 410.988 201.178 411.844 200.964C412.701 200.751 413.592 200.716 414.462 200.862C415.333 201.008 416.164 201.332 416.905 201.813C417.645 202.295 418.28 202.923 418.768 203.66C419.257 204.397 419.59 205.227 419.746 206.098C419.902 206.97 419.878 207.864 419.676 208.725C419.474 209.587 419.097 210.398 418.57 211.108V211.104Z" fill="#6C63FF"/>
<path d="M418.106 244.848C414.934 246.465 402.833 245.345 402.833 245.345C402.833 245.345 409.138 234.926 412.314 233.321C413.074 232.871 413.919 232.583 414.794 232.474C415.67 232.365 416.559 232.437 417.406 232.686C418.253 232.935 419.039 233.356 419.717 233.923C420.396 234.49 420.95 235.19 421.348 235.98C421.745 236.77 421.977 237.634 422.028 238.518C422.079 239.402 421.949 240.287 421.646 241.118C421.342 241.949 420.872 242.709 420.264 243.35C419.656 243.992 418.923 244.502 418.111 244.848H418.106Z" fill="#6C63FF"/>
<path d="M412.024 270.303C409.166 272.422 397.053 273.38 397.053 273.38C397.053 273.38 401.511 262.059 404.369 259.921C405.746 259.027 407.411 258.693 409.025 258.987C410.639 259.281 412.081 260.181 413.056 261.503C414.032 262.826 414.469 264.471 414.278 266.105C414.087 267.74 413.282 269.239 412.028 270.299L412.024 270.303Z" fill="#6C63FF"/>
<path d="M392.124 219.938C394.671 222.421 406.55 224.996 406.55 224.996C406.55 224.996 403.64 213.162 401.092 210.679C399.845 209.616 398.243 209.069 396.608 209.147C394.974 209.225 393.43 209.923 392.29 211.1C391.15 212.278 390.498 213.845 390.467 215.486C390.436 217.127 391.028 218.719 392.124 219.938Z" fill="#6C63FF"/>
<path d="M385.384 249.817C388.556 251.434 400.657 250.314 400.657 250.314C400.657 250.314 394.353 239.891 391.196 238.286C390.436 237.836 389.592 237.548 388.716 237.439C387.84 237.329 386.951 237.402 386.105 237.651C385.258 237.9 384.471 238.321 383.793 238.888C383.115 239.454 382.56 240.155 382.162 240.945C381.765 241.735 381.534 242.599 381.482 243.483C381.431 244.367 381.561 245.252 381.865 246.083C382.168 246.914 382.639 247.674 383.247 248.315C383.855 248.957 384.588 249.467 385.4 249.813L385.384 249.817Z" fill="#6C63FF"/>
<path d="M382.804 279.74C385.662 281.858 397.775 282.817 397.775 282.817C397.775 282.817 393.317 271.496 390.459 269.357C389.785 268.788 389.002 268.363 388.158 268.109C387.314 267.855 386.427 267.777 385.552 267.879C384.677 267.982 383.832 268.264 383.07 268.707C382.307 269.15 381.644 269.745 381.119 270.456C380.595 271.166 380.222 271.977 380.022 272.838C379.822 273.698 379.8 274.591 379.958 275.461C380.115 276.33 380.449 277.158 380.938 277.893C381.426 278.629 382.06 279.256 382.8 279.736L382.804 279.74Z" fill="#6C63FF"/>
<path opacity="0.25" d="M407.932 191.353C407.932 194.919 401.483 205.257 401.483 205.257C401.483 205.257 395.034 194.919 395.034 191.353C395.142 189.715 395.867 188.18 397.062 187.058C398.257 185.936 399.832 185.312 401.469 185.312C403.106 185.312 404.681 185.936 405.876 187.058C407.071 188.18 407.796 189.715 407.904 191.353H407.932Z" fill="black"/>
<path opacity="0.25" d="M418.57 211.104C416.639 214.096 405.635 219.267 405.635 219.267C405.635 219.267 405.837 207.081 407.767 204.089C408.198 203.316 408.781 202.64 409.483 202.103C410.184 201.565 410.988 201.178 411.844 200.964C412.701 200.751 413.592 200.716 414.462 200.862C415.333 201.008 416.164 201.332 416.905 201.813C417.645 202.295 418.28 202.923 418.768 203.66C419.257 204.397 419.59 205.227 419.746 206.098C419.902 206.97 419.878 207.864 419.676 208.725C419.474 209.587 419.097 210.398 418.57 211.108V211.104Z" fill="black"/>
<path opacity="0.25" d="M418.106 244.848C414.934 246.465 402.833 245.345 402.833 245.345C402.833 245.345 409.138 234.926 412.314 233.321C413.074 232.871 413.919 232.583 414.794 232.474C415.67 232.365 416.559 232.437 417.406 232.686C418.253 232.935 419.039 233.356 419.717 233.923C420.396 234.49 420.95 235.19 421.348 235.98C421.745 236.77 421.977 237.634 422.028 238.518C422.079 239.402 421.949 240.287 421.646 241.118C421.342 241.949 420.872 242.709 420.264 243.35C419.656 243.992 418.923 244.502 418.111 244.848H418.106Z" fill="black"/>
<path opacity="0.25" d="M412.024 270.303C409.166 272.422 397.053 273.38 397.053 273.38C397.053 273.38 401.511 262.059 404.369 259.921C405.746 259.027 407.411 258.693 409.025 258.987C410.639 259.281 412.081 260.181 413.056 261.503C414.032 262.826 414.469 264.471 414.278 266.105C414.087 267.74 413.282 269.239 412.028 270.299L412.024 270.303Z" fill="black"/>
<path opacity="0.25" d="M392.124 219.938C394.671 222.421 406.55 224.996 406.55 224.996C406.55 224.996 403.64 213.162 401.092 210.679C399.845 209.616 398.243 209.069 396.608 209.147C394.974 209.225 393.43 209.923 392.29 211.1C391.15 212.278 390.498 213.845 390.467 215.486C390.436 217.127 391.028 218.719 392.124 219.938Z" fill="black"/>
<path opacity="0.25" d="M385.384 249.817C388.556 251.434 400.657 250.314 400.657 250.314C400.657 250.314 394.353 239.891 391.196 238.286C390.436 237.836 389.592 237.548 388.716 237.439C387.84 237.329 386.951 237.402 386.105 237.651C385.258 237.9 384.471 238.321 383.793 238.888C383.115 239.454 382.56 240.155 382.162 240.945C381.765 241.735 381.534 242.599 381.482 243.483C381.431 244.367 381.561 245.252 381.865 246.083C382.168 246.914 382.639 247.674 383.247 248.315C383.855 248.957 384.588 249.467 385.4 249.813L385.384 249.817Z" fill="black"/>
<path opacity="0.25" d="M382.804 279.74C385.662 281.858 397.775 282.817 397.775 282.817C397.775 282.817 393.317 271.496 390.459 269.357C389.785 268.788 389.002 268.363 388.158 268.109C387.314 267.855 386.427 267.777 385.552 267.879C384.677 267.982 383.832 268.264 383.07 268.707C382.307 269.15 381.644 269.745 381.119 270.456C380.595 271.166 380.222 271.977 380.022 272.838C379.822 273.698 379.8 274.591 379.958 275.461C380.115 276.33 380.449 277.158 380.938 277.893C381.426 278.629 382.06 279.256 382.8 279.736L382.804 279.74Z" fill="black"/>
<path d="M420.15 298.298C420.15 298.298 411.609 269.187 421.762 247.795C426.075 238.841 427.374 228.726 425.467 218.968C424.526 214.343 423.164 209.815 421.4 205.439" stroke="#535461" stroke-width="2" stroke-miterlimit="10"/>
<path d="M427.7 191.907C427.7 195.473 421.251 205.811 421.251 205.811C421.251 205.811 414.801 195.473 414.801 191.907C414.909 190.269 415.635 188.733 416.829 187.612C418.024 186.49 419.6 185.866 421.237 185.866C422.873 185.866 424.449 186.49 425.644 187.612C426.839 188.733 427.564 190.269 427.672 191.907H427.7Z" fill="#6C63FF"/>
<path d="M438.358 211.658C436.427 214.65 425.423 219.821 425.423 219.821C425.423 219.821 425.624 207.635 427.555 204.643C427.985 203.87 428.569 203.194 429.27 202.656C429.972 202.119 430.775 201.732 431.632 201.518C432.488 201.305 433.379 201.27 434.25 201.416C435.12 201.562 435.952 201.886 436.692 202.367C437.433 202.849 438.067 203.477 438.556 204.214C439.045 204.951 439.377 205.781 439.534 206.652C439.69 207.524 439.666 208.418 439.464 209.279C439.261 210.141 438.885 210.952 438.358 211.662V211.658Z" fill="#6C63FF"/>
<path d="M437.874 245.41C434.702 247.027 422.601 245.907 422.601 245.907C422.601 245.907 428.905 235.488 432.081 233.883C432.842 233.431 433.687 233.141 434.563 233.031C435.44 232.92 436.33 232.992 437.179 233.241C438.027 233.49 438.815 233.911 439.494 234.478C440.173 235.045 440.729 235.746 441.126 236.538C441.524 237.329 441.755 238.194 441.806 239.079C441.857 239.964 441.725 240.85 441.42 241.682C441.115 242.514 440.643 243.274 440.033 243.915C439.423 244.557 438.688 245.065 437.874 245.41V245.41Z" fill="#6C63FF"/>
<path d="M431.787 270.857C428.929 272.976 416.817 273.934 416.817 273.934C416.817 273.934 421.275 262.613 424.133 260.474C425.51 259.581 427.175 259.247 428.789 259.541C430.403 259.835 431.844 260.735 432.82 262.057C433.796 263.38 434.233 265.025 434.042 266.659C433.85 268.293 433.046 269.793 431.791 270.853L431.787 270.857Z" fill="#6C63FF"/>
<path d="M411.887 220.508C414.434 222.991 426.313 225.566 426.313 225.566C426.313 225.566 423.403 213.732 420.856 211.249C419.609 210.186 418.006 209.639 416.372 209.717C414.737 209.795 413.194 210.493 412.053 211.671C410.913 212.848 410.262 214.415 410.231 216.056C410.2 217.697 410.792 219.289 411.887 220.508V220.508Z" fill="#6C63FF"/>
<path d="M405.151 250.371C408.324 251.988 420.424 250.868 420.424 250.868C420.424 250.868 414.12 240.445 410.948 238.84C409.441 238.198 407.747 238.155 406.209 238.719C404.672 239.284 403.406 240.414 402.669 241.881C401.931 243.347 401.777 245.04 402.239 246.616C402.7 248.192 403.741 249.532 405.151 250.367V250.371Z" fill="#6C63FF"/>
<path d="M402.571 280.294C405.429 282.412 417.542 283.371 417.542 283.371C417.542 283.371 413.084 272.05 410.226 269.911C409.552 269.342 408.769 268.917 407.925 268.663C407.081 268.408 406.195 268.33 405.319 268.433C404.444 268.536 403.6 268.818 402.837 269.261C402.075 269.704 401.411 270.299 400.887 271.01C400.363 271.72 399.989 272.531 399.789 273.391C399.59 274.252 399.568 275.145 399.725 276.014C399.883 276.884 400.216 277.712 400.705 278.447C401.194 279.183 401.828 279.81 402.567 280.29L402.571 280.294Z" fill="#6C63FF"/>
<path d="M276.115 296.745H220.892V298.767H276.115V296.745Z" fill="#6C63FF"/>
<path d="M377.693 296.745H295.06V298.767H377.693V296.745Z" fill="#6C63FF"/>
<path d="M422.436 296.745H397.444V298.767H422.436V296.745Z" fill="#6C63FF"/>
<path opacity="0.1" d="M429.812 134.155C428.829 86.2156 394.054 47.7008 351.291 47.7008C330.375 47.7008 311.385 56.9191 297.297 71.9596C268.013 75.0323 243.392 96.2183 232.356 125.507C198.831 135.578 174.134 170.05 174.134 211.043C174.134 259.965 209.295 299.588 252.671 299.588C265.412 299.571 277.917 296.133 288.885 289.629C299.169 295.433 310.735 298.57 322.533 298.755C334.332 298.941 345.99 296.17 356.45 290.693C367.128 296.766 379.188 299.969 391.462 299.992C434.839 299.992 470 260.369 470 211.447C470 178.237 453.792 149.313 429.812 134.155Z" fill="#6C63FF"/>
<path d="M64.091 14.151C81.4553 14.151 95.5318 28.2703 95.5318 45.6874C95.5318 63.1045 81.4553 77.2238 64.091 77.2238C46.7267 77.2238 32.6501 63.1045 32.6501 45.6874C32.6501 28.2703 46.7267 14.151 64.091 14.151Z" fill="#6C63FF"/>
<path d="M48.9905 39.8956C48.9905 40.1317 49.2258 40.3677 49.4612 40.3677H55.1798V43.2835H49.4612C49.2258 43.2835 48.9905 43.5196 48.9905 43.7556V48.5636C48.9905 48.7997 49.2258 49.0357 49.4612 49.0357H55.1798V60.5438C55.1798 60.7799 55.3361 60.9385 55.5715 60.9385H61.0566C61.2919 60.9385 61.4482 60.7817 61.4482 60.5438V49.6701C61.4482 49.434 61.6045 49.2754 61.8399 49.2754H66.229C66.3853 49.2754 66.5416 49.3547 66.6207 49.5115L71.4787 60.7835C71.5578 60.9403 71.7141 61.0196 71.8704 61.0196H77.7471C78.0598 61.0196 78.2179 60.7042 78.1388 60.4681L73.2808 49.4322C73.2017 49.1961 73.2808 48.96 73.5161 48.8808C75.8661 48.014 77.3555 45.8857 77.3555 43.0474V35.9526C77.3555 32.3268 74.3785 29.3318 70.7727 29.3318H55.5715C55.3361 29.3318 55.1798 29.4904 55.1798 29.7264V34.6137H49.4612C49.2258 34.6137 48.9905 34.8498 48.9905 35.0858V39.8956Z" fill="white"/>
<path d="M61.4482 35.7166C61.4482 35.4805 61.6045 35.3219 61.8399 35.3219H69.206C70.2247 35.3219 71.0871 36.1887 71.0871 37.2141V41.4706C71.0871 42.496 70.2247 43.3628 69.206 43.3628H61.8399C61.6045 43.3628 61.4482 43.2042 61.4482 42.9681V35.7166Z" fill="#6C63FF"/>
<defs>
<linearGradient id="paint0_linear" x1="303.393" y1="298.358" x2="298.376" y2="84.5155" gradientUnits="userSpaceOnUse">
<stop stop-color="#808080" stop-opacity="0.25"/>
<stop offset="0.54" stop-color="#808080" stop-opacity="0.12"/>
<stop offset="1" stop-color="#808080" stop-opacity="0.1"/>
</linearGradient>
</defs>
</svg>
