<svg width="364" height="293" viewBox="0 0 364 293" fill="none" xmlns="http://www.w3.org/2000/svg">
<g clip-path="url(#clip0)">
<path d="M282.975 243.063C293.242 243.063 301.565 226.156 301.565 205.299C301.565 184.442 293.242 167.535 282.975 167.535C272.709 167.535 264.386 184.442 264.386 205.299C264.386 226.156 272.709 243.063 282.975 243.063Z" fill="#3F3D56"/>
<path d="M281.259 267.113C288.704 222.638 281.333 178.324 281.258 177.882L279.81 178.126C279.885 178.566 287.213 222.647 279.81 266.873L281.259 267.113Z" fill="#6C63FF"/>
<path d="M266.609 197.179L265.916 198.468L282.726 207.42L283.419 206.131L266.609 197.179Z" fill="#6C63FF"/>
<path d="M300.467 201.663L283.659 210.62L284.353 211.91L301.161 202.953L300.467 201.663Z" fill="#6C63FF"/>
<path d="M327.641 219.394C347.721 219.394 364 186.325 364 145.531C364 104.738 347.721 71.6688 327.641 71.6688C307.56 71.6688 291.281 104.738 291.281 145.531C291.281 186.325 307.56 219.394 327.641 219.394Z" fill="#E6E6E6"/>
<path d="M323.591 266.318C338.134 179.445 323.738 92.8875 323.59 92.0234L322.142 92.2676C322.289 93.1296 336.643 179.454 322.142 266.078L323.591 266.318Z" fill="#6C63FF"/>
<path d="M295.298 130.265L294.605 131.555L327.485 149.064L328.178 147.774L295.298 130.265Z" fill="#6C63FF"/>
<path d="M362.184 139.036L329.31 156.555L330.003 157.844L362.878 140.326L362.184 139.036Z" fill="#6C63FF"/>
<path d="M241.527 202.151C269.006 202.151 291.281 156.898 291.281 101.075C291.281 45.253 269.006 0 241.527 0C214.048 0 191.772 45.253 191.772 101.075C191.772 156.898 214.048 202.151 241.527 202.151Z" fill="#E6E6E6"/>
<path d="M235.718 266.318C255.611 147.483 235.919 29.0808 235.717 27.8988L234.269 28.143C234.47 29.3229 254.12 147.492 234.269 266.078L235.718 266.318Z" fill="#6C63FF"/>
<path d="M197.141 80.4215L196.448 81.7113L241.441 105.672L242.134 104.382L197.141 80.4215Z" fill="#6C63FF"/>
<path d="M288.925 92.4245L243.938 116.397L244.632 117.686L289.618 93.7141L288.925 92.4245Z" fill="#6C63FF"/>
<path d="M348.973 267.203H0V266.371H349.124L348.973 267.203Z" fill="#3F3D56"/>
<path d="M59.7902 257.925H51.3582C46.9475 257.925 43.0074 258.236 40.4065 259.9C39.1834 257.684 37.3846 255.835 35.1984 254.548C33.0121 253.261 30.5186 252.582 27.9787 252.583H19.5467C17.6844 252.583 15.8404 252.948 14.1199 253.658C12.3994 254.367 10.8361 255.407 9.51924 256.718C8.20241 258.029 7.15785 259.586 6.44519 261.299C5.73252 263.012 5.36572 264.848 5.36572 266.702V266.702H73.9712V266.702C73.9712 258.904 67.6221 257.925 59.7902 257.925Z" fill="#3F3D56"/>
<path d="M289.758 267.115H325.775C325.593 260.425 320.56 259.101 311.982 259.101H303.55C294.973 259.101 289.94 260.425 289.758 267.115Z" fill="#3F3D56"/>
<path d="M76.5564 167.211L81.4259 169.455L78.0453 176.727C77.7464 177.37 77.2033 177.868 76.5353 178.112C75.8674 178.357 75.1294 178.327 74.4836 178.029V178.029C73.8379 177.731 73.3373 177.191 73.0921 176.526C72.8468 175.861 72.8769 175.126 73.1758 174.483L76.5564 167.211V167.211Z" fill="#FFB9B9"/>
<path d="M124.263 65.5686H124.263C129.447 65.5686 134.419 67.619 138.085 71.2687C141.75 74.9183 143.81 79.8684 143.81 85.0298V106.781H104.716V85.0298C104.716 79.8684 106.776 74.9183 110.441 71.2687C114.107 67.619 119.079 65.5686 124.263 65.5686V65.5686Z" fill="#2F2E41"/>
<path d="M109.699 270.487L105.483 269.724L102.417 252.934L111.04 253.122L109.699 270.487Z" fill="#FFB9B9"/>
<path d="M156.266 280.215L151.943 282.204L145.044 262.361L152.433 261.135L156.266 280.215Z" fill="#FFB9B9"/>
<path d="M154.35 262.28L143.043 262.855L112.19 188.632L111.348 255.475L100.5 254.078C92.8515 212.481 86.523 175.528 96.4758 152.381L130.204 155.052L154.35 262.28Z" fill="#2F2E41"/>
<path d="M102.921 282.184L98.5335 281.948C98.3409 281.937 98.1541 281.878 97.9908 281.776C97.8275 281.674 97.6932 281.532 97.6004 281.363C97.5076 281.195 97.4595 281.006 97.4606 280.814C97.4617 280.622 97.512 280.433 97.6067 280.266L104.285 268.47L110.149 268.956L111.054 273.162C111.222 273.943 111.166 274.756 110.893 275.507C110.62 276.259 110.14 276.919 109.508 277.411L106.632 279.655C106.379 280.424 105.879 281.089 105.208 281.546C104.537 282.003 103.733 282.228 102.921 282.184V282.184Z" fill="#2F2E41"/>
<path d="M162.7 291.62L158.911 292.917C158.658 293.003 158.388 293.023 158.125 292.974C157.863 292.924 157.618 292.808 157.415 292.636L150.819 287.069C150.209 286.554 149.764 285.872 149.54 285.108C149.315 284.344 149.321 283.531 149.556 282.771L150.385 280.09L156.665 278.88L163.49 289.335C163.618 289.531 163.699 289.752 163.728 289.983C163.756 290.215 163.731 290.449 163.655 290.67C163.579 290.89 163.453 291.09 163.288 291.254C163.123 291.419 162.922 291.544 162.7 291.62V291.62Z" fill="#2F2E41"/>
<path d="M121.58 96.096C128.777 96.096 134.611 90.2873 134.611 83.1219C134.611 75.9564 128.777 70.1477 121.58 70.1477C114.383 70.1477 108.549 75.9564 108.549 83.1219C108.549 90.2873 114.383 96.096 121.58 96.096Z" fill="#FFB9B9"/>
<path d="M134.803 102.392L119.472 105.064L117.939 92.8525L129.82 91.3262L134.803 102.392Z" fill="#FFB9B9"/>
<path d="M134.803 159.25L95.326 155.434C97.2618 134.464 103.749 115.97 117.172 101.248L136.336 99.7212L134.803 159.25Z" fill="#3F3D56"/>
<path d="M82.1031 170.891L74.0544 168.22L87.9442 140.262L108.74 106.59L117.172 101.248L98.5163 142.873L82.1031 170.891Z" fill="#3F3D56"/>
<path d="M130.395 78.9245L106.632 83.5036L110.465 71.6742L124.263 68.6215L134.994 72.4374L130.395 78.9245Z" fill="#2F2E41"/>
<path d="M119.483 175.987L124.352 178.231L120.972 185.503C120.673 186.146 120.13 186.645 119.462 186.889C118.794 187.133 118.056 187.103 117.41 186.806V186.806C116.764 186.508 116.264 185.967 116.018 185.302C115.773 184.637 115.803 183.902 116.102 183.26L119.483 175.987Z" fill="#FFB9B9"/>
<path d="M124.646 180.813L117.747 176.615L121.365 152.099L136.336 101.629L139.179 102.712C141.984 103.779 144.296 105.836 145.675 108.491C147.054 111.146 147.405 114.214 146.659 117.109L136.957 154.802L124.646 180.813Z" fill="#3F3D56"/>
<path d="M100 182C120.504 182 137 165.504 137 145C137 124.496 120.504 108 100 108C79.4957 108 63 124.496 63 145C63 165.504 79.4957 182 100 182Z" fill="#6C63FF"/>
<path d="M110.175 150.858C110.175 145.463 106.938 143.613 100.463 142.842C95.8375 142.225 94.9125 140.992 94.9125 138.833C94.9125 136.675 96.4543 135.288 99.5375 135.288C102.313 135.288 103.854 136.213 104.625 138.525C104.779 138.988 105.242 139.296 105.704 139.296H108.171C108.788 139.296 109.25 138.833 109.25 138.217V138.063C108.633 134.671 105.858 132.05 102.313 131.742V128.042C102.313 127.425 101.85 126.963 101.079 126.808H98.7668C98.15 126.808 97.6875 127.271 97.5333 128.042V131.588C92.9083 132.204 89.9793 135.288 89.9793 139.142C89.9793 144.229 93.0626 146.233 99.5375 147.004C103.854 147.775 105.242 148.7 105.242 151.167C105.242 153.634 103.083 155.329 100.154 155.329C96.1458 155.329 94.7583 153.633 94.2958 151.321C94.1418 150.704 93.6793 150.396 93.2168 150.396H90.5958C89.9793 150.396 89.5168 150.858 89.5168 151.475V151.629C90.1333 155.483 92.6001 158.258 97.6875 159.029V162.729C97.6875 163.346 98.15 163.808 98.9208 163.963H101.233C101.85 163.963 102.313 163.5 102.467 162.729V159.029C107.092 158.258 110.175 155.021 110.175 150.858V150.858Z" fill="white"/>
<path d="M92.1376 167.046C80.1126 162.729 73.9458 149.317 78.4169 137.446C80.7294 130.971 85.8169 126.037 92.1376 123.725C92.7544 123.417 93.0626 122.954 93.0626 122.183V120.025C93.0626 119.408 92.7544 118.946 92.1376 118.792C91.9833 118.792 91.6751 118.792 91.5208 118.946C76.8751 123.571 68.8583 139.142 73.4833 153.787C76.2583 162.421 82.8876 169.05 91.5208 171.825C92.1376 172.133 92.7544 171.825 92.9083 171.208C93.0626 171.054 93.0626 170.9 93.0626 170.592V168.433C93.0626 167.971 92.6001 167.354 92.1376 167.046ZM108.479 118.946C107.863 118.637 107.246 118.946 107.092 119.562C106.938 119.717 106.938 119.871 106.938 120.179V122.337C106.938 122.954 107.4 123.571 107.863 123.879C119.888 128.196 126.054 141.608 121.583 153.479C119.271 159.954 114.183 164.887 107.863 167.2C107.246 167.508 106.938 167.971 106.938 168.742V170.9C106.938 171.517 107.246 171.979 107.863 172.133C108.017 172.133 108.325 172.133 108.479 171.979C123.125 167.354 131.142 151.783 126.517 137.137C123.742 128.35 116.958 121.721 108.479 118.946V118.946Z" fill="white"/>
</g>
<defs>
<clipPath id="clip0">
<rect width="364" height="293" fill="white"/>
</clipPath>
</defs>
</svg>
