<svg width="48" height="48" viewBox="0 0 48 48" fill="none" xmlns="http://www.w3.org/2000/svg">
<path d="M46.9728 -0.000488281H0.7456C0.547855 -0.000488281 0.358208 0.0776863 0.218381 0.216838C0.0785541 0.35599 0 0.54472 0 0.74151L0 38.5834C0 38.7802 0.0785541 38.9689 0.218381 39.1081C0.358208 39.2473 0.547855 39.3254 0.7456 39.3254H6.07664C6.41564 41.591 7.55981 43.6605 9.30138 45.1581C11.043 46.6558 13.2664 47.4822 15.5681 47.4874H32.1503C34.452 47.4822 36.6755 46.6558 38.417 45.1581C40.1586 43.6605 41.3028 41.591 41.6418 39.3254H46.9728C47.1706 39.3254 47.3602 39.2473 47.5 39.1081C47.6399 38.9689 47.7184 38.7802 47.7184 38.5834V0.74151C47.7184 0.54472 47.6399 0.35599 47.5 0.216838C47.3602 0.0776863 47.1706 -0.000488281 46.9728 -0.000488281V-0.000488281ZM1.4912 1.48351H46.2272V5.9355H1.4912V1.48351ZM32.1503 46.0034H15.5681C13.9457 45.9996 12.3616 45.5122 11.0201 44.6041C9.67861 43.6959 8.64129 42.4086 8.0419 40.9082C7.44252 39.4078 7.30856 37.7631 7.65731 36.1862C8.00605 34.6093 8.8215 33.1726 9.9985 32.0613L20.4294 22.2595H27.289L37.7274 32.0613C38.9048 33.173 39.7204 34.6104 40.069 36.188C40.4175 37.7656 40.2829 39.4109 39.6826 40.9116C39.0823 42.4123 38.0438 43.6996 36.7012 44.6072C35.3585 45.5148 33.7734 46.0011 32.1503 46.0034ZM27.0355 17.8075H20.683L18.8935 11.8715H28.8249L27.0355 17.8075ZM20.1312 19.2915H27.5872C27.785 19.2915 27.9746 19.3696 28.1144 19.5088C28.2543 19.6479 28.3328 19.8367 28.3328 20.0335C28.3328 20.2303 28.2543 20.419 28.1144 20.5581C27.9746 20.6973 27.785 20.7755 27.5872 20.7755H20.1312C19.9335 20.7755 19.7438 20.6973 19.604 20.5581C19.4642 20.419 19.3856 20.2303 19.3856 20.0335C19.3856 19.8367 19.4642 19.6479 19.604 19.5088C19.7438 19.3696 19.9335 19.2915 20.1312 19.2915ZM41.7536 37.8414C41.745 36.5578 41.4765 35.2891 40.9641 34.1111C40.4517 32.9331 39.7058 31.87 38.7712 30.9854L28.9517 21.7846C29.2512 21.5503 29.4857 21.2436 29.6328 20.8938C29.7799 20.544 29.8348 20.1626 29.7922 19.7858C29.7496 19.409 29.611 19.0492 29.3895 18.7407C29.1681 18.4321 28.871 18.1849 28.5267 18.0227C30.7187 10.7288 30.7635 11.0924 30.4205 10.6843C30.0775 10.2762 30.8007 10.3875 17.8944 10.3875C17.7753 10.3824 17.6567 10.4057 17.5486 10.4556C17.4405 10.5055 17.3459 10.5804 17.2729 10.6742C17.1998 10.7679 17.1505 10.8778 17.1289 10.9944C17.1073 11.1111 17.1141 11.2312 17.1488 11.3447L19.1619 18.0227C18.8175 18.1849 18.5205 18.4321 18.299 18.7407C18.0776 19.0492 17.939 19.409 17.8964 19.7858C17.8538 20.1626 17.9087 20.544 18.0558 20.8938C18.2029 21.2436 18.4374 21.5503 18.7369 21.7846L8.9472 30.9854C8.01257 31.87 7.26676 32.9331 6.75433 34.1111C6.2419 35.2891 5.97337 36.5578 5.9648 37.8414H1.4912V7.4195H46.2272V37.8414H41.7536Z" fill="#7981EE"/>
<path d="M0.7456 2.9668C0.547855 2.9668 0.358209 3.04497 0.218381 3.18412C0.0785542 3.32327 0 3.51201 0 3.7088C0 3.90559 0.0785542 4.09432 0.218381 4.23347C0.358209 4.37262 0.547855 4.45079 0.7456 4.45079C0.943346 4.45079 1.13299 4.37262 1.27282 4.23347C1.41265 4.09432 1.4912 3.90559 1.4912 3.7088C1.4912 3.51201 1.41265 3.32327 1.27282 3.18412C1.13299 3.04497 0.943346 2.9668 0.7456 2.9668Z" fill="#7981EE"/>
<path d="M4.47357 2.9668C4.27582 2.9668 4.08617 3.04497 3.94635 3.18412C3.80652 3.32327 3.72797 3.51201 3.72797 3.7088C3.72797 3.90559 3.80652 4.09432 3.94635 4.23347C4.08617 4.37262 4.27582 4.45079 4.47357 4.45079C4.67131 4.45079 4.86096 4.37262 5.00079 4.23347C5.14061 4.09432 5.21917 3.90559 5.21917 3.7088C5.21917 3.51201 5.14061 3.32327 5.00079 3.18412C4.86096 3.04497 4.67131 2.9668 4.47357 2.9668Z" fill="#7981EE"/>
<path d="M14.2016 2.9668C14.0038 2.9668 13.8142 3.04497 13.6744 3.18412C13.5345 3.32327 13.456 3.51201 13.456 3.7088C13.456 3.90559 13.5345 4.09432 13.6744 4.23347C13.8142 4.37262 14.0038 4.45079 14.2016 4.45079C14.3993 4.45079 14.589 4.37262 14.7288 4.23347C14.8686 4.09432 14.9472 3.90559 14.9472 3.7088C14.9472 3.51201 14.8686 3.32327 14.7288 3.18412C14.589 3.04497 14.3993 2.9668 14.2016 2.9668Z" fill="#7981EE"/>
<path d="M23.4865 33.3889H25.3505C25.5482 33.3889 25.7379 33.3107 25.8777 33.1716C26.0175 33.0324 26.0961 32.8437 26.0961 32.6469C26.0961 32.4501 26.0175 32.2614 25.8777 32.1222C25.7379 31.9831 25.5482 31.9049 25.3505 31.9049H24.6049V31.1629C24.6049 30.9661 24.5263 30.7774 24.3865 30.6382C24.2467 30.4991 24.057 30.4209 23.8593 30.4209C23.6615 30.4209 23.4719 30.4991 23.332 30.6382C23.1922 30.7774 23.1137 30.9661 23.1137 31.1629V31.9049C22.8689 31.9293 22.6313 32.0014 22.4145 32.1171C22.1977 32.2328 22.006 32.3899 21.8502 32.5794C21.5356 32.962 21.3866 33.4534 21.4361 33.9454C21.4855 34.4374 21.7293 34.8896 22.1138 35.2027C22.4983 35.5158 22.9921 35.6641 23.4865 35.6149H24.2321C24.3309 35.6149 24.4258 35.654 24.4957 35.7235C24.5656 35.7931 24.6049 35.8875 24.6049 35.9859C24.6049 36.0843 24.5656 36.1786 24.4957 36.2482C24.4258 36.3178 24.3309 36.3569 24.2321 36.3569H22.3681C22.1703 36.3569 21.9807 36.4351 21.8408 36.5742C21.701 36.7134 21.6225 36.9021 21.6225 37.0989C21.6225 37.2957 21.701 37.4844 21.8408 37.6236C21.9807 37.7627 22.1703 37.8409 22.3681 37.8409H23.1137V38.5829C23.1137 38.7797 23.1922 38.9684 23.332 39.1076C23.4719 39.2467 23.6615 39.3249 23.8593 39.3249C24.057 39.3249 24.2467 39.2467 24.3865 39.1076C24.5263 38.9684 24.6049 38.7797 24.6049 38.5829V37.8409C25.0992 37.7917 25.5537 37.5491 25.8683 37.1664C26.1829 36.7837 26.3319 36.2924 26.2825 35.8004C26.233 35.3084 25.9892 34.8561 25.6047 34.543C25.2202 34.2299 24.7264 34.0817 24.2321 34.1309H23.4865C23.3876 34.1309 23.2928 34.0918 23.2229 34.0222C23.1529 33.9527 23.1137 33.8583 23.1137 33.7599C23.1137 33.6615 23.1529 33.5671 23.2229 33.4976C23.2928 33.428 23.3876 33.3889 23.4865 33.3889Z" fill="#7981EE"/>
<path d="M32.4261 32.2683C32.538 31.8751 32.4858 31.927 30.8604 29.1371C30.8117 29.0501 30.7459 28.9737 30.6669 28.9125C30.588 28.8513 30.4974 28.8066 30.4007 28.781C30.304 28.7554 30.2031 28.7494 30.104 28.7634C30.0049 28.7774 29.9097 28.8111 29.824 28.8625L28.8696 29.4116C28.078 28.6749 27.1301 28.1246 26.096 27.8015V26.7107C26.096 26.514 26.0174 26.3252 25.8776 26.1861C25.7378 26.0469 25.5481 25.9688 25.3504 25.9688H22.368C22.1702 25.9688 21.9806 26.0469 21.8408 26.1861C21.7009 26.3252 21.6224 26.514 21.6224 26.7107V27.8015C20.581 28.1232 19.6256 28.6734 18.8264 29.4116L17.8944 28.8625C17.7232 28.7658 17.5205 28.7404 17.3305 28.7918C17.1405 28.8432 16.9787 28.9674 16.8804 29.1371C14.8747 32.5874 14.733 32.1867 16.6045 33.2626C16.3695 34.3233 16.3695 35.4222 16.6045 36.4829C14.748 37.5513 14.8747 37.1507 16.8804 40.6084C16.9787 40.7781 17.1405 40.9022 17.3305 40.9536C17.5205 41.0051 17.7232 40.9796 17.8944 40.8829L18.8488 40.3338C19.6404 41.0706 20.5883 41.6209 21.6224 41.944V43.0347C21.6224 43.2315 21.7009 43.4202 21.8408 43.5594C21.9806 43.6985 22.1702 43.7767 22.368 43.7767H25.3504C25.5481 43.7767 25.7378 43.6985 25.8776 43.5594C26.0174 43.4202 26.096 43.2315 26.096 43.0347V41.944C27.1373 41.6223 28.0928 41.072 28.892 40.3338C30.756 41.4023 30.3832 41.5062 32.3516 38.0411C32.4003 37.9555 32.4314 37.8611 32.4431 37.7635C32.4549 37.6658 32.447 37.5668 32.4199 37.4722C32.3929 37.3777 32.3472 37.2894 32.2855 37.2125C32.2239 37.1356 32.1475 37.0717 32.0608 37.0245C30.6143 36.1935 31.3152 36.9577 31.3152 34.8727C31.3152 32.7877 30.6292 33.552 32.0608 32.7209C32.1491 32.6738 32.227 32.6094 32.2898 32.5317C32.3526 32.4539 32.3989 32.3643 32.4261 32.2683ZM29.563 33.1216C29.9133 34.263 29.9133 35.4825 29.563 36.6238C29.3468 37.2991 29.9582 37.5217 30.6889 37.9372L29.9433 39.2283L29.1455 38.7682C28.124 38.182 28.042 40.0074 25.1864 40.6529C25.0182 40.6906 24.8683 40.7851 24.7623 40.9204C24.6562 41.0557 24.6006 41.2234 24.6048 41.3949V42.2927H23.1136V41.3801C23.1136 40.2077 21.4882 41.0462 19.49 38.9018C18.9979 38.375 18.4685 38.8276 17.7751 39.2283L17.0295 37.9372L17.8198 37.4846C18.5654 37.0394 17.8944 36.52 17.8944 34.8727C17.8944 33.2255 18.6027 32.7061 17.8198 32.2609L17.0295 31.8083L17.7751 30.5172C18.5207 30.9327 19.0053 31.3631 19.49 30.8437C21.4584 28.7364 23.1136 29.5155 23.1136 28.3654V27.4527H24.6048C24.6048 28.2838 24.4855 28.9367 25.1864 29.0926C28.0047 29.7307 28.1315 31.556 29.1455 30.9772L29.9433 30.5172L30.6889 31.8083C29.9731 32.2164 29.3468 32.439 29.563 33.1216Z" fill="#7981EE"/>
</svg>
