<svg width="44" height="44" viewBox="0 0 44 44" fill="none" xmlns="http://www.w3.org/2000/svg">
<path d="M22 -0.000488281C17.6488 -0.000488281 13.3953 1.28979 9.77746 3.70718C6.15958 6.12457 3.33979 9.5605 1.67466 13.5805C0.00953246 17.6004 -0.426141 22.0239 0.422734 26.2915C1.27161 30.5591 3.3669 34.4791 6.44366 37.5558C9.52041 40.6326 13.4404 42.7279 17.708 43.5768C21.9756 44.4256 26.3991 43.99 30.419 42.3248C34.439 40.6597 37.8749 37.8399 40.2923 34.222C42.7097 30.6042 44 26.3507 44 21.9995C43.9934 16.1668 41.6734 10.5748 37.5491 6.45045C33.4247 2.32608 27.8327 0.00611094 22 -0.000488281ZM22 41.0662C18.229 41.0662 14.5426 39.9479 11.4071 37.8529C8.27164 35.7578 5.82782 32.78 4.38471 29.296C2.94159 25.812 2.56401 21.9784 3.2997 18.2798C4.03539 14.5812 5.85132 11.1839 8.51784 8.51734C11.1844 5.85082 14.5817 4.0349 18.2803 3.2992C21.9789 2.56351 25.8125 2.9411 29.2965 4.38421C32.7805 5.82732 35.7583 8.27114 37.8534 11.4066C39.9484 14.5421 41.0667 18.2285 41.0667 21.9995C41.0608 27.0545 39.0502 31.9008 35.4757 35.4752C31.9013 39.0497 27.055 41.0603 22 41.0662Z" fill="#7981EE"/>
<path d="M30.8 17.5996C30.7951 16.3027 30.3607 15.044 29.5646 14.0203C28.7685 12.9965 27.6557 12.2654 26.4 11.9412V10.2662C26.4 9.87724 26.2455 9.50419 25.9704 9.22914C25.6954 8.95408 25.3223 8.79956 24.9333 8.79956C24.5443 8.79956 24.1713 8.95408 23.8962 9.22914C23.6212 9.50419 23.4667 9.87724 23.4667 10.2662V11.7329H20.5333V10.2662C20.5333 9.87724 20.3788 9.50419 20.1038 9.22914C19.8287 8.95408 19.4557 8.79956 19.0667 8.79956C18.6777 8.79956 18.3046 8.95408 18.0296 9.22914C17.7545 9.50419 17.6 9.87724 17.6 10.2662V11.7329H13.2C12.811 11.7329 12.438 11.8874 12.1629 12.1625C11.8879 12.4375 11.7333 12.8106 11.7333 13.1996C11.7333 13.5885 11.8879 13.9616 12.1629 14.2366C12.438 14.5117 12.811 14.6662 13.2 14.6662H14.6667V29.3329H13.2C12.811 29.3329 12.438 29.4874 12.1629 29.7625C11.8879 30.0375 11.7333 30.4106 11.7333 30.7996C11.7333 31.1885 11.8879 31.5616 12.1629 31.8366C12.438 32.1117 12.811 32.2662 13.2 32.2662H17.6V33.7329C17.6 34.1219 17.7545 34.4949 18.0296 34.77C18.3046 35.045 18.6777 35.1996 19.0667 35.1996C19.4557 35.1996 19.8287 35.045 20.1038 34.77C20.3788 34.4949 20.5333 34.1219 20.5333 33.7329V32.2662H23.4667V33.7329C23.4667 34.1219 23.6212 34.4949 23.8962 34.77C24.1713 35.045 24.5443 35.1996 24.9333 35.1996C25.3223 35.1996 25.6954 35.045 25.9704 34.77C26.2455 34.4949 26.4 34.1219 26.4 33.7329V32.058C27.4343 31.7978 28.3773 31.2585 29.1259 30.4988C29.8745 29.7391 30.4 28.7884 30.6449 27.7503C30.8898 26.7123 30.8447 25.6269 30.5146 24.6127C30.1845 23.5985 29.5821 22.6946 28.7731 21.9996C29.4066 21.4543 29.9155 20.7792 30.2652 20.0201C30.6149 19.2609 30.7973 18.4354 30.8 17.5996ZM27.8667 26.3996C27.8667 27.1775 27.5576 27.9236 27.0075 28.4737C26.4574 29.0238 25.7113 29.3329 24.9333 29.3329H17.6V23.4662H24.9333C25.7113 23.4662 26.4574 23.7753 27.0075 24.3254C27.5576 24.8755 27.8667 25.6216 27.8667 26.3996ZM17.6 20.5329V14.6662H24.9333C25.7113 14.6662 26.4574 14.9753 27.0075 15.5254C27.5576 16.0755 27.8667 16.8216 27.8667 17.5996C27.8667 18.3775 27.5576 19.1236 27.0075 19.6737C26.4574 20.2238 25.7113 20.5329 24.9333 20.5329H17.6Z" fill="#7981EE"/>
</svg>
