<svg width="31" height="38" viewBox="0 0 31 38" fill="none" xmlns="http://www.w3.org/2000/svg">
<path d="M15.0337 11.697C13.7254 11.697 12.4465 12.085 11.3587 12.8118C10.2709 13.5387 9.42307 14.5718 8.92241 15.7805C8.42175 16.9892 8.29075 18.3192 8.54599 19.6024C8.80122 20.8855 9.43123 22.0642 10.3563 22.9893C11.2814 23.9144 12.4601 24.5444 13.7432 24.7996C15.0264 25.0548 16.3564 24.9238 17.5651 24.4232C18.7738 23.9225 19.8069 23.0747 20.5338 21.9869C21.2606 20.8991 21.6486 19.6202 21.6486 18.3119C21.6486 16.5575 20.9517 14.875 19.7111 13.6345C18.4706 12.3939 16.7881 11.697 15.0337 11.697ZM18.8583 16.1169C13.5905 21.3908 14.0114 21.0179 13.831 21.0179C13.6506 21.0179 13.807 21.1202 11.2091 18.5223C11.1517 18.4649 11.1195 18.3871 11.1195 18.3059C11.1195 18.2247 11.1517 18.1468 11.2091 18.0894C11.2666 18.032 11.3444 17.9997 11.4256 17.9997C11.5068 17.9997 11.5847 18.032 11.6421 18.0894L13.831 20.2843L18.4253 15.69C18.4828 15.6326 18.5606 15.6003 18.6418 15.6003C18.723 15.6003 18.8009 15.6326 18.8583 15.69C18.9157 15.7474 18.948 15.8253 18.948 15.9065C18.948 15.9877 18.9157 16.0655 18.8583 16.123V16.1169Z" fill="#7981EE"/>
<path d="M15.0337 3.09155C11.22 5.15042 7.02412 6.40408 2.70605 6.77482V17.2984C2.70605 25.3475 7.76942 32.6148 15.0337 35.0082C22.292 32.6028 27.3614 25.3475 27.3614 17.2984V6.77482C23.0433 6.40408 18.8474 5.15042 15.0337 3.09155ZM15.0337 25.5279C13.6065 25.5279 12.2113 25.1047 11.0246 24.3118C9.83792 23.5188 8.913 22.3918 8.36683 21.0732C7.82065 19.7546 7.67775 18.3037 7.95618 16.9039C8.23462 15.5041 8.9219 14.2183 9.9311 13.2091C10.9403 12.1999 12.2261 11.5126 13.6259 11.2342C15.0257 10.9557 16.4767 11.0986 17.7952 11.6448C19.1138 12.191 20.2408 13.1159 21.0338 14.3026C21.8267 15.4893 22.2499 16.8845 22.2499 18.3117C22.2499 20.2256 21.4896 22.061 20.1363 23.4143C18.783 24.7676 16.9476 25.5279 15.0337 25.5279Z" fill="#7981EE"/>
<path d="M15.0879 0.00368148C14.8443 -0.143649 9.24876 4.18005 0 4.18005V17.3105C0 26.9321 6.16985 35.3721 15.0337 37.8556C23.8976 35.3721 30.0675 26.9441 30.0675 17.3105V4.18005C24.7879 4.17262 19.6097 2.72894 15.0879 0.00368148ZM27.9628 17.3105C27.9628 25.6573 22.6829 33.1952 15.1209 35.6517C15.0606 35.6728 14.9949 35.6728 14.9345 35.6517C7.37856 33.1952 2.10472 25.6573 2.10472 17.3105V6.48623C2.10459 6.40952 2.13377 6.33565 2.18632 6.27975C2.23886 6.22386 2.31078 6.19016 2.38736 6.18556C6.76962 5.84664 11.0299 4.58094 14.8864 2.47222C14.9327 2.44748 14.9843 2.43454 15.0367 2.43454C15.0892 2.43454 15.1408 2.44748 15.1871 2.47222C19.0454 4.58176 23.3078 5.84748 27.6921 6.18556C27.7687 6.19016 27.8406 6.22386 27.8932 6.27975C27.9457 6.33565 27.9749 6.40952 27.9748 6.48623L27.9628 17.3105Z" fill="#7981EE"/>
</svg>
