<svg width="40" height="39" viewBox="0 0 40 39" fill="none" xmlns="http://www.w3.org/2000/svg">
<path d="M20.0789 15.9529C18.1567 15.9529 16.564 17.4942 16.564 19.414C16.564 21.3338 18.1293 22.8752 20.0789 22.8752C22.0286 22.8752 23.5937 21.3068 23.5937 19.414C23.5937 17.5212 22.001 15.9529 20.0789 15.9529ZM20.0789 21.6313C18.8432 21.6313 17.8272 20.6308 17.8272 19.414C17.8272 18.1973 18.8432 17.1967 20.0789 17.1967C21.3146 17.1967 22.3306 18.1973 22.3306 19.414C22.3306 20.6308 21.3146 21.6313 20.0789 21.6313Z" fill="white"/>
<path d="M23.731 16.6557C24.1709 16.6557 24.5273 16.3047 24.5273 15.8716C24.5273 15.4385 24.1709 15.0874 23.731 15.0874C23.2912 15.0874 22.9346 15.4385 22.9346 15.8716C22.9346 16.3047 23.2912 16.6557 23.731 16.6557Z" fill="white"/>
<path d="M25.7911 13.844C25.0771 13.1139 24.0611 12.7354 22.9078 12.7354H17.2511C14.862 12.7354 13.2694 14.3037 13.2694 16.6562V22.1993C13.2694 23.3621 13.6538 24.3625 14.4227 25.0927C15.1641 25.7957 16.1527 26.1472 17.2785 26.1472H22.8803C24.0611 26.1472 25.0497 25.7686 25.7636 25.0927C26.505 24.3895 26.8895 23.3891 26.8895 22.2263V16.6562C26.8895 15.5205 26.505 14.5471 25.7911 13.844ZM25.6812 22.2263C25.6812 23.0646 25.3792 23.7406 24.8849 24.2003C24.3906 24.66 23.7041 24.9033 22.8803 24.9033H17.2785C16.4547 24.9033 15.7682 24.66 15.2739 24.2003C14.7796 23.7136 14.5326 23.0375 14.5326 22.1993V16.6562C14.5326 15.845 14.7796 15.169 15.2739 14.6822C15.7408 14.2225 16.4547 13.9792 17.2785 13.9792H22.9352C23.7591 13.9792 24.4456 14.2225 24.9398 14.7093C25.4066 15.196 25.6812 15.8721 25.6812 16.6562V22.2263Z" fill="white"/>
<path d="M38.8022 19.4412C38.8022 29.6302 30.4253 37.8824 20.1016 37.8824C9.77798 37.8824 1.40112 29.6302 1.40112 19.4412C1.40112 9.25212 9.77798 1 20.1016 1C30.4253 1 38.8022 9.25212 38.8022 19.4412Z" stroke="white"/>
</svg>
