<svg width="40" height="39" viewBox="0 0 40 39" fill="none" xmlns="http://www.w3.org/2000/svg">
<path d="M38.6045 19.4412C38.6045 29.6302 30.2276 37.8824 19.9039 37.8824C9.58023 37.8824 1.20337 29.6302 1.20337 19.4412C1.20337 9.25212 9.58023 1 19.9039 1C30.2276 1 38.6045 9.25212 38.6045 19.4412Z" stroke="white"/>
<path d="M27.1011 20.6978V25.7226H24.1223V21.0344C24.1223 19.8566 23.6915 19.0529 22.6133 19.0529C21.7902 19.0529 21.3004 19.5946 21.085 20.1186C21.0063 20.3059 20.9861 20.5665 20.9861 20.8288V25.7226H18.0063C18.0063 25.7226 18.0464 17.7822 18.0063 16.9596H20.9858V18.2017C20.9798 18.211 20.9719 18.221 20.9662 18.2301H20.9858V18.2017C21.3816 17.6054 22.0886 16.7538 23.671 16.7538C25.6315 16.7537 27.1011 18.0062 27.1011 20.6978ZM14.8894 12.7354C13.87 12.7354 13.2032 13.3892 13.2032 14.2491C13.2032 15.0903 13.8508 15.764 14.8499 15.764H14.8698C15.9088 15.764 16.5551 15.0904 16.5551 14.2491C16.5355 13.3892 15.9088 12.7354 14.8894 12.7354ZM13.3803 25.7226H16.3589V16.9596H13.3803V25.7226Z" fill="white"/>
</svg>
