<svg width="14" height="13" viewBox="0 0 14 13" fill="none" xmlns="http://www.w3.org/2000/svg">
<path d="M13.8979 7.9624V12.9872H10.9191V8.299C10.9191 7.1212 10.4883 6.3175 9.4101 6.3175C8.587 6.3175 8.0972 6.8592 7.8818 7.3832C7.8031 7.5705 7.7829 7.8311 7.7829 8.0934V12.9872H4.8031C4.8031 12.9872 4.8432 5.0468 4.8031 4.2242H7.7826V5.4663C7.7766 5.4756 7.7687 5.4856 7.763 5.4947H7.7826V5.4663C8.1784 4.87 8.8854 4.0184 10.4678 4.0184C12.4283 4.0183 13.8979 5.2708 13.8979 7.9624ZM1.6862 0C0.6668 0 0 0.6538 0 1.5137C0 2.3549 0.6476 3.0286 1.6467 3.0286H1.6666C2.7056 3.0286 3.3519 2.355 3.3519 1.5137C3.3323 0.6538 2.7056 0 1.6862 0ZM0.1771 12.9872H3.1557V4.2242H0.1771V12.9872Z" fill="#020755"/>
</svg>
