<svg width="39" height="39" viewBox="0 0 39 39" fill="none" xmlns="http://www.w3.org/2000/svg">
<path d="M26.5986 16.0793C26.6091 16.2238 26.6091 16.3734 26.6091 16.518C26.6091 20.992 23.1516 26.1472 16.834 26.1472C14.8853 26.1472 13.078 25.5898 11.5588 24.6301C11.8365 24.661 12.1037 24.6713 12.3866 24.6713C13.9948 24.6713 15.4721 24.1346 16.6507 23.2264C15.142 23.1954 13.8742 22.2201 13.4395 20.8785C13.9685 20.9558 14.4453 20.9558 14.9901 20.8165C13.4186 20.5017 12.2398 19.1394 12.2398 17.4932V17.452C12.6956 17.7048 13.2299 17.8596 13.7905 17.8803C12.8333 17.2531 12.2589 16.1951 12.2609 15.0627C12.2609 14.4331 12.4284 13.8552 12.727 13.3547C14.419 15.4085 16.9597 16.7502 19.8096 16.8946C19.3224 14.5983 21.0667 12.7354 23.1621 12.7354C24.1522 12.7354 25.0428 13.1431 25.6714 13.8036C26.4467 13.6591 27.1906 13.3752 27.8506 12.9882C27.5939 13.7726 27.0544 14.4331 26.3419 14.8511C27.0334 14.7789 27.704 14.588 28.322 14.3248C27.8558 15.0007 27.2691 15.5994 26.5986 16.0793Z" fill="white"/>
<path d="M38.2034 19.4412C38.2034 29.6302 29.8265 37.8824 19.5028 37.8824C9.17911 37.8824 0.802246 29.6302 0.802246 19.4412C0.802246 9.25212 9.17911 1 19.5028 1C29.8265 1 38.2034 9.25212 38.2034 19.4412Z" stroke="white"/>
</svg>
