<svg width="44" height="44" viewBox="0 0 44 44" fill="none" xmlns="http://www.w3.org/2000/svg">
<path d="M31.0681 43.6562H3.78125C2.86957 43.6562 1.99523 43.2941 1.35057 42.6494C0.705914 42.0048 0.34375 41.1304 0.34375 40.2188V37.8125H29.2188V40.2188C29.2192 40.8999 29.3884 41.5703 29.7111 42.1701C30.0338 42.7699 30.5 43.2805 31.0681 43.6562Z" fill="#F7F7F6"/>
<path d="M12.3681 22.0068H11.0068V23.3681H12.3681V22.0068Z" fill="#F7F7F6"/>
<path d="M11 27.5V28.875H12.375V27.5H11ZM11 27.5V28.875H12.375V27.5H11ZM11 27.5V28.875H12.375V27.5H11ZM11 27.5V28.875H12.375V27.5H11ZM11 27.5V28.875H12.375V27.5H11ZM11 27.5V28.875H12.375V27.5H11ZM11 27.5V28.875H12.375V27.5H11ZM11 33V34.375H12.375V33H11ZM11 27.5V28.875H12.375V27.5H11ZM11 33V34.375H12.375V33H11ZM10.6562 0.34375C9.74457 0.34375 8.87023 0.705914 8.22557 1.35057C7.58091 1.99523 7.21875 2.86957 7.21875 3.78125V37.125H29.5625C29.6537 37.125 29.7411 37.1612 29.8056 37.2257C29.87 37.2902 29.9062 37.3776 29.9062 37.4688V40.2188C29.9052 40.6902 30.0011 41.1569 30.1881 41.5897C30.3751 42.0225 30.6491 42.4122 30.9931 42.7346C31.3371 43.057 31.7437 43.3052 32.1878 43.4638C32.6318 43.6223 33.1036 43.6878 33.5741 43.6563C34.459 43.5774 35.2813 43.1669 35.8761 42.507C36.471 41.8471 36.7943 40.9867 36.7812 40.0984V3.4375C36.7814 2.83057 36.9277 2.23259 37.2077 1.69411C37.4877 1.15563 37.8932 0.692461 38.39 0.34375H10.6562ZM13.0625 34.7188C13.0625 34.8099 13.0263 34.8974 12.9618 34.9618C12.8974 35.0263 12.8099 35.0625 12.7188 35.0625H10.6562C10.5651 35.0625 10.4776 35.0263 10.4132 34.9618C10.3487 34.8974 10.3125 34.8099 10.3125 34.7188V32.6563C10.3125 32.5651 10.3487 32.4777 10.4132 32.4132C10.4776 32.3487 10.5651 32.3125 10.6562 32.3125H12.7188C12.8099 32.3125 12.8974 32.3487 12.9618 32.4132C13.0263 32.4777 13.0625 32.5651 13.0625 32.6563V34.7188ZM13.0625 29.2188C13.0625 29.3099 13.0263 29.3974 12.9618 29.4618C12.8974 29.5263 12.8099 29.5625 12.7188 29.5625H10.6562C10.5651 29.5625 10.4776 29.5263 10.4132 29.4618C10.3487 29.3974 10.3125 29.3099 10.3125 29.2188V27.1563C10.3125 27.0651 10.3487 26.9777 10.4132 26.9132C10.4776 26.8487 10.5651 26.8125 10.6562 26.8125H12.7188C12.8099 26.8125 12.8974 26.8487 12.9618 26.9132C13.0263 26.9777 13.0625 27.0651 13.0625 27.1563V29.2188ZM13.0625 23.7188C13.0625 23.8099 13.0263 23.8974 12.9618 23.9618C12.8974 24.0263 12.8099 24.0625 12.7188 24.0625H10.6562C10.5651 24.0625 10.4776 24.0263 10.4132 23.9618C10.3487 23.8974 10.3125 23.8099 10.3125 23.7188V21.6563C10.3125 21.5651 10.3487 21.4777 10.4132 21.4132C10.4776 21.3487 10.5651 21.3125 10.6562 21.3125H12.7188C12.8099 21.3125 12.8974 21.3487 12.9618 21.4132C13.0263 21.4777 13.0625 21.5651 13.0625 21.6563V23.7188ZM22 2.75C23.6317 2.75 25.2267 3.23385 26.5835 4.14038C27.9402 5.0469 28.9976 6.33537 29.622 7.84286C30.2464 9.35035 30.4098 11.0092 30.0915 12.6095C29.7732 14.2098 28.9874 15.6798 27.8336 16.8336C26.6798 17.9874 25.2098 18.7732 23.6095 19.0915C22.0092 19.4098 20.3504 19.2464 18.8429 18.622C17.3354 17.9976 16.0469 16.9402 15.1404 15.5835C14.2339 14.2268 13.75 12.6317 13.75 11C13.75 8.81196 14.6192 6.71355 16.1664 5.16637C17.7135 3.61919 19.812 2.75 22 2.75ZM27.5 35.0625H15.125C15.0338 35.0625 14.9464 35.0263 14.8819 34.9618C14.8175 34.8974 14.7812 34.8099 14.7812 34.7188C14.7812 34.6276 14.8175 34.5402 14.8819 34.4757C14.9464 34.4112 15.0338 34.375 15.125 34.375H27.5C27.5912 34.375 27.6786 34.4112 27.7431 34.4757C27.8075 34.5402 27.8438 34.6276 27.8438 34.7188C27.8438 34.8099 27.8075 34.8974 27.7431 34.9618C27.6786 35.0263 27.5912 35.0625 27.5 35.0625ZM33.3438 33H15.125C15.0338 33 14.9464 32.9638 14.8819 32.8993C14.8175 32.8349 14.7812 32.7474 14.7812 32.6563C14.7812 32.5651 14.8175 32.4777 14.8819 32.4132C14.9464 32.3487 15.0338 32.3125 15.125 32.3125H33.3438C33.4349 32.3125 33.5224 32.3487 33.5868 32.4132C33.6513 32.4777 33.6875 32.5651 33.6875 32.6563C33.6875 32.7474 33.6513 32.8349 33.5868 32.8993C33.5224 32.9638 33.4349 33 33.3438 33ZM15.125 28.875H27.5C27.5912 28.875 27.6786 28.9112 27.7431 28.9757C27.8075 29.0402 27.8438 29.1276 27.8438 29.2188C27.8438 29.3099 27.8075 29.3974 27.7431 29.4618C27.6786 29.5263 27.5912 29.5625 27.5 29.5625H15.125C15.0338 29.5625 14.9464 29.5263 14.8819 29.4618C14.8175 29.3974 14.7812 29.3099 14.7812 29.2188C14.7812 29.1276 14.8175 29.0402 14.8819 28.9757C14.9464 28.9112 15.0338 28.875 15.125 28.875ZM33.3438 27.5H15.125C15.0338 27.5 14.9464 27.4638 14.8819 27.3993C14.8175 27.3349 14.7812 27.2474 14.7812 27.1563C14.7812 27.0651 14.8175 26.9777 14.8819 26.9132C14.9464 26.8487 15.0338 26.8125 15.125 26.8125H33.3438C33.4349 26.8125 33.5224 26.8487 33.5868 26.9132C33.6513 26.9777 33.6875 27.0651 33.6875 27.1563C33.6875 27.2474 33.6513 27.3349 33.5868 27.3993C33.5224 27.4638 33.4349 27.5 33.3438 27.5ZM15.125 23.375H27.5C27.5912 23.375 27.6786 23.4112 27.7431 23.4757C27.8075 23.5402 27.8438 23.6276 27.8438 23.7188C27.8438 23.8099 27.8075 23.8974 27.7431 23.9618C27.6786 24.0263 27.5912 24.0625 27.5 24.0625H15.125C15.0338 24.0625 14.9464 24.0263 14.8819 23.9618C14.8175 23.8974 14.7812 23.8099 14.7812 23.7188C14.7812 23.6276 14.8175 23.5402 14.8819 23.4757C14.9464 23.4112 15.0338 23.375 15.125 23.375ZM33.3438 22H15.125C15.0338 22 14.9464 21.9638 14.8819 21.8993C14.8175 21.8349 14.7812 21.7474 14.7812 21.6563C14.7812 21.5651 14.8175 21.4777 14.8819 21.4132C14.9464 21.3487 15.0338 21.3125 15.125 21.3125H33.3438C33.4349 21.3125 33.5224 21.3487 33.5868 21.4132C33.6513 21.4777 33.6875 21.5651 33.6875 21.6563C33.6875 21.7474 33.6513 21.8349 33.5868 21.8993C33.5224 21.9638 33.4349 22 33.3438 22ZM22 18.5625C23.4957 18.5625 24.9579 18.119 26.2015 17.288C27.4451 16.457 28.4144 15.2759 28.9868 13.894C29.5592 12.5122 29.709 10.9916 29.4172 9.52463C29.1254 8.05765 28.4051 6.71014 27.3475 5.65251C26.2899 4.59487 24.9424 3.87461 23.4754 3.58281C22.0084 3.29101 20.4878 3.44077 19.106 4.01316C17.7241 4.58555 16.543 5.55485 15.712 6.7985C14.881 8.04215 14.4375 9.50428 14.4375 11C14.4375 13.0057 15.2343 14.9293 16.6525 16.3475C18.0707 17.7657 19.9943 18.5625 22 18.5625ZM18.1225 10.7525L20.625 13.255L25.8775 8.0025C25.91 7.97 25.9486 7.94422 25.9911 7.92663C26.0335 7.90904 26.079 7.89998 26.125 7.89998C26.171 7.89998 26.2165 7.90904 26.2589 7.92663C26.3014 7.94422 26.34 7.97 26.3725 8.0025C26.405 8.035 26.4308 8.07359 26.4484 8.11606C26.466 8.15852 26.475 8.20404 26.475 8.25C26.475 8.29597 26.466 8.34148 26.4484 8.38395C26.4308 8.42641 26.405 8.465 26.3725 8.4975L20.8725 13.9975C20.8404 14.0308 20.802 14.0572 20.7595 14.0753C20.7169 14.0934 20.6712 14.1027 20.625 14.1027C20.5788 14.1027 20.5331 14.0934 20.4905 14.0753C20.448 14.0572 20.4096 14.0308 20.3775 13.9975L17.6275 11.2475C17.5619 11.1819 17.525 11.0928 17.525 11C17.525 10.9072 17.5619 10.8181 17.6275 10.7525C17.6931 10.6869 17.7822 10.65 17.875 10.65C17.9678 10.65 18.0569 10.6869 18.1225 10.7525ZM11 34.375H12.375V33H11V34.375ZM11 28.875H12.375V27.5H11V28.875ZM11 33V34.375H12.375V33H11ZM11 27.5V28.875H12.375V27.5H11ZM11 33V34.375H12.375V33H11ZM11 27.5V28.875H12.375V27.5H11ZM11 27.5V28.875H12.375V27.5H11ZM11 27.5V28.875H12.375V27.5H11ZM11 27.5V28.875H12.375V27.5H11ZM11 27.5V28.875H12.375V27.5H11Z" fill="#F7F7F6"/>
<path d="M40.5625 0.34375C41.383 0.34375 42.1699 0.669698 42.7501 1.24989C43.3303 1.83008 43.6562 2.61699 43.6562 3.4375V6.53125H37.4688V3.4375C37.4688 2.61699 37.7947 1.83008 38.3749 1.24989C38.9551 0.669698 39.742 0.34375 40.5625 0.34375Z" fill="#F7F7F6"/>
</svg>
