<svg width="49" height="41" viewBox="0 0 49 41" fill="none" xmlns="http://www.w3.org/2000/svg">
<g clip-path="url(#clip0)">
<path d="M9.32585 23.5901L16.4837 30.0482L19.059 27.7375C19.115 27.686 19.1818 27.645 19.2555 27.6169C19.3292 27.5889 19.4083 27.5743 19.4883 27.574H23.3936C23.7696 27.5756 24.1422 27.51 24.4899 27.3809C24.8375 27.2518 25.1533 27.0618 25.4189 26.8219L37.4312 15.9821L38.2171 15.2682C38.2239 15.1961 38.2109 15.1236 38.1792 15.0571C38.1476 14.9905 38.0983 14.932 38.0357 14.8867L36.8266 13.7968C36.7767 13.7399 36.7119 13.6952 36.638 13.6667C36.5641 13.6382 36.4835 13.6267 36.4034 13.6333L32.9636 16.7506C32.9094 16.8076 32.8427 16.854 32.7677 16.8867C32.6927 16.9194 32.611 16.9378 32.5277 16.9407C32.4445 16.9436 32.3615 16.9309 32.2839 16.9035C32.2063 16.8761 32.1358 16.8346 32.0769 16.7814C32.018 16.7283 31.9719 16.6648 31.9415 16.5949C31.9111 16.5249 31.8971 16.4501 31.9003 16.375C31.9035 16.3 31.9239 16.2263 31.9602 16.1587C31.9965 16.0911 32.0479 16.031 32.1112 15.9821L36.343 12.1673C36.4294 12.0898 36.4981 11.9976 36.5449 11.8962C36.5917 11.7947 36.6158 11.6858 36.6158 11.5759C36.6158 11.466 36.5917 11.3572 36.5449 11.2557C36.4981 11.1543 36.4294 11.0621 36.343 10.9846L35.8473 10.5323C35.6699 10.3813 35.4353 10.2972 35.1913 10.2972C34.9474 10.2972 34.7127 10.3813 34.5354 10.5323L30.3036 14.3744C30.2474 14.4255 30.1805 14.4661 30.1068 14.4937C30.0332 14.5214 29.9542 14.5356 29.8744 14.5356C29.7945 14.5356 29.7155 14.5214 29.6419 14.4937C29.5682 14.4661 29.5013 14.4255 29.4451 14.3744C29.3325 14.2723 29.2693 14.1342 29.2693 13.9902C29.2693 13.8462 29.3325 13.7081 29.4451 13.606L33.6769 9.79112L35.0009 8.5976C35.0889 8.52037 35.1589 8.42801 35.2067 8.32598C35.2545 8.22395 35.279 8.11432 35.279 8.00357C35.2797 7.89273 35.2555 7.78291 35.2077 7.68079C35.1599 7.57867 35.0895 7.48639 35.0009 7.40954L34.5052 6.9572C34.3275 6.8046 34.0916 6.71948 33.8462 6.71948C33.6008 6.71948 33.3649 6.8046 33.1873 6.9572L28.9554 10.7721C28.8728 10.8474 28.7676 10.8994 28.6527 10.9216C28.5378 10.9439 28.4183 10.9355 28.3086 10.8974C28.2362 11.2581 28.0445 11.5906 27.7584 11.8512L27.4804 12.1019C27.2783 12.2796 27.039 12.4194 26.7764 12.5129C26.5138 12.6065 26.2332 12.652 25.9509 12.6468C25.8556 12.6428 25.7608 12.6337 25.6667 12.6196C25.7116 12.9156 25.6804 13.217 25.5756 13.5005C25.4707 13.784 25.2951 14.042 25.0622 14.2545L24.7841 14.5052C24.5827 14.6824 24.3444 14.8217 24.0829 14.9153C23.8214 15.0088 23.5419 15.0547 23.2606 15.0502H23.0369C22.3924 14.9908 21.7903 14.7328 21.3321 14.3199C21.2518 14.6615 21.0652 14.9753 20.7941 15.2246L20.516 15.4753C20.3146 15.6524 20.0763 15.7918 19.8148 15.8853C19.5533 15.9789 19.2738 16.0247 18.9925 16.0203H18.7689C18.1105 15.9611 17.4962 15.6948 17.0338 15.2682L13.8055 12.358L11.5627 14.3799C11.039 14.8479 10.7377 15.4811 10.7224 16.1456L12.0403 20.7998C12.0659 20.891 12.0648 20.9866 12.0373 21.0773C12.0097 21.1681 11.9566 21.2508 11.8831 21.3175L9.32585 23.5901Z" fill="#F7F7F6"/>
<path d="M28.5383 8.21077C28.2657 8.4557 27.9255 8.63066 27.5529 8.71761C27.8799 9.02517 28.1204 9.39894 28.2542 9.80758L32.359 6.12348C32.5325 5.96534 32.6299 5.75188 32.6299 5.52945C32.6299 5.30701 32.5325 5.09356 32.359 4.93542L31.8573 4.48308C31.6796 4.33048 31.4437 4.24536 31.1983 4.24536C30.9529 4.24536 30.717 4.33048 30.5393 4.48308L29.2698 5.633C29.4687 6.0147 29.5336 6.44205 29.4558 6.8579C29.378 7.27375 29.1613 7.65828 28.8345 7.96008L28.5383 8.21077Z" fill="#F7F7F6"/>
<path d="M11.1395 38.5881C11.219 38.5885 11.2979 38.5748 11.3716 38.5477C11.4452 38.5205 11.5122 38.4806 11.5687 38.4301L16.9129 33.6124C16.9696 33.5617 17.0145 33.5015 17.0452 33.4351C17.0759 33.3686 17.0917 33.2974 17.0917 33.2255C17.0917 33.1535 17.0759 33.0823 17.0452 33.0159C17.0145 32.9495 16.9696 32.8892 16.9129 32.8385L6.22453 23.2086C6.11126 23.1071 5.95804 23.0502 5.79833 23.0502C5.63862 23.0502 5.48539 23.1071 5.37212 23.2086L0.0279402 28.0263C-0.084657 28.1284 -0.147858 28.2666 -0.147858 28.4105C-0.147858 28.5545 -0.084657 28.6926 0.0279402 28.7947L10.7163 38.4301C10.8289 38.5308 10.9809 38.5875 11.1395 38.5881Z" fill="#F7F7F6"/>
<path d="M39.674 25.999L37.1107 23.6664C37.0372 23.5997 36.9841 23.5169 36.9565 23.4262C36.929 23.3355 36.928 23.2399 36.9536 23.1487L38.2715 18.4945C38.2511 18.0243 38.088 17.5681 37.7999 17.1757L26.2652 27.5903C26.1685 27.6775 26.0657 27.7593 25.9629 27.8356C25.2358 28.3744 24.3228 28.6674 23.3815 28.6639H22.9704L23.575 29.2089C23.8406 29.4488 24.1563 29.6388 24.504 29.7679C24.8516 29.897 25.2242 29.9627 25.6002 29.961H29.5056C29.5855 29.9613 29.6647 29.9759 29.7384 30.004C29.812 30.032 29.8788 30.073 29.9348 30.1245L32.4981 32.4352L39.674 25.999Z" fill="#F7F7F6"/>
<path d="M48.9719 30.4297L43.6278 25.6175C43.5145 25.516 43.3613 25.459 43.2016 25.459C43.0418 25.459 42.8886 25.516 42.7754 25.6175L32.087 35.2473C32.0303 35.298 31.9854 35.3583 31.9547 35.4247C31.924 35.4911 31.9082 35.5623 31.9082 35.6343C31.9082 35.7062 31.924 35.7775 31.9547 35.8439C31.9854 35.9103 32.0303 35.9706 32.087 36.0212L37.4312 40.8389C37.5444 40.9404 37.6977 40.9974 37.8574 40.9974C38.0171 40.9974 38.1703 40.9404 38.2836 40.8389L48.9719 31.2036C49.0286 31.1529 49.0736 31.0926 49.1043 31.0262C49.135 30.9598 49.1508 30.8886 49.1508 30.8166C49.1508 30.7447 49.135 30.6734 49.1043 30.607C49.0736 30.5406 49.0286 30.4803 48.9719 30.4297Z" fill="#F7F7F6"/>
<path d="M14.138 9.68754C13.9405 9.92948 13.8547 10.231 13.8987 10.5288C13.9426 10.8266 14.113 11.0974 14.3738 11.2843L17.8923 14.4562C18.1566 14.7017 18.5068 14.8576 18.8837 14.8976C19.0244 14.914 19.1674 14.902 19.3023 14.8624C19.4372 14.8228 19.5606 14.7567 19.6636 14.6687L19.9477 14.418C20.1438 14.1756 20.2287 13.8744 20.1848 13.577C20.1409 13.2796 19.9715 13.0089 19.7119 12.8212L16.1874 9.64394C15.9259 9.39892 15.5771 9.24459 15.202 9.20795H15.0872C14.9637 9.20492 14.8407 9.22408 14.7255 9.26431C14.6103 9.30455 14.5051 9.36505 14.4161 9.4423L14.138 9.68754Z" fill="#F7F7F6"/>
<path d="M16.1693 5.35501C16.0448 5.35156 15.9209 5.3705 15.8046 5.41074C15.6883 5.45098 15.5821 5.5117 15.4922 5.58936L15.2141 5.84005C15.1165 5.93288 15.0431 6.04414 14.9992 6.16575C14.9553 6.28736 14.942 6.41625 14.9602 6.54308C14.9967 6.88152 15.1636 7.19775 15.4318 7.43686L22.1422 13.4862C22.4047 13.734 22.7558 13.8903 23.1337 13.9276C23.2744 13.9445 23.4175 13.9326 23.5524 13.893C23.6874 13.8534 23.8108 13.787 23.9135 13.6987L24.1916 13.448C24.3898 13.2068 24.4766 12.9056 24.4338 12.6079C24.391 12.3101 24.2218 12.0389 23.9619 11.8512L17.2454 5.79645C16.9623 5.53101 16.5773 5.3731 16.1693 5.35501Z" fill="#F7F7F6"/>
<path d="M18.9502 2.95698H18.8353C18.7118 2.95394 18.5889 2.9731 18.4737 3.01334C18.3585 3.05357 18.2533 3.11407 18.1643 3.19132L17.8862 3.44201C17.6887 3.68395 17.6029 3.9855 17.6468 4.28328C17.6908 4.58106 17.8611 4.85188 18.122 5.03882L24.8324 11.0881C25.0398 11.3233 25.3402 11.4768 25.6705 11.5165C26.0009 11.5561 26.3354 11.4788 26.6038 11.3007L26.8818 11.05C26.9803 10.9566 27.0542 10.8444 27.0981 10.7218C27.1421 10.5992 27.1549 10.4692 27.1358 10.3415C27.0927 10.0041 26.9218 9.69036 26.6521 9.45319L25.2254 8.16158L19.9356 3.38751C19.6716 3.14636 19.3237 2.99435 18.9502 2.95698Z" fill="#F7F7F6"/>
<path d="M24.8022 2.95708C24.5825 2.75762 24.2857 2.64242 23.974 2.63553C23.8366 2.63325 23.7 2.65569 23.5724 2.70155C23.4447 2.7474 23.3284 2.81574 23.2304 2.90258L22.9463 3.15872C22.7425 3.35449 22.6326 3.61484 22.6405 3.88322C22.6484 4.15159 22.7735 4.40631 22.9886 4.59203L26.0839 7.38235C26.2876 7.58012 26.5701 7.69693 26.8694 7.70715C27.1686 7.71737 27.4601 7.62015 27.6799 7.43685L27.9579 7.18616C28.1613 6.98801 28.2691 6.72524 28.2578 6.45551C28.2465 6.18577 28.1169 5.93111 27.8975 5.7474L24.8022 2.95708Z" fill="#F7F7F6"/>
</g>
<defs>
<clipPath id="clip0">
<rect width="49" height="41" fill="white"/>
</clipPath>
</defs>
</svg>
