<svg width="848" height="647" viewBox="0 0 848 647" fill="none" xmlns="http://www.w3.org/2000/svg">
<g filter="url(#filter0_d)">
<path d="M621.854 0.398865H4.2634V450.842H621.854V0.398865Z" fill="#E6E6E6"/>
<path d="M604.194 56.8955H21.9236V228.608H604.194V56.8955Z" fill="white"/>
<path d="M289.895 81.6984H166.758V89.7483H289.895V81.6984Z" fill="#E6E6E6"/>
<path d="M356.909 111.062H166.758V119.112H356.909V111.062Z" fill="#6C63FF"/>
<path d="M321.726 138.727H166.758V146.777H321.726V138.727Z" fill="#E6E6E6"/>
<path d="M257.226 166.287H166.758V174.337H257.226V166.287Z" fill="#E6E6E6"/>
<path d="M303.298 193.847H166.758V201.897H303.298V193.847Z" fill="#E6E6E6"/>
<path d="M125.712 78.8365H110.634V96.0078H125.712V78.8365Z" fill="#E6E6E6"/>
<path d="M125.712 106.501H110.634V123.673H125.712V106.501Z" fill="#6C63FF"/>
<path d="M125.712 134.166H110.634V151.337H125.712V134.166Z" fill="#E6E6E6"/>
<path d="M125.712 161.831H110.634V179.002H125.712V161.831Z" fill="#E6E6E6"/>
<path d="M125.712 189.496H110.634V206.667H125.712V189.496Z" fill="#E6E6E6"/>
<path d="M522.767 117.949H472.507V175.186H522.767V117.949Z" fill="#E6E6E6"/>
<path d="M604.194 252.457H21.9236V424.17H604.194V252.457Z" fill="white"/>
<path d="M151.68 267.718H136.602V284.889H151.68V267.718Z" fill="#E6E6E6"/>
<path d="M125.712 267.718H110.634V284.889H125.712V267.718Z" fill="#6C63FF"/>
<path d="M366.284 305.268C361.689 296.408 355.312 288.916 347.679 283.409C340.045 277.902 331.373 274.537 322.375 273.59C313.377 272.643 304.311 274.143 295.921 277.964C287.531 281.785 280.057 287.82 274.114 295.572L270.439 291.915C276.889 283.499 285.001 276.947 294.108 272.798C303.215 268.649 313.056 267.021 322.823 268.049C332.591 269.076 342.004 272.729 350.29 278.707C358.575 284.686 365.496 292.819 370.483 302.438L366.284 305.268Z" fill="#E6E6E6"/>
<path d="M368.584 377.661L364.534 374.56C370.532 364.373 373.879 352.462 374.188 340.202C374.498 327.942 371.758 315.831 366.284 305.268L370.483 302.438C376.427 313.904 379.402 327.052 379.066 340.362C378.73 353.672 375.096 366.602 368.584 377.661Z" fill="#6C63FF"/>
<path d="M270.948 385.403C260.861 372.575 255.242 355.988 255.148 338.769C255.054 321.549 260.493 304.885 270.439 291.915L274.114 295.572C264.951 307.52 259.941 322.872 260.028 338.735C260.114 354.598 265.291 369.877 274.582 381.696L270.948 385.403Z" fill="#6C63FF"/>
<path d="M317.119 408.909C308.406 408.901 299.791 406.804 291.836 402.755C283.881 398.705 276.764 392.793 270.948 385.403L274.582 381.696C280.384 389.077 287.59 394.852 295.651 398.578C303.711 402.304 312.413 403.883 321.091 403.195C329.77 402.506 338.195 399.568 345.724 394.606C353.253 389.643 359.687 382.787 364.534 374.56L368.584 377.661C362.918 387.282 355.259 395.166 346.284 400.616C337.308 406.066 327.291 408.914 317.119 408.909Z" fill="#6C63FF"/>
<path d="M522.767 304.925H472.507V362.162H522.767V304.925Z" fill="#E6E6E6"/>
<path d="M158.8 342.129H108.54V399.367H158.8V342.129Z" fill="#E6E6E6"/>
<path d="M621.59 0H4V29.88H621.59V0Z" fill="#6C63FF"/>
<path d="M23.4976 20.8143C26.1833 20.8143 28.3605 18.3348 28.3605 15.2762C28.3605 12.2177 26.1833 9.73822 23.4976 9.73822C20.8119 9.73822 18.6347 12.2177 18.6347 15.2762C18.6347 18.3348 20.8119 20.8143 23.4976 20.8143Z" fill="white"/>
<path d="M41.956 20.8143C44.6417 20.8143 46.8189 18.3348 46.8189 15.2762C46.8189 12.2177 44.6417 9.73822 41.956 9.73822C39.2703 9.73822 37.0931 12.2177 37.0931 15.2762C37.0931 18.3348 39.2703 20.8143 41.956 20.8143Z" fill="white"/>
<path d="M60.4144 20.8143C63.1002 20.8143 65.2774 18.3348 65.2774 15.2762C65.2774 12.2177 63.1002 9.73822 60.4144 9.73822C57.7287 9.73822 55.5515 12.2177 55.5515 15.2762C55.5515 18.3348 57.7287 20.8143 60.4144 20.8143Z" fill="white"/>
<path d="M721.3 623.485H733.803L739.752 568.564L721.298 568.565L721.3 623.485Z" fill="#FFB8B8"/>
<path d="M718.111 618.837L742.734 618.836H742.735C746.896 618.836 750.887 620.719 753.83 624.07C756.773 627.421 758.426 631.966 758.426 636.705V637.286L718.112 637.288L718.111 618.837Z" fill="#2F2E41"/>
<path d="M690.162 569.566L699.388 579.176L736.325 543.22L722.708 529.038L690.162 569.566Z" fill="#FFB8B8"/>
<path d="M690.563 563.685L708.733 582.609L708.734 582.609C711.805 585.808 713.634 590.265 713.82 594.999C714.005 599.734 712.532 604.359 709.723 607.856L709.379 608.284L679.63 577.301L690.563 563.685Z" fill="#2F2E41"/>
<path d="M740.951 430.621L737.408 511.332L746.267 599.106L719.69 603.141L702.858 492.163L697.542 416.496L740.951 430.621Z" fill="#2F2E41"/>
<path d="M782.589 401.363C782.589 401.363 793.22 481.065 771.072 507.296C748.925 533.527 718.804 579.936 718.804 579.936L697.542 549.67L751.583 484.092L740.952 439.701L697.542 416.496L704.63 361.007L768.415 359.998L782.589 401.363Z" fill="#2F2E41"/>
<path d="M733.807 216.736C745.789 216.736 755.503 205.673 755.503 192.027C755.503 178.381 745.789 167.318 733.807 167.318C721.824 167.318 712.11 178.381 712.11 192.027C712.11 205.673 721.824 216.736 733.807 216.736Z" fill="#FFB8B8"/>
<path d="M751.803 227.144L755.126 232.878L763.985 261.127L756.898 371.096L715.26 372.105L709.945 245.994L721.08 230.143L751.803 227.144Z" fill="#CCCCCC"/>
<path d="M693.113 249.02L686.026 248.012C686.026 248.012 684.254 249.02 683.368 256.083C682.482 263.145 671.851 325.696 671.851 325.696L686.026 402.372L701.972 378.158L692.227 335.785L701.972 293.412L693.113 249.02Z" fill="#2F2E41"/>
<path d="M783.475 248.012H788.79L802.079 329.731L789.677 393.292L777.273 370.087L780.817 344.865L779.046 322.67L772.844 309.553L783.475 248.012Z" fill="#2F2E41"/>
<path d="M746.628 192.027L742.683 190.904C742.683 190.904 739.724 171.811 732.821 174.057C725.917 176.303 708.165 178.55 708.165 169.565C708.165 160.58 724.931 152.718 734.793 153.841C744.655 154.964 757.251 158.69 760.434 175.18C765.539 201.615 749.904 208.292 749.904 208.292L750.164 207.33C750.886 204.657 750.938 201.808 750.313 199.104C749.688 196.4 748.412 193.948 746.628 192.027Z" fill="#2F2E41"/>
<path d="M686.912 248.012L715.261 234.896L721.905 229.347L741.838 329.732L755.126 284.332L751.14 226.32L787.904 248.012L775.502 316.616L773.73 342.847L779.046 364.034C779.046 364.034 797.649 379.167 791.448 395.309C785.247 411.452 778.16 412.461 778.16 412.461C778.16 412.461 748.039 380.176 746.267 372.105C744.495 364.034 741.838 349.909 741.838 349.909C741.838 349.909 726.777 414.478 709.059 413.469C691.341 412.461 691.341 391.274 691.341 391.274L695.771 369.078L702.858 345.874L699.314 307.536L686.912 248.012Z" fill="#2F2E41"/>
<path d="M842.246 639H606.999C606.766 639 606.543 638.895 606.378 638.707C606.214 638.52 606.121 638.265 606.121 638C606.121 637.735 606.214 637.481 606.378 637.294C606.543 637.106 606.766 637.001 606.999 637.001H842.246C842.479 637.001 842.702 637.106 842.867 637.294C843.032 637.481 843.124 637.735 843.124 638C843.124 638.265 843.032 638.52 842.867 638.707C842.702 638.895 842.479 639 842.246 639Z" fill="#CCCCCC"/>
</g>
<defs>
<filter id="filter0_d" x="0" y="0" width="847.124" height="647" filterUnits="userSpaceOnUse" color-interpolation-filters="sRGB">
<feFlood flood-opacity="0" result="BackgroundImageFix"/>
<feColorMatrix in="SourceAlpha" type="matrix" values="0 0 0 0 0 0 0 0 0 0 0 0 0 0 0 0 0 0 127 0"/>
<feOffset dy="4"/>
<feGaussianBlur stdDeviation="2"/>
<feColorMatrix type="matrix" values="0 0 0 0 0 0 0 0 0 0 0 0 0 0 0 0 0 0 0.25 0"/>
<feBlend mode="normal" in2="BackgroundImageFix" result="effect1_dropShadow"/>
<feBlend mode="normal" in="SourceGraphic" in2="effect1_dropShadow" result="shape"/>
</filter>
</defs>
</svg>
