<svg width="648" height="651" viewBox="0 0 648 651" fill="none" xmlns="http://www.w3.org/2000/svg">
<g filter="url(#filter0_d)">
<path d="M621.854 0.398865H4.26343V450.842H621.854V0.398865Z" fill="#E6E6E6"/>
<path d="M604.194 56.8955H21.9236V228.608H604.194V56.8955Z" fill="white"/>
<path d="M289.895 81.6984H166.758V89.7483H289.895V81.6984Z" fill="#E6E6E6"/>
<path d="M356.909 111.062H166.758V119.112H356.909V111.062Z" fill="#6C63FF"/>
<path d="M321.727 138.727H166.758V146.777H321.727V138.727Z" fill="#E6E6E6"/>
<path d="M257.226 166.287H166.758V174.337H257.226V166.287Z" fill="#E6E6E6"/>
<path d="M303.298 193.847H166.758V201.897H303.298V193.847Z" fill="#E6E6E6"/>
<path d="M125.712 78.8365H110.634V96.0078H125.712V78.8365Z" fill="#E6E6E6"/>
<path d="M125.712 106.501H110.634V123.673H125.712V106.501Z" fill="#6C63FF"/>
<path d="M125.712 134.166H110.634V151.337H125.712V134.166Z" fill="#E6E6E6"/>
<path d="M125.712 161.831H110.634V179.002H125.712V161.831Z" fill="#E6E6E6"/>
<path d="M125.712 189.496H110.634V206.667H125.712V189.496Z" fill="#E6E6E6"/>
<path d="M522.767 117.949H472.507V175.186H522.767V117.949Z" fill="#E6E6E6"/>
<path d="M604.194 252.457H21.9236V424.17H604.194V252.457Z" fill="white"/>
<path d="M151.68 267.718H136.602V284.889H151.68V267.718Z" fill="#E6E6E6"/>
<path d="M125.712 267.718H110.634V284.889H125.712V267.718Z" fill="#6C63FF"/>
<path d="M366.284 305.268C361.689 296.408 355.312 288.916 347.679 283.409C340.045 277.902 331.373 274.537 322.375 273.59C313.377 272.643 304.311 274.143 295.921 277.964C287.531 281.785 280.057 287.82 274.114 295.572L270.439 291.915C276.889 283.499 285.001 276.947 294.108 272.798C303.215 268.649 313.056 267.021 322.824 268.049C332.591 269.076 342.004 272.729 350.29 278.707C358.575 284.686 365.496 292.819 370.483 302.438L366.284 305.268Z" fill="#E6E6E6"/>
<path d="M368.584 377.661L364.534 374.56C370.532 364.373 373.879 352.462 374.188 340.202C374.498 327.942 371.758 315.831 366.284 305.268L370.483 302.438C376.427 313.904 379.402 327.052 379.066 340.362C378.73 353.672 375.096 366.602 368.584 377.661V377.661Z" fill="#6C63FF"/>
<path d="M270.948 385.403C260.861 372.575 255.242 355.988 255.148 338.769C255.055 321.549 260.493 304.885 270.439 291.915L274.114 295.572C264.951 307.52 259.942 322.872 260.028 338.735C260.114 354.598 265.291 369.877 274.582 381.696L270.948 385.403Z" fill="#6C63FF"/>
<path d="M317.119 408.909C308.406 408.901 299.791 406.804 291.836 402.755C283.881 398.705 276.764 392.793 270.948 385.403L274.582 381.696C280.384 389.077 287.59 394.852 295.651 398.578C303.712 402.304 312.413 403.883 321.091 403.195C329.77 402.506 338.195 399.568 345.724 394.606C353.253 389.643 359.687 382.787 364.534 374.56L368.584 377.661C362.919 387.282 355.26 395.166 346.284 400.616C337.308 406.066 327.291 408.914 317.119 408.909V408.909Z" fill="#6C63FF"/>
<path d="M522.767 304.925H472.507V362.162H522.767V304.925Z" fill="#E6E6E6"/>
<path d="M158.8 342.129H108.54V399.367H158.8V342.129Z" fill="#E6E6E6"/>
<path d="M621.59 0H4V29.88H621.59V0Z" fill="#6C63FF"/>
<path d="M23.4977 20.8143C26.1834 20.8143 28.3606 18.3348 28.3606 15.2762C28.3606 12.2177 26.1834 9.73822 23.4977 9.73822C20.812 9.73822 18.6348 12.2177 18.6348 15.2762C18.6348 18.3348 20.812 20.8143 23.4977 20.8143Z" fill="white"/>
<path d="M41.9559 20.8143C44.6417 20.8143 46.8189 18.3348 46.8189 15.2762C46.8189 12.2177 44.6417 9.73822 41.9559 9.73822C39.2702 9.73822 37.093 12.2177 37.093 15.2762C37.093 18.3348 39.2702 20.8143 41.9559 20.8143Z" fill="white"/>
<path d="M60.4144 20.8143C63.1001 20.8143 65.2774 18.3348 65.2774 15.2762C65.2774 12.2177 63.1001 9.73822 60.4144 9.73822C57.7287 9.73822 55.5515 12.2177 55.5515 15.2762C55.5515 18.3348 57.7287 20.8143 60.4144 20.8143Z" fill="white"/>
<path d="M562.449 626.752H574.952L580.9 571.831L562.447 571.832L562.449 626.752Z" fill="#FFB8B8"/>
<path d="M559.26 622.103L583.883 622.102H583.884C588.045 622.102 592.036 623.985 594.979 627.336C597.921 630.687 599.575 635.232 599.575 639.972V640.552L559.261 640.554L559.26 622.103Z" fill="#2F2E41"/>
<path d="M531.311 572.832L540.537 582.442L577.473 546.487L563.856 532.305L531.311 572.832Z" fill="#FFB8B8"/>
<path d="M531.712 566.951L549.882 585.875L549.883 585.876C552.954 589.074 554.783 593.531 554.968 598.266C555.154 603 553.68 607.625 550.872 611.122L550.528 611.551L520.778 580.567L531.712 566.951Z" fill="#2F2E41"/>
<path d="M582.1 433.887L578.557 514.598L587.416 602.372L560.839 606.408L544.007 495.43L538.691 419.762L582.1 433.887Z" fill="#2F2E41"/>
<path d="M623.738 404.629C623.738 404.629 634.369 484.332 612.221 510.563C590.074 536.794 559.953 583.203 559.953 583.203L538.691 552.936L592.731 487.358L582.101 442.967L538.691 419.763L545.779 364.274L609.563 363.265L623.738 404.629Z" fill="#2F2E41"/>
<path d="M574.956 220.002C586.938 220.002 596.652 208.94 596.652 195.294C596.652 181.647 586.938 170.585 574.956 170.585C562.973 170.585 553.259 181.647 553.259 195.294C553.259 208.94 562.973 220.002 574.956 220.002Z" fill="#FFB8B8"/>
<path d="M592.951 230.411L596.275 236.145L605.134 264.394L598.047 374.362L556.409 375.372L551.094 249.26L562.229 233.41L592.951 230.411Z" fill="#CCCCCC"/>
<path d="M534.262 252.287L527.174 251.278C527.174 251.278 525.403 252.287 524.517 259.349C523.631 266.411 513 328.962 513 328.962L527.174 405.638L543.121 381.425L533.376 339.051L543.121 296.678L534.262 252.287Z" fill="#2F2E41"/>
<path d="M624.624 251.278H629.939L643.228 332.998L630.825 396.558L618.422 373.354L621.966 348.131L620.194 325.936L613.993 312.82L624.624 251.278Z" fill="#2F2E41"/>
<path d="M587.776 195.294L583.831 194.17C583.831 194.17 580.873 175.077 573.969 177.324C567.066 179.57 549.314 181.816 549.314 172.831C549.314 163.846 566.08 155.984 575.942 157.107C585.804 158.23 598.399 161.956 601.583 178.447C606.687 204.881 591.052 211.558 591.052 211.558L591.313 210.596C592.035 207.924 592.087 205.074 591.462 202.37C590.837 199.666 589.56 197.215 587.776 195.294V195.294Z" fill="#2F2E41"/>
<path d="M528.06 251.278L556.409 238.162L563.054 232.614L582.986 332.998L596.275 287.598L592.288 229.587L629.053 251.278L616.651 319.882L614.879 346.114L620.194 367.3C620.194 367.3 638.798 382.434 632.597 398.576C626.396 414.718 619.308 415.727 619.308 415.727C619.308 415.727 589.188 383.443 587.416 375.371C585.644 367.3 582.986 353.176 582.986 353.176C582.986 353.176 567.926 417.745 550.208 416.736C532.49 415.727 532.49 394.54 532.49 394.54L536.919 372.345L544.007 349.14L540.463 310.802L528.06 251.278Z" fill="#2F2E41"/>
<path d="M604.125 642.999H368.878C368.645 642.999 368.422 642.894 368.257 642.707C368.092 642.519 368 642.265 368 642C368 641.735 368.092 641.48 368.257 641.293C368.422 641.105 368.645 641 368.878 641H604.125C604.358 641 604.581 641.105 604.746 641.293C604.91 641.48 605.003 641.735 605.003 642C605.003 642.265 604.91 642.519 604.746 642.707C604.581 642.894 604.358 642.999 604.125 642.999Z" fill="#CCCCCC"/>
</g>
<defs>
<filter id="filter0_d" x="0" y="0" width="647.228" height="650.999" filterUnits="userSpaceOnUse" color-interpolation-filters="sRGB">
<feFlood flood-opacity="0" result="BackgroundImageFix"/>
<feColorMatrix in="SourceAlpha" type="matrix" values="0 0 0 0 0 0 0 0 0 0 0 0 0 0 0 0 0 0 127 0"/>
<feOffset dy="4"/>
<feGaussianBlur stdDeviation="2"/>
<feColorMatrix type="matrix" values="0 0 0 0 0 0 0 0 0 0 0 0 0 0 0 0 0 0 0.25 0"/>
<feBlend mode="normal" in2="BackgroundImageFix" result="effect1_dropShadow"/>
<feBlend mode="normal" in="SourceGraphic" in2="effect1_dropShadow" result="shape"/>
</filter>
</defs>
</svg>
