<svg width="305" height="248" viewBox="0 0 305 248" fill="none" xmlns="http://www.w3.org/2000/svg">
<path fill-rule="evenodd" clip-rule="evenodd" d="M8.24851 232.513L8.02837 222.815H16.2347V213.579H292.858V222.815H299.417V232.55H304.442V242.286H0V232.55H8.24851V232.513ZM29.831 67.0197H16.2347L156.194 0L296.154 67.0197H280.788V213.579H29.831V67.0197Z" fill="#FFF1DF"/>
<path fill-rule="evenodd" clip-rule="evenodd" d="M299.418 232.516H8.24966L8.18884 229.838H299.418V232.516ZM292.859 222.768H16.236V220.091H292.859V222.768ZM280.789 213.564H29.8323V210.887H280.789V213.564ZM280.789 69.9303L29.8323 70.2944V67.476L280.789 67.1118V69.9303Z" fill="#CED0F2"/>
<path fill-rule="evenodd" clip-rule="evenodd" d="M280.783 69.2267L243.331 74.624V211.516H208.115V72.0368C201.563 72.8422 185.428 74.8416 170.38 76.8344V211.516H135.163V70.1479L97.4275 74.624V211.516H62.2109V70.6697L29.8258 74.624V68.7095C29.8258 68.7095 53.6449 69.4326 62.2109 69.9761V69.1857H97.4275V68.7095H138.973L137.711 69.1857H170.38V70.0202L208.115 69.2475V69.1857H243.331V68.7095L280.783 69.1821V69.2267Z" fill="#D0DDFF"/>
<path d="M156.199 57.6402C168.5 57.6402 178.471 47.6828 178.471 35.3997C178.471 23.1166 168.5 13.1592 156.199 13.1592C143.899 13.1592 133.928 23.1166 133.928 35.3997C133.928 47.6828 143.899 57.6402 156.199 57.6402Z" fill="#FFCF84"/>
<path fill-rule="evenodd" clip-rule="evenodd" d="M156.2 18.0464C165.787 18.0464 173.571 25.8196 173.571 35.394C173.571 44.9684 165.787 52.7416 156.2 52.7416C155.81 52.7416 155.494 53.0573 155.494 53.4462C155.494 53.8351 155.81 54.1508 156.2 54.1508C166.566 54.1508 174.983 45.7462 174.983 35.394C174.983 25.0418 166.566 16.6372 156.2 16.6372C155.81 16.6372 155.494 16.9529 155.494 17.3418C155.494 17.7307 155.81 18.0464 156.2 18.0464Z" fill="#FD9909"/>
<path fill-rule="evenodd" clip-rule="evenodd" d="M156.205 52.7416C146.617 52.7416 138.832 44.9684 138.832 35.394C138.832 25.8196 146.617 18.0464 156.205 18.0464C156.595 18.0464 156.911 17.7307 156.911 17.3418C156.911 16.9529 156.595 16.6372 156.205 16.6372C145.838 16.6372 137.422 25.0418 137.422 35.394C137.422 45.7462 145.838 54.1508 156.205 54.1508C156.595 54.1508 156.911 53.8351 156.911 53.4462C156.911 53.0573 156.595 52.7416 156.205 52.7416Z" fill="#FD9909"/>
<path fill-rule="evenodd" clip-rule="evenodd" d="M158.882 57.4818L158.426 53.8177C158.378 53.4317 158.654 53.0795 159.04 53.0315C159.427 52.9835 159.778 53.2579 159.828 53.6439L160.278 57.2691C159.818 57.3544 159.352 57.4254 158.882 57.4818ZM163.047 56.5693L161.785 52.8514C161.661 52.483 161.858 52.0826 162.228 51.9579C162.596 51.8331 162.997 52.0308 163.121 52.399L164.376 56.0933C163.94 56.2655 163.497 56.4243 163.047 56.5693ZM143.924 53.9555L145.885 50.7344C146.087 50.4021 146.522 50.2964 146.855 50.4985C147.188 50.7006 147.294 51.1344 147.092 51.4667L145.125 54.6963C144.715 54.4617 144.315 54.2144 143.924 53.9555ZM174.525 48.038L171.284 45.6426C170.972 45.4112 170.905 44.9697 171.137 44.657C171.368 44.3444 171.81 44.2785 172.123 44.5097L175.293 46.8522C175.05 47.256 174.793 47.6516 174.525 48.038ZM135.035 42.3333L138.843 40.6216C139.198 40.4619 139.617 40.6203 139.776 40.9748C139.936 41.3296 139.778 41.747 139.422 41.9066L135.519 43.6613C135.344 43.2254 135.181 42.7827 135.035 42.3333ZM177.812 30.0067C177.925 30.4608 178.025 30.9202 178.11 31.3845L174.354 32.2688C173.976 32.3582 173.595 32.1232 173.506 31.7449C173.416 31.3663 173.652 30.9866 174.03 30.8972L177.812 30.0067ZM137.798 22.8772L141.154 25.0691C141.479 25.282 141.571 25.719 141.358 26.0445C141.145 26.3699 140.708 26.4614 140.382 26.2485L137.04 24.0654C137.28 23.6607 137.534 23.2644 137.798 22.8772ZM139.988 20.1585L142.717 22.1627C143.03 22.3931 143.098 22.8346 142.867 23.1478C142.637 23.461 142.194 23.5282 141.88 23.2978L139.051 21.2187C139.351 20.8555 139.665 20.5019 139.988 20.1585ZM169.074 17.2548C169.458 17.5271 169.833 17.811 170.199 18.1068L167.759 21.1788C167.516 21.4835 167.071 21.5345 166.767 21.2928C166.462 21.0511 166.411 20.6075 166.652 20.3028L169.074 17.2548ZM165.295 15.0959C165.725 15.2888 166.148 15.4951 166.563 15.7134L164.843 18.9356C164.66 19.2787 164.232 19.4087 163.888 19.2257C163.545 19.0427 163.415 18.6155 163.598 18.2724L165.295 15.0959ZM151.207 13.7231L152.2 17.2603C152.305 17.6347 152.086 18.024 151.711 18.1289C151.335 18.2341 150.946 18.0154 150.841 17.6408L149.842 14.0821C150.291 13.9485 150.745 13.8287 151.207 13.7231Z" fill="#FD9909"/>
<path fill-rule="evenodd" clip-rule="evenodd" d="M70.4546 142.124L75.4652 169.449L51.2592 174.472L46.3363 146.724L70.4546 142.124Z" fill="white"/>
<path fill-rule="evenodd" clip-rule="evenodd" d="M47.1505 147.331L49.778 162.141C49.8457 162.525 49.5902 162.89 49.2063 162.958C48.8232 163.026 48.4567 162.77 48.3882 162.388L45.6399 146.892C45.5724 146.512 45.8232 146.149 46.2024 146.077L70.3204 141.477C70.5055 141.441 70.6964 141.481 70.8514 141.587C71.0063 141.694 71.1127 141.857 71.147 142.041L73.6075 155.461C73.6773 155.844 73.4231 156.212 73.0405 156.282C72.657 156.352 72.2898 156.098 72.2192 155.716L69.8866 142.994L47.1505 147.331Z" fill="black"/>
<path fill-rule="evenodd" clip-rule="evenodd" d="M74.6528 168.95L72.2274 155.721C72.1576 155.338 72.411 154.971 72.7945 154.901C73.1771 154.831 73.5451 155.084 73.6157 155.466L76.165 169.372C76.2345 169.748 75.99 170.111 75.6144 170.189L51.4085 175.212C51.2213 175.252 51.0271 175.213 50.8693 175.106C50.7113 174.999 50.6036 174.833 50.57 174.646L48.3964 162.393C48.3287 162.01 48.5851 161.644 48.9681 161.576C49.3521 161.508 49.7184 161.763 49.7863 162.147L51.8332 173.685L74.6528 168.95Z" fill="black"/>
<path fill-rule="evenodd" clip-rule="evenodd" d="M72.7371 167.676L72.4065 165.91L52.933 169.561L53.2645 171.328L72.7371 167.676ZM71.9931 163.614L71.6616 161.848L52.1881 165.5L52.5204 167.266L71.9931 163.614ZM71.2483 159.553L70.9165 157.785L51.4441 161.437L51.7755 163.205L71.2483 159.553ZM70.5037 155.492L70.1722 153.724L50.6993 157.376L51.0307 159.143L70.5037 155.492ZM69.7588 151.43L69.4274 149.663L49.9544 153.315L50.2859 155.082L69.7588 151.43ZM69.0139 147.369L68.6826 145.602L49.2095 149.253L49.5418 151.02L69.0139 147.369Z" fill="black"/>
<path fill-rule="evenodd" clip-rule="evenodd" d="M74.0695 140.093L89.7843 163.006L69.7248 177.449L53.9176 154.113L74.0695 140.093Z" fill="white"/>
<path fill-rule="evenodd" clip-rule="evenodd" d="M89.0114 162.842L83.3554 154.594C83.1793 154.338 83.2452 153.986 83.5021 153.811C83.7592 153.634 84.1106 153.7 84.2866 153.957L90.2542 162.658C90.4271 162.911 90.3668 163.256 90.1181 163.434L70.0585 177.877C69.9345 177.967 69.78 178.001 69.6299 177.975C69.4797 177.948 69.3467 177.862 69.2614 177.735L62.5621 167.846C62.3876 167.588 62.4553 167.237 62.7134 167.062C62.9712 166.888 63.3225 166.955 63.4969 167.213L69.8705 176.623L89.0114 162.842Z" fill="black"/>
<path fill-rule="evenodd" clip-rule="evenodd" d="M54.6914 154.269L63.4873 167.255C63.6619 167.512 63.5939 167.863 63.3361 168.037C63.078 168.212 62.727 168.144 62.5524 167.887L53.4445 154.441C53.2715 154.186 53.3364 153.838 53.5898 153.662L73.7419 139.642C73.8653 139.556 74.018 139.522 74.1657 139.55C74.3139 139.576 74.4447 139.662 74.5297 139.785L84.2771 153.998C84.453 154.255 84.3872 154.606 84.1301 154.783C83.8733 154.958 83.5218 154.893 83.3459 154.636L73.9197 140.891L54.6914 154.269Z" fill="black"/>
<path fill-rule="evenodd" clip-rule="evenodd" d="M86.5617 162.445L85.5392 160.966L69.2429 172.225L70.2663 173.704L86.5617 162.445ZM84.2255 159.038L83.2027 157.56L66.9062 168.819L67.93 170.297L84.2255 159.038ZM81.889 155.632L80.8651 154.153L64.57 165.412L65.5935 166.892L81.889 155.632ZM79.5528 152.227L78.5293 150.747L62.2335 162.007L63.257 163.486L79.5528 152.227ZM77.2163 148.821L76.1928 147.342L59.897 158.601L60.9205 160.08L77.2163 148.821ZM74.8797 145.415L73.8563 143.936L57.5604 155.195L58.5841 156.673L74.8797 145.415Z" fill="black"/>
<path d="M50.8966 242.796C61.2016 242.796 69.5555 234.23 69.5555 223.664C69.5555 213.097 61.2016 204.531 50.8966 204.531C40.5916 204.531 32.2378 213.097 32.2378 223.664C32.2378 234.23 40.5916 242.796 50.8966 242.796Z" fill="#FFCF84"/>
<path fill-rule="evenodd" clip-rule="evenodd" d="M50.9009 208.751C58.933 208.751 65.4547 215.438 65.4547 223.675C65.4547 231.911 58.933 238.598 50.9009 238.598C50.5746 238.598 50.3098 238.869 50.3098 239.204C50.3098 239.538 50.5746 239.81 50.9009 239.81C59.5856 239.81 66.637 232.58 66.637 223.675C66.637 214.769 59.5856 207.539 50.9009 207.539C50.5746 207.539 50.3098 207.811 50.3098 208.145C50.3098 208.48 50.5746 208.751 50.9009 208.751Z" fill="#FD9909"/>
<path fill-rule="evenodd" clip-rule="evenodd" d="M50.8917 238.598C42.8586 238.598 36.337 231.911 36.337 223.675C36.337 215.438 42.8586 208.751 50.8917 208.751C51.218 208.751 51.4829 208.48 51.4829 208.145C51.4829 207.811 51.218 207.539 50.8917 207.539C42.2061 207.539 35.1556 214.769 35.1556 223.675C35.1556 232.58 42.2061 239.81 50.8917 239.81C51.218 239.81 51.4829 239.538 51.4829 239.204C51.4829 238.869 51.218 238.598 50.8917 238.598Z" fill="#FD9909"/>
<path fill-rule="evenodd" clip-rule="evenodd" d="M53.1472 242.644L52.7654 239.492C52.7252 239.16 52.9557 238.857 53.2797 238.816C53.6036 238.775 53.898 239.011 53.9394 239.343L54.3165 242.461C53.9311 242.535 53.5409 242.596 53.1472 242.644ZM56.6362 241.859L55.5792 238.661C55.4751 238.344 55.6407 238 55.9504 237.892C56.259 237.785 56.5948 237.955 56.6988 238.272L57.7499 241.45C57.3845 241.598 57.0133 241.735 56.6362 241.859ZM40.6151 239.611L42.2585 236.84C42.4275 236.554 42.7917 236.463 43.0707 236.637C43.3497 236.811 43.4384 237.184 43.2693 237.47L41.6212 240.248C41.2783 240.046 40.9426 239.833 40.6151 239.611ZM66.2528 234.52L63.5371 232.46C63.2758 232.261 63.2203 231.881 63.4142 231.612C63.608 231.343 63.9781 231.286 64.2406 231.485L66.896 233.5C66.6926 233.848 66.4774 234.188 66.2528 234.52ZM33.1679 229.613L36.3589 228.14C36.6556 228.003 37.0068 228.139 37.1404 228.444C37.274 228.749 37.1415 229.108 36.8436 229.246L33.5734 230.755C33.4268 230.38 33.2909 229.999 33.1679 229.613ZM69.0063 219.009C69.1009 219.399 69.1849 219.795 69.2558 220.194L66.1098 220.955C65.7929 221.032 65.4737 220.83 65.3992 220.504C65.3235 220.179 65.521 219.852 65.8378 219.775L69.0063 219.009ZM35.4828 212.876L38.2943 214.761C38.5674 214.944 38.6442 215.32 38.4657 215.6C38.2872 215.88 37.9207 215.959 37.6476 215.776L34.8479 213.898C35.0489 213.55 35.2617 213.209 35.4828 212.876ZM37.3177 210.537L39.6042 212.261C39.8667 212.459 39.9235 212.839 39.7296 213.108C39.5368 213.378 39.1656 213.436 38.9031 213.238L36.5327 211.449C36.7845 211.137 37.047 210.832 37.3177 210.537ZM61.6857 208.039C62.0072 208.273 62.3217 208.518 62.628 208.772L60.5838 211.415C60.3804 211.677 60.008 211.721 59.7526 211.513C59.4973 211.305 59.4547 210.923 59.6569 210.661L61.6857 208.039ZM58.5195 206.182C58.8801 206.348 59.2348 206.525 59.5824 206.713L58.1412 209.485C57.9875 209.78 57.6293 209.892 57.3408 209.735C57.0535 209.577 56.9447 209.21 57.0984 208.914L58.5195 206.182ZM46.7168 205.001L47.5492 208.044C47.6366 208.366 47.4534 208.701 47.1389 208.791C46.8244 208.881 46.4981 208.693 46.4106 208.371L45.5736 205.31C45.9495 205.195 46.3302 205.092 46.7168 205.001Z" fill="#FD9909"/>
<path d="M115.784 229.577C118.377 239.481 128.61 245.391 138.64 242.777C148.67 240.164 154.698 230.017 152.105 220.113C149.512 210.209 139.279 204.299 129.249 206.913C119.219 209.526 113.191 219.673 115.784 229.577Z" fill="#FFCF84"/>
<path fill-rule="evenodd" clip-rule="evenodd" d="M148.109 221.19C150.13 228.912 145.423 236.835 137.604 238.873C129.785 240.91 121.795 236.295 119.774 228.574C119.692 228.261 119.367 228.073 119.049 228.156C118.732 228.239 118.541 228.56 118.623 228.874C120.809 237.222 129.447 242.212 137.902 240.009C146.356 237.806 151.445 229.239 149.26 220.891C149.178 220.577 148.853 220.389 148.535 220.472C148.218 220.555 148.027 220.877 148.109 221.19Z" fill="#FD9909"/>
<path fill-rule="evenodd" clip-rule="evenodd" d="M119.785 228.563C117.763 220.841 122.47 212.918 130.289 210.88C138.109 208.843 146.098 213.458 148.12 221.18C148.202 221.493 148.527 221.681 148.844 221.598C149.162 221.515 149.353 221.193 149.271 220.88C147.085 212.53 138.447 207.542 129.992 209.745C121.538 211.948 116.448 220.514 118.634 228.863C118.716 229.177 119.041 229.364 119.358 229.282C119.676 229.199 119.867 228.877 119.785 228.563Z" fill="#FD9909"/>
<path fill-rule="evenodd" clip-rule="evenodd" d="M116.48 231.729L119.377 230.582C119.682 230.461 120.027 230.608 120.148 230.909C120.269 231.21 120.119 231.551 119.814 231.673L116.948 232.807C116.782 232.455 116.625 232.095 116.48 231.729ZM118.103 234.887L120.874 233.08C121.148 232.902 121.517 232.975 121.697 233.247C121.876 233.516 121.799 233.881 121.525 234.06L118.772 235.856C118.539 235.542 118.316 235.219 118.103 234.887ZM116.208 218.935L119.252 219.829C119.566 219.921 119.744 220.248 119.649 220.559C119.554 220.87 119.222 221.048 118.908 220.956L115.856 220.06C115.961 219.68 116.079 219.305 116.208 218.935ZM127.489 242.312L128.762 239.193C128.886 238.892 129.232 238.745 129.536 238.865C129.84 238.984 129.987 239.326 129.864 239.627L128.619 242.678C128.238 242.568 127.861 242.446 127.489 242.312ZM123.826 209.305L126.027 212.007C126.232 212.258 126.191 212.629 125.935 212.833C125.679 213.037 125.304 212.999 125.099 212.746L122.844 209.977C123.163 209.744 123.49 209.519 123.826 209.305ZM142.907 241.12C142.56 241.307 142.206 241.486 141.845 241.653L140.331 238.818C140.179 238.532 140.29 238.176 140.58 238.024C140.87 237.87 141.23 237.979 141.383 238.265L142.907 241.12ZM140.297 207.388L139.214 210.556C139.109 210.864 138.772 211.031 138.461 210.929C138.15 210.826 137.983 210.494 138.089 210.186L139.167 207.031C139.548 207.138 139.925 207.258 140.297 207.388ZM142.979 208.572L141.917 211.196C141.795 211.498 141.449 211.646 141.145 211.526C140.84 211.408 140.692 211.065 140.814 210.764L141.916 208.044C142.276 208.208 142.63 208.385 142.979 208.572ZM151.48 231.371C151.338 231.738 151.185 232.1 151.021 232.457L147.998 231.147C147.698 231.017 147.563 230.67 147.696 230.373C147.829 230.076 148.181 229.94 148.48 230.07L151.48 231.371ZM152.446 227.869C152.38 228.256 152.3 228.641 152.209 229.021L149.216 228.322C148.897 228.248 148.7 227.931 148.777 227.615C148.854 227.3 149.176 227.105 149.495 227.179L152.446 227.869ZM150.599 216.235L147.919 217.787C147.636 217.951 147.272 217.858 147.107 217.578C146.942 217.298 147.038 216.938 147.322 216.774L150.018 215.212C150.222 215.545 150.415 215.886 150.599 216.235Z" fill="#FD9909"/>
<path fill-rule="evenodd" clip-rule="evenodd" d="M91.5665 84.9956C91.5169 84.919 89.5967 84.9891 89.4477 84.9798C87.1987 84.8405 84.953 84.6206 82.7147 84.3641C75.2758 83.5116 66.3997 82.925 60.2615 78.1883C53.2786 72.8002 59.1619 64.8853 66.8098 66.3494C76.239 68.1547 83.3815 77.4834 91.4819 82.1347" fill="black"/>
<path d="M99.2552 94.1594C104.317 94.1594 108.421 90.0614 108.421 85.0062C108.421 79.9511 104.317 75.853 99.2552 75.853C94.193 75.853 90.0892 79.9511 90.0892 85.0062C90.0892 90.0614 94.193 94.1594 99.2552 94.1594Z" fill="#ACA7FF"/>
<path fill-rule="evenodd" clip-rule="evenodd" d="M95.2597 88.5239L92.2644 90.9238C90.9081 89.3282 90.0892 87.262 90.0892 85.0064C90.0892 79.9544 94.1963 75.853 99.2553 75.853C103.94 75.853 107.808 79.3699 108.355 83.9021C106.823 83.7227 105.55 82.7775 104.523 81.1018C104.436 84.5169 101.427 85.8205 97.7981 86.49C97.6463 85.6206 96.8698 84.9579 95.9363 84.9579C94.8939 84.9579 94.0475 85.7841 94.0475 86.8018C94.0475 87.5869 94.551 88.258 95.2597 88.5239Z" fill="black"/>
<path fill-rule="evenodd" clip-rule="evenodd" d="M155.626 136.149C155.626 136.149 194.837 94.8314 218.828 96.4864C222.672 96.7515 233.624 98.2393 244.206 105.947C251.84 111.507 258.365 117.913 264.697 124.445C267.795 127.643 269.176 132.127 268.412 136.51C267.648 140.894 264.831 144.648 260.832 146.613C255.073 149.447 247.662 152.154 238.565 153.677C238.565 153.677 240.184 156.599 241.188 158.412C241.713 159.361 241.706 160.512 241.17 161.453C240.342 162.864 238.785 165.012 236.086 167.144C236.086 167.144 235.932 168.147 235.785 169.103C235.716 169.552 235.47 169.955 235.102 170.223C234.734 170.492 234.275 170.602 233.825 170.53C233.138 170.422 232.614 169.858 232.555 169.166C232.521 168.746 232.541 168.302 232.614 167.947C232.614 167.947 234.358 155.952 224.874 146.024C224.874 146.024 222.264 141.938 226.255 139.316L241.172 130.348L231.852 122.52C231.852 122.52 229.855 132.32 218.501 134.468C213.611 135.394 204.385 135.683 198.689 127.019C198.689 127.019 169.064 150.528 161.276 159.823C161.276 159.823 160.091 160.956 159.058 160.222C158.479 159.81 157.714 158.956 158.564 157.663C158.564 157.663 157.169 158.92 155.942 158.081C155.123 157.522 154.492 156.425 155.335 155.137C155.335 155.137 153.91 156.439 152.623 155.519C151.756 154.898 151.556 153.803 151.982 152.554C151.982 152.554 150.475 154.048 149.192 153.181C148.294 152.575 147.861 151.315 148.474 150.399L154.166 142.239L155.626 136.149Z" fill="#3873F9"/>
<path fill-rule="evenodd" clip-rule="evenodd" d="M235.667 169.49C235.663 169.442 235.667 169.394 235.675 169.345C237.084 162.189 235.816 154.62 235.816 154.62C235.766 154.313 235.973 154.022 236.281 153.97C236.587 153.919 236.879 154.126 236.93 154.434C236.93 154.434 237.259 156.404 237.401 159.3L239.332 159.838C239.631 159.923 239.807 160.233 239.723 160.533C239.639 160.833 239.327 161.008 239.027 160.923L237.448 160.482C237.493 162.18 237.465 164.112 237.277 166.109C236.907 166.442 236.512 166.776 236.089 167.11C236.089 167.11 235.935 168.113 235.788 169.068C235.766 169.215 235.725 169.356 235.667 169.49Z" fill="#1B3C87"/>
<path fill-rule="evenodd" clip-rule="evenodd" d="M171.825 120.974C185.389 109.374 204.738 95.5141 218.833 96.4864C222.677 96.7515 233.629 98.2393 244.21 105.947C251.845 111.507 258.37 117.913 264.702 124.445C267.8 127.643 269.181 132.127 268.416 136.51C267.653 140.894 264.836 144.648 260.837 146.613C257.996 148.011 254.755 149.378 251.105 150.587L237.764 132.399L241.176 130.348L231.857 122.52C231.857 122.52 229.86 132.32 218.506 134.468C213.616 135.394 204.389 135.683 198.694 127.019C198.694 127.019 192.88 131.631 185.725 137.581L171.825 120.974Z" fill="#1B3C87"/>
<path fill-rule="evenodd" clip-rule="evenodd" d="M156.716 158.336L158.365 156.042C158.545 155.788 158.9 155.731 159.152 155.912C159.405 156.094 159.463 156.447 159.282 156.699C159.282 156.699 158.504 157.733 158.569 157.636C158.569 157.636 157.692 158.428 156.716 158.336ZM153.445 155.811L155.144 153.448C155.325 153.195 155.679 153.138 155.932 153.318C156.184 153.5 156.242 153.852 156.062 154.106L155.336 155.115C155.27 155.174 154.413 155.918 153.445 155.811ZM149.953 153.421L151.825 150.814C152.007 150.562 152.36 150.502 152.613 150.684C152.867 150.866 152.925 151.218 152.743 151.471L151.976 152.539C151.863 152.646 150.939 153.496 149.953 153.421Z" fill="#1B3C87"/>
<path d="M216.971 94.0199C221.631 94.0199 225.408 90.2477 225.408 85.5944C225.408 80.9412 221.631 77.1689 216.971 77.1689C212.311 77.1689 208.534 80.9412 208.534 85.5944C208.534 90.2477 212.311 94.0199 216.971 94.0199Z" fill="#3873F9"/>
<path fill-rule="evenodd" clip-rule="evenodd" d="M212.781 78.2805C214.014 77.5734 215.445 77.1689 216.969 77.1689C221.626 77.1689 225.407 80.9443 225.407 85.5944C225.407 88.7151 223.704 91.4418 221.176 92.8977L218.488 88.2157C219.04 88.3854 219.678 88.3287 220.242 88.0083C221.279 87.4186 221.674 86.1575 221.125 85.1939C220.576 84.2304 219.288 83.9267 218.251 84.5165C217.684 84.8392 217.307 85.363 217.174 85.9292L212.781 78.2805Z" fill="black"/>
<path fill-rule="evenodd" clip-rule="evenodd" d="M241.01 130.252L241.041 130.234C241.041 130.234 243.983 132.732 245.713 134.201C245.815 134.287 245.839 134.432 245.771 134.546C245.703 134.66 245.562 134.709 245.439 134.66L238.529 131.982L241.176 130.391L241.01 130.252ZM197.874 127.717L204.526 122.07C204.7 121.922 204.954 121.913 205.139 122.049C205.322 122.184 205.39 122.428 205.3 122.639L201.851 130.732C200.722 129.738 199.658 128.528 198.694 127.063C198.694 127.063 198.403 127.293 197.874 127.717ZM231.874 122.578C232.41 120.385 232.965 116.806 232.754 112.369C232.744 112.178 232.871 112.007 233.056 111.96C233.241 111.912 233.434 112 233.519 112.172C234.721 114.635 236.607 119.685 235.73 125.819L231.874 122.578Z" fill="#030A80"/>
<path fill-rule="evenodd" clip-rule="evenodd" d="M171.225 242.626C171.225 242.626 173.261 238.256 177.427 237.485C179.949 210.407 184.861 183.993 193.232 156.878C196.546 146.164 207.358 139.618 218.404 141.639C221.591 142.221 224.597 143.496 226.958 145.846C228.005 146.891 235.527 156.1 232.688 170.487C231.787 175.044 229.95 180.406 228.673 183.96C228.673 183.96 250.927 210.535 253.884 214.067C254.077 214.297 254.102 214.625 253.949 214.884C251.823 218.44 237.285 242.769 237.285 242.769C237.285 242.769 234.732 240.311 235.686 235.228L217.094 214.866C217.094 214.866 207.648 237.639 205.944 241.743C205.786 242.125 205.415 242.374 205.002 242.377C200.163 242.414 171.225 242.626 171.225 242.626Z" fill="url(#paint0_linear)"/>
<path fill-rule="evenodd" clip-rule="evenodd" d="M177.652 235.177L208.28 236.152L207.819 237.265L177.543 236.301C177.578 235.926 177.615 235.55 177.652 235.177ZM249.609 209.002L235.152 234.682L234.352 233.805L248.835 208.076L249.609 209.002ZM228.982 183.134C228.876 183.431 228.773 183.72 228.673 183.999L229.7 185.225L218.089 215.993L217.094 214.903L215.958 217.643L228.982 183.134ZM223.064 143.153C223.488 143.357 223.905 143.581 224.31 143.825C224.462 144.485 224.785 145.23 225.399 145.998C226.378 147.221 233.818 153.16 232.537 167.78C232.461 168.651 232.571 169.336 232.812 169.858C232.773 170.077 232.732 170.302 232.686 170.526C232.633 170.802 232.575 171.081 232.513 171.363C232.431 171.281 232.351 171.196 232.274 171.103C231.665 170.373 231.272 169.27 231.412 167.682C232.647 153.595 225.461 147.881 224.519 146.703C223.48 145.406 223.127 144.156 223.064 143.153Z" fill="#1B3C87"/>
<path fill-rule="evenodd" clip-rule="evenodd" d="M115.781 181.171C109.364 207.733 92.7487 237.858 92.7487 237.858C95.8337 237.558 99.2593 242.775 99.2593 242.775C99.2593 242.775 68.1077 242.775 59.1236 242.775C58.593 242.775 58.0979 242.508 57.8059 242.066C57.514 241.623 57.4643 241.064 57.6736 240.578C68.8283 214.338 77.2351 181.086 78.3135 176.017C85.7261 141.18 98.5673 140.847 104.11 141.931C105.685 142.238 107.109 142.689 108.385 143.269C121.66 146.125 142.122 155.352 153.332 163.745C156.85 166.399 158.53 170.835 157.646 175.149C155.729 184.577 151.765 193.269 147.147 202.87C151.709 205.254 152.869 208.202 152.869 208.202C152.869 208.202 129.304 206.369 123.707 205.935C123.411 205.911 123.139 205.76 122.962 205.521C122.786 205.282 122.722 204.978 122.789 204.688C123.767 200.385 127.145 185.529 127.145 185.529C123.088 184.444 119.247 183.066 115.781 181.171Z" fill="url(#paint1_linear)"/>
<path fill-rule="evenodd" clip-rule="evenodd" d="M62.3699 228.794L96.4708 230.761C96.2307 231.24 95.9991 231.697 95.7772 232.133L61.8518 230.176C62.0251 229.717 62.1975 229.256 62.3699 228.794ZM149.028 198.97L124.127 198.852L124.448 197.444L149.684 197.564C149.468 198.03 149.249 198.499 149.028 198.97ZM103.305 141.837C103.589 141.877 103.858 141.923 104.113 141.974C105.688 142.281 107.111 142.732 108.387 143.313C108.932 143.43 109.488 143.558 110.055 143.696C111.392 144.74 112.786 146.112 114.069 147.907C118.188 153.675 121.191 163.899 117 181.849C116.589 181.644 116.184 181.432 115.783 181.214C115.5 182.388 115.196 183.569 114.876 184.751C114.862 184.658 114.866 184.561 114.891 184.465C119.979 165.291 117.122 154.609 112.92 148.726C108.83 142.999 103.518 141.916 103.518 141.916C103.441 141.901 103.37 141.874 103.305 141.837Z" fill="#9089FF"/>
<path fill-rule="evenodd" clip-rule="evenodd" d="M125.586 185.082V185.075C125.586 185.075 130.069 186.384 134.526 186.948C134.763 186.97 134.951 187.162 134.968 187.4C134.986 187.638 134.831 187.855 134.598 187.913C131.805 188.623 127.742 189.655 126.115 190.068L127.15 185.519C126.625 185.378 126.104 185.233 125.586 185.082Z" fill="#8ABBB8"/>
<path fill-rule="evenodd" clip-rule="evenodd" d="M80.5145 148.491C80.5145 148.491 81.0166 149.769 81.8697 150.575C82.3523 151.032 83.3041 151.236 84.1559 150.667C85.7685 149.589 86.9635 146.89 86.6938 143.971C86.6239 143.216 84.5489 137.086 79.1816 133.739L84.1559 130.891C84.1559 130.891 95.4546 143.729 111.36 132.691C111.36 132.691 125.948 143.974 147.67 151.963L154.469 142.303C154.469 142.303 162.861 140.71 164.401 138.289C164.634 137.924 164.905 136.955 163.125 136.815C162.321 136.752 156.146 135.925 145.219 129.982C142.221 128.35 132.347 123.345 119.184 110.292C116.415 107.546 98.8348 89.8697 71.7369 110.292C66.9817 113.876 48.2382 128.384 39.6017 142.075C36.0202 147.768 36.6874 155.148 41.2319 160.108C41.2314 160.108 41.2314 160.108 41.2314 160.108C45.3889 164.646 52.1768 165.621 57.4457 162.436C66.9482 156.692 80.5145 148.491 80.5145 148.491Z" fill="#ACA7FF"/>
<path fill-rule="evenodd" clip-rule="evenodd" d="M80.3709 148.6L82.5434 147.151C82.8735 146.946 83.3093 147.046 83.516 147.375C83.7226 147.705 83.6224 148.139 83.2923 148.346L81.137 149.694C80.7375 149.078 80.5156 148.513 80.5156 148.513L80.3709 148.6ZM154.415 142.401L154.369 142.469C154.312 142.478 154.283 142.485 154.283 142.485L153.22 143.995C152.022 144.16 151.024 144.289 151.024 144.289C150.637 144.339 150.283 144.065 150.234 143.679C150.184 143.294 150.458 142.941 150.843 142.891C150.843 142.891 152.729 142.649 154.415 142.401Z" fill="#8ABBB8"/>
<path fill-rule="evenodd" clip-rule="evenodd" d="M75.589 151.446L57.4468 162.428C52.1788 165.617 45.3885 164.645 41.2302 160.106C41.2302 160.106 41.23 160.106 41.2307 160.106C36.6879 155.146 36.0206 147.769 39.6004 142.079C48.2357 128.388 66.9824 113.876 71.7383 110.292C98.8361 89.8697 116.416 107.546 119.185 110.292C132.349 123.345 142.223 128.35 145.22 129.982C146.758 130.818 148.201 131.553 149.548 132.199L138.867 148.401C122.098 140.996 111.362 132.691 111.362 132.691C95.4559 143.729 84.1572 130.891 84.1572 130.891L79.171 133.767C73.1849 129.42 65.5508 134.57 65.5508 134.57L75.589 151.446Z" fill="#7981EE"/>
<path fill-rule="evenodd" clip-rule="evenodd" d="M65.6669 134.458C65.5877 134.509 65.5464 134.536 65.5464 134.536L66.2628 135.741C60.2039 139.171 54.1288 142.862 48.0104 146.65C47.6795 146.854 47.2442 146.752 47.039 146.421C46.8338 146.092 46.936 145.656 47.2669 145.452C53.4347 141.633 59.559 137.914 65.6669 134.458ZM111.033 132.879C112.145 131.815 116.04 127.595 117.293 119.677C117.319 119.507 117.463 119.379 117.636 119.373C117.809 119.366 117.962 119.483 118.001 119.651C118.352 121.679 118.65 125.153 117.746 129.389C117.328 131.34 116.656 133.454 115.618 135.66C112.86 133.819 111.357 132.656 111.357 132.656C111.25 132.731 111.141 132.805 111.033 132.879ZM80.3507 133.049C79.0808 130.084 79.2209 127.405 79.5137 125.796C79.56 125.548 79.7583 125.355 80.0087 125.315C80.2594 125.275 80.5077 125.397 80.629 125.62C82.0366 128.273 83.3854 129.997 84.1408 130.863L80.3507 133.049Z" fill="#584EFF"/>
<path fill-rule="evenodd" clip-rule="evenodd" d="M168.46 146.349C167.866 145.635 167.792 144.588 168.347 143.787C169.013 142.823 170.338 142.581 171.303 143.248L174.572 145.502C175.535 146.167 175.778 147.491 175.111 148.455C174.504 149.333 173.349 149.61 172.419 149.149C172.936 149.847 172.978 150.822 172.458 151.575C171.862 152.437 170.732 152.712 169.819 152.262C170.328 152.947 170.372 153.908 169.858 154.65C169.274 155.495 168.166 155.766 167.269 155.327C167.772 156.002 167.815 156.949 167.311 157.678C166.677 158.594 165.419 158.824 164.501 158.191L161.884 156.384C160.968 155.752 160.736 154.495 161.37 153.58C161.913 152.796 162.914 152.515 163.766 152.847C163.19 152.158 163.12 151.143 163.655 150.37C164.206 149.572 165.225 149.286 166.092 149.626C165.507 148.924 165.436 147.892 165.98 147.106C166.542 146.294 167.578 146.004 168.46 146.349Z" fill="#ABD1CE"/>
<path fill-rule="evenodd" clip-rule="evenodd" d="M163.327 151.177L169.083 155.33C168.524 155.605 167.854 155.619 167.273 155.334C167.311 155.385 163.739 152.843 163.77 152.854C163.379 152.386 163.221 151.768 163.327 151.177ZM165.636 147.995C165.647 148.002 165.657 148.009 165.667 148.016L171.547 152.258C171.565 152.271 171.582 152.285 171.598 152.3C171.043 152.548 170.39 152.548 169.823 152.269C169.882 152.35 166.025 149.605 166.096 149.633C165.715 149.175 165.551 148.576 165.636 147.995ZM168.002 144.657C168.028 144.669 168.052 144.685 168.076 144.702L173.956 148.944C174.056 149.015 174.125 149.114 174.161 149.223C173.61 149.444 172.977 149.431 172.423 149.156C172.457 149.203 168.447 146.349 168.464 146.356C168.069 145.88 167.903 145.257 168.002 144.657Z" fill="#8ABBB8"/>
<path fill-rule="evenodd" clip-rule="evenodd" d="M232.189 215.835C232.189 214.939 231.462 214.213 230.566 214.213C223.716 214.213 197.215 214.213 190.367 214.213C189.471 214.213 188.744 214.939 188.744 215.835C188.744 222.02 188.744 243.794 188.744 243.794H232.189V215.835Z" fill="black"/>
<path fill-rule="evenodd" clip-rule="evenodd" d="M202.392 214.184V210.281C202.392 209.545 202.99 208.949 203.727 208.949H217.209C217.946 208.949 218.543 209.545 218.543 210.281V214.184H215.876V211.613H205.061V214.184H202.392Z" fill="black"/>
<path fill-rule="evenodd" clip-rule="evenodd" d="M231.789 214.776C232.038 215.061 232.189 215.433 232.189 215.84V216.217L212.264 230.11C211.185 230.863 209.748 230.864 208.667 230.113L188.744 216.263V215.84C188.744 215.447 188.884 215.086 189.116 214.806L209.474 228.956C210.07 229.37 210.861 229.369 211.455 228.955L231.789 214.776Z" fill="white"/>
<defs>
<linearGradient id="paint0_linear" x1="212.715" y1="191.996" x2="161.716" y2="72.8205" gradientUnits="userSpaceOnUse">
<stop stop-color="#2F5DC6"/>
<stop offset="1" stop-color="#00011B"/>
</linearGradient>
<linearGradient id="paint1_linear" x1="115.957" y1="214.988" x2="191.823" y2="156.371" gradientUnits="userSpaceOnUse">
<stop stop-color="#8E95F2"/>
<stop offset="0.52" stop-color="#ABC1FD"/>
<stop offset="1" stop-color="#CED0F2"/>
</linearGradient>
</defs>
</svg>
