<svg width="478" height="364" viewBox="0 0 478 364" fill="none" xmlns="http://www.w3.org/2000/svg">
<g clip-path="url(#clip0)">
<path d="M460.081 68.1206C475.414 68.1206 487.843 55.6979 487.843 40.3736C487.843 25.0494 475.414 12.6267 460.081 12.6267C444.749 12.6267 432.32 25.0494 432.32 40.3736C432.32 55.6979 444.749 68.1206 460.081 68.1206Z" fill="white"/>
<path d="M356.038 113.472L334.286 70.787L356.104 108.142L356.302 92.8637L341.355 62.0074L356.357 88.824L356.713 61.3469L340.463 36.6517L356.766 57.0259L357.954 6.86798L357.96 6.65967L357.96 6.87149L357.773 70.5128L375.713 44.7503L357.824 75.9092L358.532 106.628L358.606 105.816L379.292 78.6375L358.581 108.691L358.671 112.533L358.706 112.594L358.68 112.908L359.618 153.566C358.264 153.622 356.897 153.645 355.516 153.634L355.556 150.471L336.683 119.338L355.595 147.447L356.038 113.472Z" fill="#3F3D56"/>
<path d="M254.695 137.861L232.944 95.1758L254.762 132.531L254.96 117.252L240.013 86.3961L255.015 113.213L255.371 85.7356L239.121 61.0404L255.424 81.4146L256.612 31.2567L256.618 31.0483L256.618 31.2602L256.431 94.9015L274.37 69.139L256.482 100.298L257.19 131.017L257.264 130.205L277.95 103.026L257.239 133.08L257.329 136.922L257.364 136.983L257.338 137.296L258.276 177.954C256.922 178.011 255.555 178.034 254.174 178.023L254.214 174.86L235.34 143.727L254.252 171.836L254.695 137.861Z" fill="#CBCBCB"/>
<path d="M443.254 106.813L421.503 64.1274L443.321 101.483L443.519 86.204L428.571 55.3477L443.574 82.1644L443.93 54.6872L427.68 29.9921L443.983 50.3662L445.171 0.208315L445.177 0L445.177 0.211818L444.99 63.8531L462.929 38.0906L445.041 69.2495L445.749 99.9682L445.823 99.1562L466.509 71.9778L445.798 102.032L445.888 105.874L445.923 105.934L445.897 106.248L446.835 146.906C445.481 146.962 444.114 146.985 442.733 146.975L442.773 143.812L423.899 112.679L442.811 140.788L443.254 106.813Z" fill="#3F3D56"/>
<path d="M68.8154 253.494C81.4855 244.159 94.7724 235.691 108.585 228.148C147.218 206.841 194.726 188.623 248.737 174.51C252.449 173.537 256.191 172.586 259.965 171.656C267.979 169.674 276.126 167.786 284.405 165.994C286.451 165.553 288.502 165.114 290.558 164.676C302.081 162.255 313.834 160.019 325.816 157.97C326.057 157.926 326.297 157.888 326.543 157.849C329.356 157.363 332.182 156.893 335.02 156.439C391.733 147.229 453.193 142.162 517.403 142.085C517.934 142.08 518.47 142.08 519 142.08V364H0C0 323.765 25.0367 286.033 68.8154 253.494Z" fill="#685BFF"/>
<path d="M171.937 278.807C194.054 262.37 222.372 247.65 255.53 235.237C259.21 233.854 262.951 232.504 266.752 231.187C267.282 231.001 267.818 230.815 268.354 230.629C273.194 228.968 278.127 227.35 283.153 225.776C291.646 223.123 300.38 220.616 309.355 218.254C315.779 216.558 322.316 214.942 328.966 213.406C331.103 212.907 333.248 212.422 335.403 211.952C340.301 210.862 345.258 209.82 350.273 208.825C401.544 198.615 458.716 192.914 519 192.914V364H118.883C118.883 332.98 138.189 303.89 171.937 278.807Z" fill="white"/>
<path d="M161.448 355.123L162.438 355.593C165.798 348.639 169.902 342.069 174.677 335.998L173.813 335.325C168.991 341.461 164.845 348.099 161.448 355.123ZM189.618 318.162L190.368 318.96C195.734 313.973 201.376 309.29 207.266 304.934C207.595 304.688 207.928 304.442 208.262 304.196L207.611 303.316C207.277 303.562 206.944 303.808 206.61 304.06C200.688 308.441 195.015 313.149 189.618 318.162ZM227.042 290.411L227.605 291.346C233.982 287.498 240.824 283.715 247.933 280.102L247.436 279.124C240.304 282.753 233.441 286.552 227.042 290.411ZM268.535 269.214L268.967 270.214C275.874 267.213 283.131 264.284 290.525 261.512L290.142 260.49C282.727 263.267 275.458 266.202 268.535 269.214ZM312.144 252.81L312.477 253.849C314.413 253.22 316.355 252.603 318.318 251.985C323.667 250.318 329.19 248.678 334.741 247.126L334.446 246.071C328.884 247.629 323.35 249.268 317.99 250.946C316.029 251.561 314.08 252.182 312.144 252.81H312.144ZM363.842 238.566C361.55 239.091 359.242 239.637 356.989 240.184L357.246 241.244C359.499 240.703 361.802 240.157 364.093 239.626C366.264 239.124 368.424 238.632 370.519 238.178C373.642 237.484 376.814 236.8 379.942 236.155L379.723 235.084C376.584 235.735 373.412 236.412 370.284 237.107C368.189 237.566 366.018 238.058 363.842 238.566L363.842 238.566ZM402.605 230.722L402.797 231.799C410.327 230.482 418.06 229.246 425.772 228.131L425.613 227.049C417.891 228.17 410.152 229.405 402.605 230.722ZM448.719 224.037L448.845 225.125C456.469 224.24 464.256 223.442 471.995 222.747L471.896 221.66C464.152 222.354 456.354 223.152 448.719 224.037H448.719ZM495.134 219.894L495.199 220.987C502.878 220.501 510.698 220.107 518.442 219.818L518.404 218.724C510.644 219.02 502.818 219.413 495.134 219.894H495.134Z" fill="#6C63FF"/>
<path d="M276.169 304.393C324.493 268.476 415.145 244.294 519 244.294V364H239.046C239.046 342.3 252.554 321.944 276.169 304.393Z" fill="#685BFF"/>
<path opacity="0.2" d="M68.8154 253.494L171.937 278.807L276.169 304.393L519 364H0C0 323.765 25.0367 286.033 68.8154 253.494Z" fill="black"/>
<path d="M131.499 230.578L127.995 230.577L126.327 217.069H131.499L131.499 230.578Z" fill="#FFB7B7"/>
<path d="M132.393 233.973L121.094 233.972V233.829C121.094 232.664 121.557 231.546 122.382 230.721C123.207 229.897 124.325 229.434 125.491 229.434H125.492L132.393 229.434L132.393 233.973Z" fill="#2F2E41"/>
<path d="M162.456 227.998L159.071 228.906L153.957 216.291L158.952 214.951L162.456 227.998Z" fill="#FFB7B7"/>
<path d="M164.199 231.045L153.287 233.972L153.25 233.835C152.947 232.709 153.105 231.509 153.687 230.499C154.27 229.489 155.23 228.752 156.357 228.45L156.357 228.45L163.022 226.662L164.199 231.045Z" fill="#2F2E41"/>
<path d="M116.907 167.928C114.882 170.531 121.247 192.219 121.536 192.508C121.826 192.798 121.247 194.533 121.247 194.533C121.246 194.846 121.347 195.151 121.536 195.4C121.825 195.689 121.536 195.979 121.536 196.557C121.536 197.135 121.536 197.135 122.115 198.292C122.461 199.113 122.562 200.017 122.404 200.895L126.166 222.872C125.887 222.992 125.654 223.196 125.498 223.455C125.342 223.715 125.272 224.017 125.297 224.318C125.297 225.475 131.084 226.053 133.11 225.764C135.135 225.475 131.663 199.738 131.663 199.738C131.663 199.738 131.663 193.087 132.242 192.508C132.82 191.93 132.242 191.93 132.242 190.773C132.242 189.617 131.373 187.882 131.663 187.014C131.952 186.146 132.242 173.712 132.242 173.712C132.242 173.712 138.896 186.146 138.896 187.882C138.896 189.617 140.922 192.508 140.922 192.508L154.231 219.645C154.231 219.645 153.363 221.38 154.231 222.826C155.099 224.272 158.86 223.115 162.622 221.669C166.383 220.223 161.175 217.91 161.175 217.91L153.074 194.822C153.093 193.947 153.189 193.076 153.363 192.219C153.652 190.773 152.495 191.352 151.627 190.773C150.759 190.195 151.048 190.195 151.627 189.038C152.205 187.882 150.759 185.279 150.759 185.279L146.998 163.88C146.998 163.88 118.932 165.326 116.907 167.928Z" fill="#2F2E41"/>
<path d="M126.229 115.801C130.384 115.801 133.752 112.435 133.752 108.282C133.752 104.13 130.384 100.764 126.229 100.764C122.075 100.764 118.707 104.13 118.707 108.282C118.707 112.435 122.075 115.801 126.229 115.801Z" fill="#FFB8B8"/>
<path d="M123.431 118.093C123.431 118.093 113.169 122.793 112.301 125.106C111.433 127.42 117.775 148.842 117.775 148.842C117.775 148.842 118.16 157.85 117.002 161.32C115.845 164.79 116.039 165.326 116.039 165.326V167.928C116.039 169.374 125.298 168.217 129.927 166.771C134.556 165.326 146.419 165.615 147.576 165.326C148.734 165.036 145.641 161.32 145.641 161.32C149.692 161.031 145.641 152.558 145.641 152.558C145.641 152.558 145.227 125.13 144.069 121.37C142.912 117.611 132.198 116.925 132.198 116.925L126.744 118.768L123.431 118.093Z" fill="white"/>
<path d="M135.342 106.304C135.73 104.422 135.362 102.464 134.318 100.851C133.698 99.905 132.888 99.0979 131.939 98.4817C130.989 97.8655 129.922 97.4537 128.805 97.2724C126.595 96.9567 124.341 97.3383 122.358 98.3638C121.157 98.9525 119.858 99.7421 118.601 99.311L118.97 99.9732L118.035 99.9841L118.377 100.759L117.484 100.886L118.175 101.3C117.252 102.943 116.63 104.737 116.338 106.599C116.162 107.334 116.22 108.107 116.503 108.808C116.841 109.468 117.713 109.854 118.271 109.399C118.621 109.113 118.74 108.612 118.985 108.22C119.231 107.828 119.795 107.555 120.088 107.907L120.842 106.399L121.447 106.891C122.901 105.612 124.58 104.612 126.399 103.943C126.62 103.828 126.864 103.764 127.113 103.757C127.362 103.751 127.61 103.801 127.837 103.904C128.511 104.336 128.413 105.441 128.88 106.119C129.64 107.222 131.51 106.764 132.229 107.898C132.441 108.349 132.583 108.829 132.653 109.322C132.782 109.803 133.092 110.31 133.556 110.341C134.536 109.331 134.91 107.93 135.342 106.304Z" fill="#2F2E41"/>
<path d="M153.5 166.011C153.115 165.751 152.793 165.41 152.555 165.012C152.317 164.614 152.169 164.168 152.122 163.707C152.074 163.246 152.129 162.78 152.281 162.342C152.434 161.904 152.681 161.504 153.004 161.172L147.945 151.097L153.765 151.786L157.677 161.248C158.2 161.828 158.491 162.58 158.496 163.36C158.501 164.141 158.22 164.896 157.705 165.484C157.19 166.071 156.477 166.449 155.702 166.546C154.927 166.643 154.144 166.452 153.5 166.011L153.5 166.011Z" fill="#FFB8B8"/>
<path d="M149.332 158.78L143.435 139.7L136.704 125.113C136.42 124.497 136.28 123.825 136.293 123.147C136.307 122.469 136.475 121.803 136.784 121.199C137.093 120.596 137.536 120.07 138.078 119.663C138.62 119.255 139.248 118.975 139.914 118.846C140.969 118.645 142.062 118.829 142.994 119.363C143.926 119.897 144.636 120.747 144.996 121.759L157.27 156.774C157.337 156.964 157.363 157.167 157.345 157.367C157.327 157.568 157.267 157.763 157.168 157.939C157.07 158.114 156.934 158.267 156.772 158.387C156.61 158.506 156.424 158.59 156.226 158.632L150.985 159.749C150.886 159.77 150.785 159.781 150.683 159.781C150.38 159.781 150.086 159.683 149.842 159.503C149.599 159.323 149.42 159.069 149.332 158.78Z" fill="white"/>
<path d="M112.893 172.6C113.211 172.262 113.451 171.859 113.597 171.419C113.742 170.978 113.789 170.512 113.735 170.051C113.68 169.591 113.525 169.148 113.281 168.753C113.037 168.359 112.709 168.023 112.32 167.77L115.058 156.835L109.529 158.776L107.777 168.862C107.393 169.543 107.273 170.34 107.438 171.103C107.604 171.866 108.043 172.542 108.674 173.002C109.305 173.463 110.082 173.676 110.86 173.602C111.638 173.528 112.361 173.171 112.893 172.6V172.6Z" fill="#FFB8B8"/>
<path d="M114.282 165.906C114.182 165.928 114.081 165.939 113.98 165.94L108.621 165.993C108.419 165.995 108.22 165.954 108.035 165.873C107.851 165.792 107.685 165.672 107.551 165.522C107.416 165.372 107.315 165.195 107.254 165.003C107.193 164.811 107.173 164.608 107.197 164.408L111.533 127.56C111.663 126.494 112.171 125.509 112.964 124.785C113.757 124.06 114.783 123.643 115.857 123.608C116.535 123.59 117.209 123.726 117.827 124.005C118.445 124.285 118.991 124.701 119.424 125.223C119.858 125.745 120.167 126.358 120.329 127.017C120.49 127.675 120.5 128.362 120.357 129.025L116.972 144.728L115.382 164.634C115.359 164.936 115.24 165.222 115.042 165.451C114.844 165.68 114.577 165.84 114.282 165.906Z" fill="white"/>
</g>
<defs>
<clipPath id="clip0">
<rect width="519" height="364" fill="white"/>
</clipPath>
</defs>
</svg>
