<svg width="325" height="318" viewBox="0 0 325 318" fill="none" xmlns="http://www.w3.org/2000/svg">
<g clip-path="url(#clip0)">
<path d="M188.657 103.662L189.325 104.203L188.784 104.871L189.055 105.091L189.596 104.422L190.264 104.964L190.484 104.692L189.816 104.151L190.357 103.483L190.086 103.263L189.545 103.932L188.876 103.391L188.657 103.662Z" fill="white"/>
<path d="M271.055 157.024L271.723 157.565L271.182 158.233L271.453 158.453L271.994 157.784L272.662 158.325L272.882 158.054L272.214 157.513L272.755 156.845L272.484 156.625L271.943 157.294L271.274 156.752L271.055 157.024Z" fill="white"/>
<g opacity="0.7">
<path opacity="0.7" d="M230.553 43.3437C223.974 51.4129 219.454 60.9591 217.38 71.1615C216.423 75.9669 216.347 79.3684 216.55 81.6655C216.618 82.5538 216.964 83.3981 217.538 84.0796C218.112 84.761 218.885 85.2452 219.749 85.4641C220.396 85.6929 221.087 85.7679 221.768 85.6831C224.862 85.3018 228.249 84.2281 231.55 82.8445C241.429 78.6795 250.115 72.12 256.825 63.758L260.872 58.7608L264.077 61.3566L217.02 119.467C207.16 131.644 200.157 145.863 196.876 160.845C195.318 167.943 195.089 172.953 195.301 176.315C195.334 177.154 195.545 177.976 195.922 178.727C196.298 179.477 196.83 180.138 197.482 180.667C198.135 181.195 198.893 181.578 199.705 181.79C200.517 182.002 201.365 182.038 202.193 181.896C206.709 181.23 211.676 179.532 216.533 177.388C230.962 171.049 243.82 161 253.968 148.468L300.557 90.9347L303.327 93.1776L299.084 98.417C292.306 106.715 287.701 116.569 285.683 127.092C285.025 130.616 284.679 134.153 284.94 137.25C285.008 138.159 285.365 139.023 285.96 139.714C286.555 140.405 287.355 140.888 288.244 141.091L288.177 140.935C288.729 141.083 289.304 141.124 289.87 141.055C292.159 140.771 295.468 139.992 299.969 138.057C309.517 133.907 317.915 127.501 324.44 119.388L394.761 32.5498L384.869 24.5401L391.74 18.2861L409.028 -3.06195L400.938 -9.613L383.651 11.7351L378.95 19.7516L369.2 11.8569L305.154 90.9477L302.384 88.7048L366.154 9.95613L358.254 3.55932L365.447 -3.00607L382.734 -24.3542L374.644 -30.9052L357.357 -9.55712L352.423 -1.14691L341.77 -9.77359L348.977 -16.3434L366.264 -37.6915L358.174 -44.2426L340.887 -22.8945L335.952 -14.4843L329.644 -19.5923L265.891 59.137L262.685 56.5411L326.828 -22.6692L324.23 -24.7736L324.133 -24.6541L315.539 -31.6129L322.392 -37.8709L339.68 -59.219L331.59 -65.77L314.302 -44.4219L309.601 -36.4054L300.863 -43.4819L230.553 43.3437Z" fill="url(#paint0_linear)"/>
</g>
<path d="M254.208 56.4483L308.913 100.748L310.685 98.5588L255.98 54.2596L254.208 56.4483Z" fill="#535461"/>
<path d="M217.761 84.1692C217.792 84.7226 217.938 85.2633 218.19 85.7568C218.442 86.2502 218.795 86.6853 219.226 87.034C219.656 87.3828 220.155 87.6374 220.69 87.7815C221.225 87.9257 221.785 87.9561 222.332 87.8709C225.299 87.4616 228.555 86.3839 231.743 85.0152C241.281 80.8525 249.667 74.4364 256.179 66.3181L324.366 -17.8862L300.155 -37.4922L231.68 47.0672C225.281 54.9067 220.831 64.1505 218.693 74.0414C217.719 78.6832 217.587 81.9755 217.761 84.1692Z" fill="#E0E0E0"/>
<path d="M287.19 140.392C286.642 140.477 286.083 140.447 285.548 140.303C285.013 140.159 284.514 139.904 284.083 139.555C283.653 139.206 283.3 138.771 283.048 138.278C282.795 137.784 282.649 137.244 282.619 136.69C282.399 133.701 282.779 130.294 283.452 126.889C285.543 116.694 290.075 107.158 296.66 99.0999L364.848 14.8956L389.059 34.5017L320.584 119.061C314.246 126.95 306.13 133.225 296.9 137.372C292.565 139.293 289.372 140.107 287.19 140.392Z" fill="#E0E0E0"/>
<path d="M321.899 117.154L316.176 112.472L321.912 105.389L327.658 110.042L321.899 117.154Z" fill="#535461"/>
<path d="M303.572 102.313L297.85 97.6312L303.585 90.5486L309.331 95.2018L303.572 102.313Z" fill="#535461"/>
<path d="M257.344 64.8789L251.625 60.1993L257.36 53.1166L263.103 57.7672L257.344 64.8789Z" fill="#535461"/>
<path d="M239.018 50.0381L233.299 45.3585L239.034 38.2758L244.777 42.9264L239.018 50.0381Z" fill="#535461"/>
<g opacity="0.1">
<path opacity="0.1" d="M283.363 126.999C282.691 130.404 282.31 133.811 282.53 136.8C282.576 137.664 282.904 138.489 283.464 139.148C284.024 139.807 284.786 140.265 285.631 140.449C285.424 139.996 285.3 139.511 285.264 139.014C285.048 136.027 285.425 132.618 286.101 129.215C288.189 119.02 292.722 109.484 299.309 101.426L367.491 17.2285L364.753 15.0117L296.574 99.2063C289.987 107.265 285.454 116.802 283.363 126.999V126.999Z" fill="black"/>
</g>
<g opacity="0.1">
<path opacity="0.1" d="M229.654 83.1204C226.466 84.4892 223.209 85.5668 220.243 85.9761C219.685 86.0567 219.116 86.022 218.572 85.8741C218.954 86.6121 219.558 87.2114 220.3 87.5872C221.041 87.963 221.882 88.0962 222.703 87.9681C225.672 87.5614 228.929 86.4837 232.117 85.115C241.654 80.9506 250.039 74.5348 256.552 66.418L324.745 -17.7928L322.282 -19.7874L254.094 64.4169C247.582 72.5383 239.195 78.9566 229.654 83.1204V83.1204Z" fill="black"/>
</g>
<path d="M195.972 175.843C195.986 176.642 196.176 177.429 196.527 178.148C196.878 178.867 197.382 179.5 198.003 180.004C198.625 180.507 199.349 180.869 200.125 181.062C200.901 181.256 201.71 181.278 202.496 181.126C206.816 180.412 211.603 178.724 216.307 176.612C230.206 170.313 242.65 160.464 252.531 148.261L361.962 13.1255L327.42 -14.8459L217.55 120.832C207.949 132.689 201.05 146.489 197.707 160.94C196.099 167.778 195.809 172.605 195.972 175.843Z" fill="#EEEEEE"/>
<path d="M206.287 159.342L217.212 168.188C219.173 169.776 222.05 169.474 223.638 167.512L224.577 166.354C226.165 164.392 225.862 161.515 223.901 159.927L212.977 151.081C211.016 149.493 208.138 149.795 206.55 151.756L205.612 152.915C204.024 154.876 204.326 157.754 206.287 159.342Z" fill="#535461"/>
<g opacity="0.1">
<path opacity="0.1" d="M221.895 115.803L256.085 143.49L257.159 142.163L222.97 114.477L221.895 115.803Z" fill="black"/>
</g>
<path d="M202.278 18.1485C202.221 20.0518 202.542 21.9475 203.224 23.7255V23.7255C204.009 25.7665 205.252 27.5997 206.859 29.0834C208.465 30.5671 210.391 31.6615 212.488 32.282C214.585 32.9025 216.796 33.0325 218.951 32.6619C221.106 32.2914 223.147 31.4302 224.916 30.145C226.685 28.8598 228.135 27.1849 229.154 25.2499C230.172 23.3149 230.732 21.1716 230.79 18.9857C230.848 16.7998 230.402 14.6299 229.488 12.6437C228.573 10.6574 227.214 8.90809 225.516 7.53092C225.28 7.34009 225.044 7.14927 224.794 6.98949C222.695 5.49818 220.231 4.60331 217.664 4.39994C215.097 4.19657 212.523 4.69228 210.215 5.83444C207.907 6.97659 205.951 8.72254 204.556 10.8868C203.161 13.0511 202.378 15.5529 202.29 18.1265L202.278 18.1485Z" fill="url(#paint1_linear)"/>
<path opacity="0.2" d="M206.053 10.1525C208.211 7.48939 211.301 5.74801 214.697 5.28251C218.092 4.817 221.537 5.66233 224.332 7.64657C224.548 7.82172 224.789 7.97949 225.012 8.15987C226.62 9.46094 227.908 11.1147 228.775 12.9933C229.642 14.8718 230.065 16.9247 230.012 18.9929C229.958 21.0612 229.429 23.0894 228.466 24.9205C227.503 26.7516 226.131 28.3365 224.458 29.5525C222.784 30.7685 220.852 31.583 218.813 31.933C216.774 32.2829 214.682 32.159 212.698 31.5706C210.715 30.9823 208.893 29.9454 207.375 28.5401C205.856 27.1349 204.681 25.3991 203.941 23.4671V23.4671C203.298 21.7805 202.999 19.9824 203.06 18.1785V18.1785C203.154 15.248 204.206 12.4289 206.053 10.1525Z" fill="black"/>
<path opacity="0.1" d="M213.726 27.3706C214.456 27.5761 215.201 27.7239 215.955 27.8127C216.435 27.9004 216.928 27.8758 217.397 27.7408C217.632 27.6715 217.841 27.5347 217.998 27.3474C218.155 27.1602 218.254 26.9309 218.282 26.688C218.309 26.1328 217.86 25.6838 217.449 25.3077C217.041 24.882 216.542 24.5546 215.99 24.3505C215.579 24.2582 215.157 24.2358 214.739 24.2841L213.177 24.3715C212.624 24.3941 211.985 24.5233 211.787 25.0256C211.746 25.2289 211.756 25.4392 211.816 25.6376C211.877 25.836 211.986 26.0161 212.134 26.1616C212.788 26.9417 213.707 27.4521 214.715 27.5945" fill="black"/>
<g opacity="0.1">
<path opacity="0.1" d="M226.665 19.0817C226.36 18.8349 225.913 18.8819 225.666 19.1867C225.419 19.4916 225.466 19.9389 225.771 20.1858C226.076 20.4327 226.523 20.3857 226.77 20.0808C227.017 19.7759 226.97 19.3286 226.665 19.0817Z" fill="black"/>
</g>
<g opacity="0.1">
<path opacity="0.1" d="M213.817 12.0299C212.701 11.1261 211.064 11.2982 210.16 12.4143C209.256 13.5304 209.428 15.1678 210.544 16.0716C211.661 16.9754 213.298 16.8032 214.202 15.6872C215.106 14.5711 214.933 12.9336 213.817 12.0299Z" fill="black"/>
</g>
<g opacity="0.1">
<path opacity="0.1" d="M203.041 18.1625C203.475 17.6389 204.05 17.251 204.698 17.045C205.346 16.8389 206.039 16.8234 206.696 17.0002C207.352 17.1771 207.944 17.5389 208.401 18.0425C208.858 18.5461 209.16 19.1704 209.272 19.841C209.384 20.5116 209.301 21.2003 209.033 21.825C208.764 22.4498 208.322 22.9843 207.759 23.3649C207.196 23.7456 206.535 23.9563 205.855 23.972C205.175 23.9878 204.505 23.8078 203.925 23.4537V23.4537C203.28 21.7666 202.98 19.9675 203.041 18.1625Z" fill="black"/>
</g>
<g opacity="0.1">
<path opacity="0.1" d="M212.848 5.66979C214.788 5.11679 216.827 5.00733 218.815 5.34952C220.803 5.6917 222.688 6.47678 224.332 7.64657C224.214 7.79184 224.116 7.95279 223.996 8.10129C223.25 9.0199 222.265 9.71353 221.148 10.1049C220.032 10.4963 218.829 10.5701 217.673 10.318C216.517 10.0659 215.454 9.49784 214.602 8.67715C213.75 7.85646 213.143 6.81534 212.848 5.66979V5.66979Z" fill="black"/>
</g>
</g>
<defs>
<linearGradient id="paint0_linear" x1="70740.7" y1="-193761" x2="-44601.9" y2="-51324.6" gradientUnits="userSpaceOnUse">
<stop stop-color="#808080" stop-opacity="0.25"/>
<stop offset="0.54" stop-color="#808080" stop-opacity="0.12"/>
<stop offset="1" stop-color="#808080" stop-opacity="0.1"/>
</linearGradient>
<linearGradient id="paint1_linear" x1="-9410.02" y1="-22777" x2="-10642.4" y2="-21255.1" gradientUnits="userSpaceOnUse">
<stop stop-color="#808080" stop-opacity="0.25"/>
<stop offset="0.54" stop-color="#808080" stop-opacity="0.12"/>
<stop offset="1" stop-color="#808080" stop-opacity="0.1"/>
</linearGradient>
<clipPath id="clip0">
<rect width="471.544" height="338.22" fill="white" transform="translate(366.57 317.599) rotate(-141)"/>
</clipPath>
</defs>
</svg>
