<svg width="499" height="472" viewBox="0 0 499 472" fill="none" xmlns="http://www.w3.org/2000/svg">
<g clip-path="url(#clip0)">
<path d="M400.551 154.027C426.013 154.027 446.655 131.844 446.655 104.48C446.655 77.116 426.013 54.9331 400.551 54.9331C375.088 54.9331 354.447 77.116 354.447 104.48C354.447 131.844 375.088 154.027 400.551 154.027Z" fill="#F2F2F2"/>
<path d="M258.946 8.21691C261.128 8.21691 262.898 6.31552 262.898 3.97003C262.898 1.62454 261.128 -0.276855 258.946 -0.276855C256.763 -0.276855 254.994 1.62454 254.994 3.97003C254.994 6.31552 256.763 8.21691 258.946 8.21691Z" fill="white"/>
<path d="M400.551 8.21691C402.733 8.21691 404.503 6.31552 404.503 3.97003C404.503 1.62454 402.733 -0.276855 400.551 -0.276855C398.368 -0.276855 396.599 1.62454 396.599 3.97003C396.599 6.31552 398.368 8.21691 400.551 8.21691Z" fill="#F2F2F2"/>
<path d="M298.464 122.883C300.646 122.883 302.415 120.982 302.415 118.636C302.415 116.291 300.646 114.389 298.464 114.389C296.281 114.389 294.512 116.291 294.512 118.636C294.512 120.982 296.281 122.883 298.464 122.883Z" fill="#F2F2F2"/>
<path d="M89.6785 94.5704C91.861 94.5704 93.6302 92.669 93.6302 90.3235C93.6302 87.978 91.861 86.0767 89.6785 86.0767C87.496 86.0767 85.7267 87.978 85.7267 90.3235C85.7267 92.669 87.496 94.5704 89.6785 94.5704Z" fill="#F2F2F2"/>
<path d="M164.103 410.964C238.309 410.964 298.464 346.316 298.464 266.57C298.464 186.823 238.309 122.176 164.103 122.176C89.8984 122.176 29.7433 186.823 29.7433 266.57C29.7433 346.316 89.8984 410.964 164.103 410.964Z" fill="#6C63FF"/>
<path opacity="0.2" d="M158.176 229.055C169.088 229.055 177.935 219.548 177.935 207.821C177.935 196.093 169.088 186.586 158.176 186.586C147.263 186.586 138.417 196.093 138.417 207.821C138.417 219.548 147.263 229.055 158.176 229.055Z" fill="black"/>
<path opacity="0.2" d="M158.176 386.898C177.091 386.898 192.424 370.42 192.424 350.092C192.424 329.764 177.091 313.286 158.176 313.286C139.261 313.286 123.927 329.764 123.927 350.092C123.927 370.42 139.261 386.898 158.176 386.898Z" fill="black"/>
<path opacity="0.2" d="M58.7229 303.375C63.4517 303.375 67.2851 299.255 67.2851 294.173C67.2851 289.091 63.4517 284.972 58.7229 284.972C53.9942 284.972 50.1608 289.091 50.1608 294.173C50.1608 299.255 53.9942 303.375 58.7229 303.375Z" fill="black"/>
<path opacity="0.2" d="M396.54 83.8147C399.054 83.8147 401.092 81.6247 401.092 78.9232C401.092 76.2217 399.054 74.0317 396.54 74.0317C394.027 74.0317 391.989 76.2217 391.989 78.9232C391.989 81.6247 394.027 83.8147 396.54 83.8147Z" fill="black"/>
<path opacity="0.2" d="M203.562 180.784C206.076 180.784 208.114 178.594 208.114 175.893C208.114 173.191 206.076 171.001 203.562 171.001C201.049 171.001 199.011 173.191 199.011 175.893C199.011 178.594 201.049 180.784 203.562 180.784Z" fill="black"/>
<path opacity="0.2" d="M152.248 279.31C155.522 279.31 158.176 276.458 158.176 272.94C158.176 269.421 155.522 266.569 152.248 266.569C148.974 266.569 146.321 269.421 146.321 272.94C146.321 276.458 148.974 279.31 152.248 279.31Z" fill="black"/>
<path opacity="0.2" d="M385.461 122.896C387.975 122.896 390.013 120.706 390.013 118.005C390.013 115.303 387.975 113.113 385.461 113.113C382.947 113.113 380.91 115.303 380.91 118.005C380.91 120.706 382.947 122.896 385.461 122.896Z" fill="black"/>
<path opacity="0.2" d="M262.956 243.224C265.47 243.224 267.508 241.034 267.508 238.332C267.508 235.631 265.47 233.441 262.956 233.441C260.443 233.441 258.405 235.631 258.405 238.332C258.405 241.034 260.443 243.224 262.956 243.224Z" fill="black"/>
<path opacity="0.2" d="M426.249 120.456C429.88 120.456 432.824 117.293 432.824 113.391C432.824 109.489 429.88 106.325 426.249 106.325C422.618 106.325 419.675 109.489 419.675 113.391C419.675 117.293 422.618 120.456 426.249 120.456Z" fill="black"/>
<path opacity="0.2" d="M225.368 295.286C228.999 295.286 231.942 292.123 231.942 288.221C231.942 284.319 228.999 281.155 225.368 281.155C221.737 281.155 218.793 284.319 218.793 288.221C218.793 292.123 221.737 295.286 225.368 295.286Z" fill="black"/>
<path opacity="0.2" d="M81.1163 217.022C85.845 217.022 89.6785 212.903 89.6785 207.821C89.6785 202.739 85.845 198.619 81.1163 198.619C76.3875 198.619 72.5541 202.739 72.5541 207.821C72.5541 212.903 76.3875 217.022 81.1163 217.022Z" fill="black"/>
<path d="M193.214 349.8C179.084 349.78 164.967 348.903 150.929 347.174C108.707 342.021 69.7659 329.844 41.2802 312.888C12.446 295.723 -2.30853 275.625 -0.266039 256.296C1.14898 242.904 13.1934 230.918 36.5551 219.653C36.8738 219.5 37.2359 219.489 37.562 219.623C37.8881 219.757 38.1515 220.024 38.2943 220.366C38.4372 220.708 38.4479 221.098 38.324 221.448C38.2002 221.799 37.9519 222.082 37.6337 222.237C15.1937 233.056 3.65292 244.302 2.35175 256.615C0.436963 274.733 14.7155 293.838 42.557 310.411C70.7468 327.192 109.34 339.249 151.226 344.361C193.113 349.473 233.238 347.023 264.212 337.464C294.803 328.022 312.704 312.844 314.618 294.727C315.913 282.47 309.631 269.474 296.451 257.143C296.188 256.897 296.026 256.548 296.002 256.173C295.978 255.799 296.093 255.429 296.323 255.146C296.552 254.863 296.877 254.689 297.225 254.663C297.574 254.637 297.918 254.761 298.181 255.008C312.045 267.978 318.634 281.823 317.236 295.046C315.193 314.376 296.621 330.406 264.939 340.184C244.312 346.551 219.691 349.8 193.214 349.8Z" fill="white"/>
</g>
<defs>
<clipPath id="clip0">
<rect width="499" height="472" fill="white"/>
</clipPath>
</defs>
</svg>
