<svg width="433" height="291" viewBox="0 0 433 291" fill="none" xmlns="http://www.w3.org/2000/svg">
<g clip-path="url(#clip0)">
<path d="M279.976 65.9696C288.175 65.9696 294.822 59.3445 294.822 51.1719C294.822 42.9994 288.175 36.3742 279.976 36.3742C271.777 36.3742 265.13 42.9994 265.13 51.1719C265.13 59.3445 271.777 65.9696 279.976 65.9696Z" fill="#F2F2F2"/>
<path d="M337.115 154.938L83.048 0L-3.5885e-05 135.299L254.067 290.237L337.115 154.938Z" fill="#F2F2F2"/>
<path d="M314.539 197.854C312.22 192.536 308.647 187.866 301.503 183.935C297.81 181.854 293.844 180.298 289.719 179.311C292.494 178.026 295.047 176.309 297.281 174.224C300.565 171.298 303.055 167.591 304.518 163.45C305.865 159.241 306.416 154.819 306.142 150.409C305.632 142.64 304.101 135.103 300.018 129.692C295.935 124.282 290.183 120.12 282.574 117.207C276.729 114.987 270.744 113.6 261.465 113.091V83.5419L242.908 95.1026V113.137H228.062V94.1778L209.041 83.5419V113.137H168.632L181.622 135.334C185.635 135.339 188.354 135.708 189.741 136.398C191.036 136.95 192.101 137.93 192.756 139.172C193.36 140.328 193.638 143.056 193.638 147.265V227.357C193.638 231.519 193.36 234.201 192.756 235.403C192.153 236.606 191.829 237.669 190.39 238.317C188.952 238.964 188.906 238.918 184.916 238.918H184.87L168.632 261.115H208.994V290.71H228.015V261.115H242.861V290.71H261.419V260.93C273.481 260.328 282.064 258.756 288.976 256.167C297.93 252.837 304.797 247.982 309.714 241.6C314.632 235.219 316.627 225.461 317.044 217.924C317.369 211.218 316.627 202.571 314.539 197.854ZM228.015 138.108H228.02V137.493H240.992C248.289 137.493 272.609 135.07 273.012 154.867C273.421 174.663 240.992 173.854 240.992 173.854H228.02V172.328H228.015V138.108ZM228.015 194.525H242.861C245.877 194.525 256.251 194.983 260.027 195.154C261.567 195.209 263.091 195.48 264.555 195.958C265.088 196.139 265.594 196.342 266.142 196.569C268.43 197.306 270.588 198.395 272.539 199.796C273.811 200.634 274.93 201.682 275.847 202.895C276.244 203.442 276.61 204.012 276.942 204.601C277.82 206.083 278.472 207.686 278.877 209.359C279.319 210.975 279.548 212.642 279.559 214.317C279.559 217.919 278.891 220.902 277.244 223.427C275.012 227.154 271.352 229.794 267.232 231.658C256.58 236.486 242.861 236.143 242.861 236.143H228.015V194.525Z" fill="#3F3D56"/>
<path opacity="0.3" d="M283.994 51.7946C283.853 51.448 283.594 51.162 283.263 50.9868C283.057 50.8663 282.834 50.7759 282.602 50.7184C282.758 50.6433 282.902 50.5436 283.026 50.4232C283.211 50.2516 283.351 50.0366 283.432 49.7979C283.507 49.5531 283.538 49.2967 283.523 49.041C283.522 48.6164 283.403 48.2004 283.18 47.8387C282.931 47.5082 282.591 47.2566 282.202 47.1141C281.824 46.968 281.423 46.8872 281.018 46.8752V45.1603L279.978 45.8313V46.8779H279.146V45.7776L278.079 45.1603V46.8779H275.814L276.542 48.1661C276.697 48.1556 276.852 48.1766 276.997 48.2279C277.071 48.2606 277.13 48.3174 277.167 48.3889C277.211 48.5413 277.228 48.7003 277.216 48.8585V53.5068C277.227 53.6641 277.211 53.8222 277.167 53.9737C277.133 54.0435 277.114 54.1052 277.034 54.1428C276.953 54.1804 276.951 54.1777 276.727 54.1777H276.724L275.814 55.4659H278.077V57.1835H279.143V55.4659H279.975V57.1835H281.016V55.4552C281.542 55.4458 282.064 55.3525 282.561 55.1787C283.022 55.0145 283.425 54.7209 283.723 54.3334C283.983 53.921 284.125 53.446 284.134 52.9593C284.161 52.5657 284.114 52.1705 283.994 51.7946V51.7946ZM279.143 48.3272H279.143V48.2915H279.871C280.28 48.2915 281.643 48.1509 281.666 49.2998C281.689 50.4487 279.871 50.4017 279.871 50.4017H279.143V50.3131H279.143V48.3272ZM279.143 51.6013H279.975C280.144 51.6013 280.726 51.6279 280.938 51.6378C281.024 51.6411 281.11 51.6568 281.191 51.6846C281.221 51.695 281.25 51.7068 281.28 51.72C281.409 51.763 281.53 51.8262 281.639 51.9073C281.711 51.9562 281.773 52.0171 281.825 52.0871C281.903 52.2009 281.961 52.3281 281.994 52.4623C282.019 52.5562 282.032 52.6529 282.033 52.75C282.041 52.935 281.996 53.1185 281.903 53.2787C281.769 53.4915 281.573 53.6582 281.342 53.7564C280.908 53.9333 280.444 54.0218 279.975 54.0167H279.143V51.6013Z" fill="#7981EE"/>
<path d="M370.28 220.02C373.286 220.02 375.722 217.592 375.722 214.596C375.722 211.6 373.286 209.172 370.28 209.172C367.275 209.172 364.839 211.6 364.839 214.596C364.839 217.592 367.275 220.02 370.28 220.02Z" fill="#FF6584"/>
<path d="M413.178 273.639V211.882" stroke="#3F3D56" stroke-width="2" stroke-miterlimit="10"/>
<path d="M413.178 220.615C418.017 220.615 421.94 216.705 421.94 211.882C421.94 207.059 418.017 203.149 413.178 203.149C408.339 203.149 404.417 207.059 404.417 211.882C404.417 216.705 408.339 220.615 413.178 220.615Z" fill="#3F3D56"/>
<path d="M395.922 246.46C383.266 265.806 386.734 290.411 386.734 290.411C386.734 290.411 410.721 283.651 423.377 264.305C436.033 244.96 432.565 220.355 432.565 220.355C432.565 220.355 408.578 227.115 395.922 246.46Z" fill="#3F3D56"/>
<path d="M386.667 290.186C386.667 290.186 386.359 290.137 385.792 290.022C385.339 289.931 384.717 289.8 383.956 289.621C377.158 288.023 359.086 282.623 347.27 268.424C332.481 250.646 333.104 225.807 333.104 225.807C333.104 225.807 355.716 229.469 370.616 245.435C371.262 246.121 371.89 246.832 372.501 247.568C385.369 263.037 386.568 283.851 386.664 288.997C386.677 289.768 386.667 290.186 386.667 290.186Z" fill="#7981EE"/>
<path d="M377.546 246.46C390.202 265.806 386.734 290.411 386.734 290.411C386.734 290.411 362.747 283.651 350.091 264.305C337.435 244.96 340.903 220.355 340.903 220.355C340.903 220.355 364.89 227.115 377.546 246.46Z" stroke="#3F3D56" stroke-width="2" stroke-miterlimit="10"/>
<path opacity="0.1" d="M386.664 288.997C386.329 289.399 386.034 289.742 385.792 290.023C385.254 290.633 384.949 290.954 384.949 290.954C384.949 290.954 384.579 290.49 383.956 289.621C380.538 284.87 369.541 267.98 370.39 248.47C370.436 247.447 370.511 246.435 370.616 245.435C371.262 246.121 371.89 246.832 372.501 247.568C385.369 263.037 386.568 283.851 386.664 288.997Z" fill="black"/>
<path d="M405.429 249.881C404.429 272.954 387.245 290.954 387.245 290.954C387.245 290.954 371.683 271.544 372.683 248.47C373.684 225.397 390.868 207.397 390.868 207.397C390.868 207.397 406.43 226.807 405.429 249.881Z" fill="#7981EE"/>
<path d="M387.245 290.3L391.023 208.338" stroke="#3F3D56" stroke-width="2" stroke-miterlimit="10"/>
<path d="M26.6631 290.39H419.161" stroke="#3F3D56" stroke-width="2" stroke-miterlimit="10"/>
<path d="M110.025 190.435C120.973 190.435 129.848 181.588 129.848 170.675C129.848 159.762 120.973 150.916 110.025 150.916C99.0762 150.916 90.2008 159.762 90.2008 170.675C90.2008 181.588 99.0762 190.435 110.025 190.435Z" fill="#7981EE"/>
<path d="M76.3293 236.938C87.2777 236.938 96.1531 228.092 96.1531 217.179C96.1531 206.266 87.2777 197.419 76.3293 197.419C65.3809 197.419 56.5055 206.266 56.5055 217.179C56.5055 228.092 65.3809 236.938 76.3293 236.938Z" fill="#7981EE"/>
<path d="M34.858 274.077C45.8064 274.077 54.6818 265.23 54.6818 254.317C54.6818 243.404 45.8064 234.558 34.858 234.558C23.9096 234.558 15.0342 243.404 15.0342 254.317C15.0342 265.23 23.9096 274.077 34.858 274.077Z" fill="#7981EE"/>
<path d="M34.8403 290.051V254.208" stroke="#3F3D56" stroke-width="2" stroke-miterlimit="10"/>
<path d="M34.8404 259.277C37.6489 259.277 39.9256 257.008 39.9256 254.208C39.9256 251.409 37.6489 249.14 34.8404 249.14C32.032 249.14 29.7552 251.409 29.7552 254.208C29.7552 257.008 32.032 259.277 34.8404 259.277Z" fill="#3F3D56"/>
<path d="M34.8404 276.299C34.8404 276.299 34.1139 260.725 19.2216 262.536Z" fill="#3F3D56"/>
<path d="M110.037 290.303V170.748" stroke="#3F3D56" stroke-width="2" stroke-miterlimit="10"/>
<path d="M110.037 175.76C112.846 175.76 115.122 173.49 115.122 170.691C115.122 167.892 112.846 165.622 110.037 165.622C107.229 165.622 104.952 167.892 104.952 170.691C104.952 173.49 107.229 175.76 110.037 175.76Z" fill="#3F3D56"/>
<path d="M94.4182 262.258C97.2267 262.258 99.5034 259.989 99.5034 257.19C99.5034 254.39 97.2267 252.121 94.4182 252.121C91.6097 252.121 89.333 254.39 89.333 257.19C89.333 259.989 91.6097 262.258 94.4182 262.258Z" fill="#3F3D56"/>
<path d="M110.037 196.582C110.037 196.582 109.311 181.008 94.4182 182.819Z" fill="#3F3D56"/>
<path d="M110.037 240.732C110.037 240.732 109.311 225.158 94.4182 226.969Z" fill="#3F3D56"/>
<path d="M110.037 288.909C110.037 288.909 113.306 258.638 94.4182 257.19" stroke="#3F3D56" stroke-width="2" stroke-miterlimit="10"/>
<path d="M125.658 262.258C128.467 262.258 130.743 259.989 130.743 257.19C130.743 254.39 128.467 252.121 125.658 252.121C122.85 252.121 120.573 254.39 120.573 257.19C120.573 259.989 122.85 262.258 125.658 262.258Z" fill="#3F3D56"/>
<path d="M110.039 288.909C110.039 288.909 106.77 258.638 125.658 257.19" stroke="#3F3D56" stroke-width="2" stroke-miterlimit="10"/>
<path d="M125.968 214.712C128.776 214.712 131.053 212.443 131.053 209.644C131.053 206.844 128.776 204.575 125.968 204.575C123.159 204.575 120.883 206.844 120.883 209.644C120.883 212.443 123.159 214.712 125.968 214.712Z" fill="#3F3D56"/>
<path d="M110.349 239.749C110.349 239.749 107.08 211.092 125.968 209.644" stroke="#3F3D56" stroke-width="2" stroke-miterlimit="10"/>
<path d="M76.3474 290.134V217.157" stroke="#3F3D56" stroke-width="2" stroke-miterlimit="10"/>
<path d="M76.3474 222.225C79.1559 222.225 81.4326 219.956 81.4326 217.157C81.4326 214.357 79.1559 212.088 76.3474 212.088C73.5389 212.088 71.2622 214.357 71.2622 217.157C71.2622 219.956 73.5389 222.225 76.3474 222.225Z" fill="#3F3D56"/>
<path d="M76.3473 237.799C76.3473 237.799 75.6209 222.225 60.7285 224.036Z" fill="#3F3D56"/>
<path d="M76.3473 288.741C76.3473 288.741 79.6164 258.792 60.7285 257.344" stroke="#3F3D56" stroke-width="2" stroke-miterlimit="10"/>
<path d="M60.7285 262.413C63.537 262.413 65.8137 260.144 65.8137 257.344C65.8137 254.545 63.537 252.275 60.7285 252.275C57.92 252.275 55.6433 254.545 55.6433 257.344C55.6433 260.144 57.92 262.413 60.7285 262.413Z" fill="#3F3D56"/>
<path d="M355.597 179.265C360.209 179.265 363.948 175.538 363.948 170.941C363.948 166.344 360.209 162.617 355.597 162.617C350.985 162.617 347.247 166.344 347.247 170.941C347.247 175.538 350.985 179.265 355.597 179.265Z" fill="#F2F2F2"/>
<path opacity="0.1" d="M267.232 231.658C256.58 236.485 242.861 236.143 242.861 236.143H228.016V233.318C234.065 231.635 242.43 230.594 251.676 230.594C256.88 230.576 262.079 230.931 267.232 231.658V231.658Z" fill="black"/>
<path opacity="0.1" d="M285.079 239.843C285.079 244.953 270.122 249.091 251.676 249.091C233.23 249.091 218.273 244.953 218.273 239.843C218.273 237.295 221.994 234.987 228.015 233.318V236.143H242.861C242.861 236.143 256.58 236.485 267.232 231.658C277.842 233.202 285.079 236.287 285.079 239.843Z" fill="black"/>
<path d="M255.943 182.256H241.73V196.448H255.943V182.256Z" fill="#2F2E41"/>
<path d="M247.015 192.292C247.015 192.292 248.192 196.396 246.133 196.69C244.855 196.888 243.645 197.391 242.604 198.155L246.427 203.139H253.485L257.897 198.742C257.897 198.742 252.015 194.344 253.191 191.706C254.368 189.068 247.015 192.292 247.015 192.292Z" fill="#FFB9B9"/>
<path opacity="0.1" d="M247.015 192.292C247.015 192.292 248.192 196.396 246.133 196.69C244.855 196.888 243.645 197.391 242.604 198.155L246.427 203.139H253.485L257.897 198.742C257.897 198.742 252.015 194.344 253.191 191.706C254.368 189.068 247.015 192.292 247.015 192.292Z" fill="black"/>
<path d="M248.78 243.3L255.544 245.645L260.25 245.938L259.956 241.834L250.25 238.973L248.78 243.3Z" fill="#FFB9B9"/>
<path d="M257.456 242.421C257.456 242.421 257.456 246.525 258.044 246.525C258.632 246.525 266.573 245.645 268.926 246.525C271.279 247.404 274.808 244.18 273.043 242.421C271.279 240.662 268.4 238.024 266.604 238.61C264.808 239.196 257.456 240.662 257.456 240.662L257.456 242.421Z" fill="#2F2E41"/>
<path d="M235.839 238.61C235.839 238.61 232.31 245.645 234.663 246.232C237.016 246.818 239.663 245.939 239.957 245.645C240.251 245.352 244.368 244.18 244.956 244.766C245.545 245.352 245.545 242.421 245.545 242.421L235.839 238.61Z" fill="#2F2E41"/>
<path d="M238.78 228.936C238.78 228.936 233.192 236.558 237.31 238.61C241.427 240.662 261.132 240.662 262.603 238.61C264.073 236.558 264.661 230.109 262.603 229.522C260.544 228.936 238.78 228.936 238.78 228.936Z" fill="#2F2E41"/>
<path opacity="0.2" d="M238.78 228.936C238.78 228.936 233.192 236.558 237.31 238.61C241.427 240.662 261.132 240.662 262.603 238.61C264.073 236.558 264.661 230.109 262.603 229.522C260.544 228.936 238.78 228.936 238.78 228.936Z" fill="black"/>
<path d="M249.368 194.344C253.104 194.344 256.132 191.326 256.132 187.602C256.132 183.878 253.104 180.86 249.368 180.86C245.632 180.86 242.604 183.878 242.604 187.602C242.604 191.326 245.632 194.344 249.368 194.344Z" fill="#FFB9B9"/>
<path d="M238.78 198.155L244.662 196.983C244.662 196.983 246.133 201.673 250.839 200.794C255.544 199.914 256.721 196.983 256.721 196.983C256.721 196.983 260.25 198.449 260.544 198.449C260.838 198.449 264.661 199.914 264.661 200.794C264.661 201.673 260.25 210.468 260.25 210.468L260.838 226.298L239.074 225.711L240.545 210.174L238.78 198.155Z" fill="#7981EE"/>
<path d="M235.545 205.777C235.545 205.777 233.781 221.314 234.957 222.487C236.133 223.659 240.839 226.884 240.839 226.884V223.366L238.486 218.969L240.839 208.709L235.545 205.777Z" fill="#FFB9B9"/>
<path d="M265.985 205.338C265.985 205.338 264.956 221.314 264.956 221.9C264.956 222.487 262.309 224.539 261.426 224.539C260.544 224.539 259.956 223.073 259.956 223.073L262.015 220.728L260.544 208.709L265.985 205.338Z" fill="#FFB9B9"/>
<path d="M263.191 227.763C263.191 227.763 276.425 220.435 276.72 227.763C277.014 235.092 269.955 238.024 269.955 238.024C269.955 238.024 251.721 243.474 250.986 241.481C250.25 239.489 248.78 236.265 249.956 235.971C251.133 235.678 252.603 235.092 253.191 235.678C253.78 236.265 261.132 231.281 261.132 231.281L263.191 227.763Z" fill="#2F2E41"/>
<path opacity="0.2" d="M269.367 226.884C269.367 226.884 266.72 228.056 265.838 228.936C264.955 229.815 261.132 231.281 261.132 231.281" stroke="black" stroke-width="2" stroke-miterlimit="10"/>
<path d="M240.545 198.742L238.78 198.155C238.78 198.155 232.31 204.898 234.369 206.657C236.428 208.416 237.604 209.002 238.192 209.588C238.78 210.174 241.721 210.468 241.721 210.468L240.545 198.742Z" fill="#7981EE"/>
<path d="M262.015 200.207L264.661 200.794C264.661 200.794 266.72 205.191 267.308 205.777C267.897 206.363 266.426 206.07 265.544 207.243C264.661 208.416 263.779 210.468 262.015 210.468C260.25 210.468 257.897 207.536 257.897 207.536L262.015 200.207Z" fill="#7981EE"/>
<path d="M239.368 230.402C239.368 230.402 228.193 222.487 224.369 228.35C220.546 234.213 240.839 242.128 243.78 243.3C246.721 244.473 249.368 245.645 249.368 245.645C249.368 245.645 252.015 239.196 252.015 238.024C252.015 236.851 249.956 236.851 249.368 236.851C248.78 236.851 246.133 236.265 245.545 235.385C244.956 234.506 239.368 230.402 239.368 230.402Z" fill="#2F2E41"/>
<path opacity="0.2" d="M233.192 228.35C233.192 228.35 236.133 230.695 238.78 231.281C241.427 231.867 242.31 233.333 242.31 233.333" stroke="black" stroke-width="2" stroke-miterlimit="10"/>
<path d="M237.34 217.327L237.575 229.739C237.582 230.149 237.752 230.54 238.048 230.825C238.343 231.111 238.739 231.268 239.151 231.264L262.324 231.004C262.719 231 263.097 230.846 263.383 230.574C263.669 230.303 263.84 229.933 263.863 229.54L264.566 217.388C264.578 217.176 264.547 216.965 264.475 216.766C264.402 216.567 264.289 216.385 264.144 216.231C263.998 216.078 263.822 215.955 263.627 215.871C263.432 215.787 263.222 215.744 263.01 215.744H238.898C238.691 215.744 238.486 215.785 238.295 215.865C238.104 215.945 237.931 216.062 237.786 216.21C237.641 216.357 237.526 216.532 237.45 216.724C237.373 216.916 237.336 217.121 237.34 217.327V217.327Z" fill="#575A89"/>
<path d="M234.659 198.229C235.29 196.841 236.139 195.538 236.543 194.068C237.027 192.307 236.839 190.442 236.781 188.617C236.689 187.002 236.827 185.382 237.191 183.806C237.561 182.222 238.39 180.782 239.577 179.666C242.659 176.924 248.299 176.727 252.063 177.868C253.547 178.318 255.127 179.176 255.495 180.677C255.55 180.904 255.575 181.138 255.637 181.363C255.946 182.481 257.093 183.188 257.507 184.272C258.043 185.673 257.217 187.197 257.109 188.693C256.983 190.44 257.844 192.089 258.693 193.622C259.198 194.533 259.723 195.504 259.673 196.544C259.631 197.112 259.457 197.664 259.166 198.154C258.625 199.044 257.866 199.782 256.961 200.299C256.056 200.816 255.033 201.096 253.99 201.112C253.312 201.166 252.634 201.006 252.051 200.655C251.133 200.025 250.864 198.756 251.055 197.661C251.247 196.566 251.804 195.575 252.241 194.552C252.375 194.239 252.496 193.92 252.608 193.597C253.963 192.843 255.007 191.636 255.556 190.19C256.105 188.743 256.123 187.15 255.608 185.691C255.092 184.232 254.076 183.001 252.739 182.217C251.402 181.432 249.829 181.143 248.299 181.402C246.77 181.661 245.381 182.45 244.378 183.63C243.375 184.811 242.823 186.306 242.819 187.853C242.815 189.4 243.359 190.898 244.356 192.083C245.353 193.269 246.738 194.065 248.267 194.331C248.596 195.986 248.446 197.699 247.835 199.272C247.279 200.552 246.581 201.765 245.753 202.89C245.415 203.466 244.964 203.969 244.427 204.369C244.073 204.578 243.694 204.739 243.298 204.85C241.636 205.382 239.887 205.811 238.159 205.571C236.43 205.332 234.719 204.293 234.13 202.655C233.614 201.221 234.028 199.617 234.659 198.229Z" fill="#2F2E41"/>
<path d="M249.04 187.871C253.005 187.871 256.219 186.056 256.219 183.816C256.219 181.577 253.005 179.761 249.04 179.761C245.076 179.761 241.862 181.577 241.862 183.816C241.862 186.056 245.076 187.871 249.04 187.871Z" fill="#2F2E41"/>
<path opacity="0.3" d="M358.719 171.425C358.61 171.155 358.409 170.933 358.151 170.797C357.991 170.703 357.818 170.633 357.638 170.588C357.759 170.53 357.871 170.453 357.967 170.359C358.111 170.226 358.22 170.059 358.283 169.873C358.341 169.683 358.365 169.484 358.353 169.285C358.352 168.955 358.26 168.632 358.087 168.351C357.893 168.094 357.629 167.898 357.327 167.788C357.033 167.674 356.722 167.611 356.407 167.602V166.27L355.599 166.791V167.604H354.952V166.749L354.124 166.27V167.604H352.363L352.929 168.605C353.049 168.597 353.17 168.613 353.283 168.653C353.34 168.679 353.386 168.723 353.414 168.778C353.449 168.897 353.462 169.02 353.453 169.143V172.755C353.461 172.877 353.448 173 353.414 173.118C353.388 173.172 353.374 173.22 353.311 173.249C353.249 173.279 353.247 173.277 353.073 173.277H353.071L352.363 174.278H354.122V175.612H354.95V174.278H355.597V175.612H356.405V174.269C356.814 174.262 357.22 174.189 357.606 174.054C357.964 173.927 358.278 173.699 358.509 173.398C358.711 173.077 358.821 172.708 358.828 172.33C358.85 172.024 358.813 171.717 358.719 171.425V171.425ZM354.95 168.73H354.95V168.703H355.515C355.833 168.703 356.893 168.593 356.91 169.486C356.928 170.379 355.515 170.342 355.515 170.342H354.95V170.274H354.95V168.73ZM354.95 171.275H355.597C355.728 171.275 356.18 171.295 356.345 171.303C356.412 171.305 356.478 171.318 356.542 171.339C356.565 171.347 356.587 171.357 356.611 171.367C356.711 171.4 356.805 171.449 356.89 171.512C356.945 171.55 356.994 171.598 357.034 171.652C357.095 171.74 357.14 171.839 357.166 171.944C357.185 172.017 357.195 172.092 357.195 172.167C357.202 172.311 357.167 172.454 357.095 172.578C356.991 172.743 356.839 172.873 356.658 172.949C356.322 173.087 355.961 173.155 355.597 173.151H354.95V171.275Z" fill="#7981EE"/>
<path d="M29.9154 208.398C34.5274 208.398 38.2662 204.671 38.2662 200.074C38.2662 195.477 34.5274 191.75 29.9154 191.75C25.3034 191.75 21.5646 195.477 21.5646 200.074C21.5646 204.671 25.3034 208.398 29.9154 208.398Z" fill="#F2F2F2"/>
<path opacity="0.3" d="M33.0372 200.558C32.9278 200.288 32.7267 200.066 32.4693 199.93C32.309 199.836 32.1362 199.766 31.9559 199.721C32.0774 199.663 32.1886 199.586 32.2853 199.492C32.4293 199.359 32.5376 199.192 32.6006 199.006C32.6593 198.816 32.6833 198.617 32.6713 198.418C32.6703 198.088 32.578 197.765 32.4046 197.484C32.2111 197.227 31.9472 197.031 31.6447 196.921C31.351 196.807 31.04 196.744 30.7251 196.735V195.402L29.9167 195.924V196.737H29.27V195.882L28.4414 195.402V196.737H26.6812L27.247 197.738C27.367 197.73 27.4873 197.746 27.6007 197.786C27.6576 197.812 27.704 197.856 27.7321 197.911C27.7665 198.03 27.7796 198.153 27.7705 198.276V201.888C27.7793 202.01 27.7663 202.133 27.7321 202.251C27.7058 202.305 27.6916 202.353 27.629 202.382C27.5663 202.412 27.5643 202.41 27.3905 202.41H27.3885L26.6812 203.411H28.4394V204.745H29.268V203.411H29.9147V204.745H30.7231V203.402C31.1322 203.395 31.5375 203.322 31.9236 203.187C32.2819 203.06 32.5956 202.832 32.827 202.53C33.0286 202.21 33.139 201.841 33.1463 201.463C33.1676 201.157 33.1306 200.85 33.0372 200.558ZM29.268 197.863H29.2682V197.836H29.8333C30.1512 197.836 31.2106 197.726 31.2282 198.619C31.246 199.512 29.8333 199.475 29.8333 199.475H29.2682V199.406H29.268L29.268 197.863ZM29.268 200.408H29.9147C30.0461 200.408 30.498 200.428 30.6625 200.436C30.7297 200.438 30.7961 200.451 30.8598 200.472C30.883 200.48 30.905 200.489 30.9289 200.5C31.029 200.533 31.123 200.582 31.2076 200.645C31.2633 200.683 31.312 200.731 31.3517 200.785C31.4129 200.873 31.4576 200.972 31.4836 201.077C31.5029 201.149 31.5129 201.225 31.5133 201.3C31.52 201.444 31.485 201.586 31.4125 201.711C31.3087 201.876 31.1565 202.006 30.9764 202.082C30.6396 202.22 30.2786 202.288 29.9147 202.284H29.268L29.268 200.408Z" fill="#7981EE"/>
</g>
<defs>
<clipPath id="clip0">
<rect width="433" height="291" fill="white"/>
</clipPath>
</defs>
</svg>
