<svg width="384" height="339" viewBox="0 0 384 339" fill="none" xmlns="http://www.w3.org/2000/svg">
<g clip-path="url(#clip0)">
<path d="M351.306 260.947C382.148 232.798 393.106 194.329 375.781 175.024C358.456 155.719 319.408 162.888 288.566 191.036C257.723 219.185 246.766 257.654 264.091 276.959C281.416 296.264 320.464 289.095 351.306 260.947Z" fill="#F2F2F2"/>
<path d="M261.569 338.004C257.41 329.34 255.937 319.577 256.661 310.018C257.447 300.52 260.226 291.299 264.813 282.966C269.267 274.923 274.916 267.616 281.566 261.3C288.551 254.552 296.427 248.824 304.715 243.818C313.466 238.531 322.662 234.038 331.964 229.835C333.123 229.311 334.285 228.791 335.447 228.275C336.211 227.936 335.55 226.808 334.792 227.144C325.307 231.356 315.903 235.794 306.909 241.001C298.318 245.976 290.098 251.667 282.754 258.393C275.834 264.631 269.872 271.872 265.064 279.879C260.142 288.118 256.95 297.288 255.686 306.822C254.473 316.423 255.411 326.408 259.02 335.417C259.46 336.515 259.936 337.598 260.448 338.665C260.812 339.423 261.932 338.76 261.569 338.004V338.004Z" fill="#E6E6E6"/>
<path d="M297.39 247.157C296.961 240.017 297.494 232.851 298.974 225.855C300.45 218.855 302.845 212.085 306.097 205.725C307.928 202.154 310.026 198.729 312.372 195.48C312.865 194.798 311.739 194.144 311.251 194.819C307.034 200.676 303.621 207.08 301.105 213.858C298.582 220.637 296.963 227.724 296.291 234.932C295.912 238.996 295.845 243.083 296.092 247.157C296.142 247.994 297.441 248 297.39 247.157H297.39Z" fill="#E6E6E6"/>
<path d="M158.442 236.453C198.587 199.815 212.85 149.744 190.299 124.616C167.748 99.4882 116.924 108.819 76.779 145.458C36.6344 182.096 22.3718 232.168 44.9224 257.295C67.4731 282.423 118.298 273.092 158.442 236.453Z" fill="#F2F2F2"/>
<path d="M41.6406 336.752C36.2269 325.474 34.3098 312.767 35.2524 300.325C36.189 287.963 39.9747 275.97 45.8627 265.114C51.5647 254.6 59.101 245.189 67.6675 236.914C76.7595 228.131 87.0119 220.675 97.7988 214.158C109.189 207.277 121.158 201.429 133.267 195.958C134.776 195.276 136.287 194.599 137.801 193.928C138.794 193.487 137.935 192.018 136.947 192.456C124.602 197.938 112.361 203.715 100.655 210.493C89.4723 216.968 78.7733 224.376 69.2146 233.129C60.2978 241.295 52.351 250.637 46.1892 261.096C39.7821 271.819 35.6274 283.756 33.9826 296.165C32.404 308.662 33.6244 321.658 38.3226 333.384C38.8955 334.814 39.515 336.223 40.1811 337.612C40.6549 338.599 42.113 337.736 41.6406 336.752V336.752Z" fill="#E6E6E6"/>
<path d="M88.2652 218.505C87.7064 209.211 88.4 199.884 90.3269 190.778C92.2477 181.667 95.3657 172.855 99.5982 164.576C101.981 159.929 104.711 155.471 107.766 151.242C108.407 150.354 106.941 149.502 106.306 150.381C100.818 158.005 96.3757 166.341 93.0997 175.163C89.8162 183.986 87.7094 193.21 86.8346 202.593C86.3409 207.882 86.2541 213.202 86.5749 218.505C86.6407 219.595 88.3314 219.602 88.2652 218.505L88.2652 218.505Z" fill="#E6E6E6"/>
<path d="M236.636 12.3748L217.772 43.739L236.596 54.9728L236.636 12.3748Z" fill="#8C8C8C"/>
<path d="M217.835 43.8032L236.595 35.1804L236.572 54.9862L217.835 43.8032Z" fill="#383838"/>
<path d="M236.555 12.3748L255.42 43.739L236.596 54.9728L236.555 12.3748Z" fill="#333333"/>
<path d="M255.356 43.8032L236.596 35.1804L236.618 54.9862L255.356 43.8032Z" fill="#141414"/>
<path d="M217.835 47.4023L236.572 74.0104V58.5853L217.835 47.4023Z" fill="#8C8C8C"/>
<path d="M255.31 47.4023L236.572 74.0104V58.5853L255.31 47.4023Z" fill="#333333"/>
<path d="M236.747 96.618C226.612 96.618 216.516 89.5933 208.317 76.8379C201.108 65.6222 196.63 51.6813 196.63 40.4558C196.63 35.1431 197.667 29.8824 199.683 24.974C201.699 20.0657 204.654 15.6059 208.38 11.8492C212.105 8.09256 216.527 5.11261 221.394 3.07952C226.262 1.04642 231.478 0 236.747 0C242.015 0 247.232 1.04642 252.099 3.07952C256.966 5.11261 261.388 8.09256 265.114 11.8492C268.839 15.6059 271.794 20.0657 273.81 24.974C275.826 29.8824 276.864 35.1431 276.864 40.4558C276.864 51.6813 272.385 65.6222 265.176 76.8379C256.977 89.5933 246.881 96.618 236.747 96.618ZM236.747 0.951902C226.361 0.963723 216.404 5.12953 209.06 12.5354C201.716 19.9412 197.585 29.9824 197.573 40.4558C197.573 62.258 215.123 95.6661 236.747 95.6661C258.37 95.6661 275.92 62.258 275.92 40.4558C275.908 29.9824 271.777 19.9412 264.433 12.5354C257.089 5.12953 247.132 0.963724 236.747 0.951902V0.951902Z" fill="#3F3D56"/>
<path d="M240.529 105.185H232.965C232.611 105.185 232.262 105.105 231.944 104.951C231.625 104.797 231.345 104.573 231.124 104.295C230.903 104.017 230.746 103.692 230.666 103.345C230.586 102.998 230.584 102.637 230.661 102.289L232.12 95.6661H241.373L242.832 102.289C242.909 102.637 242.907 102.998 242.827 103.345C242.747 103.692 242.59 104.017 242.369 104.295C242.148 104.573 241.868 104.797 241.549 104.951C241.231 105.105 240.882 105.185 240.529 105.185H240.529ZM232.878 96.618L231.582 102.496C231.536 102.704 231.537 102.921 231.585 103.129C231.634 103.337 231.727 103.532 231.86 103.699C231.993 103.866 232.161 104 232.352 104.093C232.543 104.185 232.753 104.233 232.965 104.233H240.529C240.741 104.233 240.95 104.185 241.141 104.093C241.332 104 241.5 103.866 241.633 103.699C241.766 103.532 241.86 103.337 241.908 103.129C241.956 102.921 241.957 102.704 241.911 102.496L240.616 96.618H232.878Z" fill="#3F3D56"/>
<path d="M218.076 11.8328C211.848 15.6466 207.369 21.7906 205.618 28.9232C205.134 30.907 204.876 32.9401 204.851 34.9829C204.858 35.168 204.935 35.3433 205.067 35.4719C205.199 35.6006 205.376 35.6725 205.559 35.6725C205.743 35.6725 205.919 35.6006 206.051 35.4719C206.183 35.3433 206.261 35.168 206.267 34.9829C206.411 28.0426 209.264 21.4396 214.206 16.6076C215.592 15.2513 217.131 14.0626 218.79 13.0657C218.946 12.9668 219.057 12.8109 219.1 12.6309C219.144 12.4509 219.117 12.2609 219.024 12.101C218.931 11.941 218.78 11.8237 218.604 11.7736C218.427 11.7236 218.237 11.7448 218.076 11.8328H218.076Z" fill="#3F3D56"/>
<path d="M230.19 97.5149C238.743 97.0734 248.476 96.8381 255.142 103.2C257.923 105.854 259.677 109.41 259.571 113.32C259.456 117.574 257.311 121.559 254.652 124.755C248.929 131.635 240.536 135.937 232.487 139.405C223.932 143.09 215.02 145.967 206.8 150.414C199.584 154.319 192.857 159.589 188.497 166.689C186.352 170.13 184.93 173.978 184.317 177.995C183.755 182.022 183.957 186.121 184.913 190.071C186.833 198.169 191.56 205.326 197.859 210.644C204.233 216.025 211.954 219.609 219.954 221.75C229.451 224.292 239.347 224.867 249.132 224.924C259.238 224.984 269.352 224.485 279.452 225.056C281.908 225.195 284.36 225.4 286.804 225.686C287.708 225.792 287.7 224.363 286.804 224.258C276.715 223.079 266.547 223.349 256.413 223.465C246.477 223.578 236.458 223.543 226.645 221.774C218.185 220.249 209.891 217.391 202.715 212.542C195.842 207.898 190.241 201.386 187.407 193.485C184.638 185.766 184.667 177.224 188.374 169.825C192.086 162.416 198.562 156.812 205.598 152.722C213.718 148.002 222.659 145.049 231.285 141.45C239.433 138.051 247.766 133.997 254.025 127.571C256.923 124.596 259.406 120.974 260.468 116.899C260.987 114.993 261.112 112.999 260.836 111.043C260.56 109.086 259.888 107.207 258.862 105.523C256.811 102.356 253.882 99.8658 250.439 98.3624C246.285 96.4746 241.675 95.9304 237.158 95.8844C234.834 95.8608 232.511 95.9672 230.19 96.087C229.283 96.1338 229.278 97.562 230.19 97.5149H230.19Z" fill="#3F3D56"/>
<path d="M186.649 329.236L180.974 330.375L173.915 308.845L182.291 307.163L186.649 329.236Z" fill="#FFB8B8"/>
<path d="M189.192 334.492L170.894 338.167L170.848 337.933C170.661 336.99 170.661 336.019 170.847 335.076C171.033 334.133 171.401 333.236 171.931 332.436C172.46 331.636 173.141 330.949 173.934 330.415C174.727 329.881 175.616 329.509 176.551 329.321L176.552 329.321L187.727 327.077L189.192 334.492Z" fill="#2F2E41"/>
<path d="M240.86 332.511L235.074 332.51L228.546 310.003L237.085 310.004L240.86 332.511Z" fill="#FFB8B8"/>
<path d="M242.336 338.167L223.679 338.166V337.928C223.679 336.966 223.867 336.014 224.231 335.126C224.596 334.237 225.131 333.43 225.806 332.75C226.48 332.07 227.281 331.53 228.162 331.162C229.043 330.794 229.987 330.605 230.941 330.605H230.941L242.336 330.605L242.336 338.167Z" fill="#2F2E41"/>
<path d="M227.048 268.228C227.51 267.643 227.839 266.964 228.013 266.237C228.186 265.51 228.199 264.754 228.051 264.022C227.904 263.289 227.598 262.598 227.157 261.998C226.716 261.397 226.149 260.901 225.498 260.545L213.938 215.459L203.884 220.023L218.408 262.906C217.887 264.05 217.801 265.347 218.165 266.55C218.53 267.754 219.319 268.781 220.384 269.437C221.449 270.093 222.716 270.332 223.944 270.11C225.172 269.887 226.277 269.217 227.048 268.228V268.228Z" fill="#FFB8B8"/>
<path d="M216.642 223.013L205.468 225.675C205.15 225.75 204.82 225.756 204.499 225.691C204.179 225.627 203.876 225.493 203.612 225.3C203.347 225.107 203.127 224.858 202.966 224.571C202.806 224.285 202.708 223.966 202.68 223.638L201.71 212.136C201.335 210.493 201.622 208.768 202.507 207.338C203.391 205.908 204.802 204.89 206.43 204.507C208.058 204.124 209.77 204.408 211.19 205.297C212.611 206.185 213.624 207.605 214.008 209.245L218.232 219.934C218.353 220.24 218.407 220.569 218.39 220.898C218.374 221.227 218.287 221.549 218.136 221.841C217.986 222.133 217.774 222.389 217.516 222.591C217.258 222.794 216.96 222.938 216.642 223.013V223.013Z" fill="#6C63FF"/>
<path d="M178.522 325.154C178.034 325.155 177.561 324.985 177.183 324.674C176.805 324.363 176.546 323.93 176.448 323.448L170.818 296.196C170.468 294.48 170.458 292.711 170.788 290.99C171.119 289.27 171.783 287.632 172.743 286.172L190.48 259.342V239.234L211.071 234.555L211.16 234.628C221.841 243.424 221.227 254.267 221.161 255.105L241.398 321.371C241.495 321.691 241.517 322.03 241.462 322.361C241.406 322.691 241.274 323.004 241.076 323.273C240.879 323.543 240.622 323.762 240.325 323.913C240.028 324.065 239.7 324.143 239.368 324.143H233.292C232.867 324.145 232.451 324.017 232.1 323.777C231.748 323.537 231.476 323.195 231.319 322.797L209.509 270.264L183.841 291.568C183.635 291.738 183.474 291.957 183.37 292.204C183.266 292.452 183.223 292.721 183.244 292.989L185.611 322.281C185.659 322.837 185.488 323.39 185.136 323.82C184.784 324.251 184.279 324.525 183.729 324.584L178.762 325.141C178.682 325.15 178.602 325.154 178.522 325.154V325.154Z" fill="#2F2E41"/>
<path d="M204.844 197.022C211.246 197.022 216.436 191.788 216.436 185.332C216.436 178.876 211.246 173.642 204.844 173.642C198.442 173.642 193.252 178.876 193.252 185.332C193.252 191.788 198.442 197.022 204.844 197.022Z" fill="#FFB8B8"/>
<path d="M191.577 241.464C191.155 241.465 190.742 241.338 190.391 241.102C190.04 240.865 189.766 240.529 189.605 240.135C185.722 230.521 185.786 218.377 187.489 211.163C188.215 208.109 189.98 205.408 192.478 203.532C194.976 201.655 198.048 200.723 201.157 200.896H201.157C203.008 200.996 204.818 201.484 206.471 202.329C208.124 203.174 209.584 204.357 210.758 205.804C211.931 207.251 212.792 208.928 213.286 210.73C213.78 212.531 213.896 214.416 213.626 216.265C212.718 222.469 212.35 231.207 212.233 234.675C212.216 235.138 212.05 235.583 211.762 235.943C211.473 236.304 211.076 236.56 210.631 236.675L192.095 241.399C191.926 241.443 191.752 241.464 191.577 241.464V241.464Z" fill="#6C63FF"/>
<path d="M191.79 171.678C191.549 171.778 191.3 171.859 191.046 171.92L182.883 194.042L186.499 198.466L180.591 204.844L173.433 197.638C172.855 197.056 172.48 196.3 172.364 195.485C172.247 194.669 172.397 193.837 172.789 193.115L185.577 169.56C185.076 168.68 184.852 167.668 184.936 166.657C185.019 165.645 185.406 164.684 186.044 163.9C186.683 163.116 187.543 162.546 188.51 162.267C189.477 161.988 190.506 162.013 191.459 162.338C192.412 162.663 193.245 163.272 193.846 164.086C194.447 164.9 194.788 165.878 194.824 166.892C194.86 167.906 194.589 168.907 194.047 169.762C193.505 170.617 192.718 171.285 191.79 171.678V171.678Z" fill="#FFB8B8"/>
<path d="M178.503 204.21L185.014 194.673C185.199 194.402 185.44 194.174 185.721 194.005C186.001 193.836 186.315 193.73 186.639 193.694C186.964 193.658 187.293 193.694 187.603 193.797C187.913 193.901 188.197 194.071 188.436 194.296L196.812 202.164C198.183 203.128 199.12 204.601 199.417 206.26C199.713 207.919 199.345 209.629 198.393 211.015C197.441 212.4 195.983 213.349 194.338 213.652C192.694 213.955 190.997 213.588 189.621 212.632L179.375 207.569C179.081 207.424 178.822 207.217 178.616 206.962C178.409 206.707 178.259 206.41 178.176 206.091C178.094 205.772 178.08 205.439 178.136 205.115C178.193 204.79 178.318 204.482 178.503 204.21H178.503Z" fill="#6C63FF"/>
<path d="M204.176 198.73C203.341 197.796 203.829 196.191 204.602 195.195C205.375 194.198 206.419 193.351 206.723 192.087C207.242 189.935 205.306 187.972 203.375 187.276C201.443 186.58 199.279 186.527 197.579 185.307C195.001 183.458 194.413 179.243 195.894 176.284C197.376 173.325 200.472 171.627 203.545 171.374C206.618 171.12 209.672 172.128 212.485 173.507C215.205 174.84 217.829 176.578 219.741 179.082C221.653 181.586 222.777 184.951 222.225 188.159C221.55 192.076 218.507 195.1 215.125 196.576C211.744 198.052 208.027 198.247 204.391 198.423L204.176 198.73Z" fill="#2F2E41"/>
<path d="M217.082 176.412C220.636 172.862 225.393 170.804 230.394 170.653C235.394 170.501 240.265 172.267 244.025 175.595C250.299 181.148 252.69 190.293 259.276 195.466C265.205 200.123 274.108 200.47 280.375 196.288C277.514 199.659 274.602 203.076 270.938 205.534C267.274 207.993 262.695 209.413 258.42 208.358C253.402 207.12 249.75 202.811 246.915 198.456C244.079 194.101 241.58 189.331 237.468 186.176C234.352 183.8 230.543 182.532 226.637 182.568C224.245 182.598 221.804 183.116 219.493 182.494C217.181 181.872 215.058 179.495 215.828 177.211L217.082 176.412Z" fill="#2F2E41"/>
<path d="M324.241 338.877H0.471966C0.346793 338.877 0.226746 338.827 0.138235 338.738C0.0497245 338.648 0 338.527 0 338.401C0 338.275 0.0497245 338.154 0.138235 338.065C0.226746 337.975 0.346793 337.925 0.471966 337.925H324.241C324.366 337.925 324.486 337.975 324.574 338.065C324.663 338.154 324.713 338.275 324.713 338.401C324.713 338.527 324.663 338.648 324.574 338.738C324.486 338.827 324.366 338.877 324.241 338.877Z" fill="#3F3D56"/>
</g>
<defs>
<clipPath id="clip0">
<rect width="384" height="339" fill="white"/>
</clipPath>
</defs>
</svg>
