<svg width="11" height="6" viewBox="0 0 11 6" fill="none" xmlns="http://www.w3.org/2000/svg">
<path d="M5.53514 5.99837C5.64648 5.99081 5.7523 5.94283 5.83575 5.86207L10.8329 0.955279C10.8821 0.907244 10.9221 0.849087 10.9506 0.784147C10.9792 0.719207 10.9957 0.648765 10.9993 0.576844C11.0028 0.504923 10.9933 0.432942 10.9713 0.365031C10.9493 0.297121 10.9153 0.23461 10.8711 0.181088C10.8269 0.127566 10.7735 0.0840859 10.7139 0.0531323C10.6543 0.0221786 10.5897 0.00436032 10.5237 0.000705385C10.4578 -0.00294955 10.3919 0.00762477 10.3297 0.0318271C10.2675 0.0560294 10.2103 0.0933863 10.1614 0.141747L5.5 4.72055L0.838609 0.141747C0.789687 0.0933858 0.732499 0.0560298 0.670321 0.0318271C0.608143 0.00762441 0.542199 -0.00294936 0.476267 0.000705385C0.410336 0.00436013 0.345714 0.0221703 0.286105 0.0531239C0.226496 0.0840776 0.173072 0.127566 0.128895 0.181088C0.0847175 0.23461 0.0506561 0.297121 0.0286624 0.365031C0.00666879 0.432942 -0.00282461 0.504914 0.00072637 0.576835C0.00427735 0.648757 0.0208029 0.719207 0.0493558 0.784147C0.0779087 0.849087 0.117928 0.907244 0.167119 0.955279L5.16425 5.86207C5.21449 5.91084 5.27323 5.94806 5.33696 5.97148C5.40069 5.9949 5.46809 6.00404 5.53514 5.99837Z" fill="#FAF7F7"/>
</svg>
