<svg width="26" height="18" viewBox="0 0 26 18" fill="none" xmlns="http://www.w3.org/2000/svg">
<path d="M24.48 2.05534H1.51999C1.05603 2.05534 0.679993 1.68228 0.679993 1.222C0.679993 0.761724 1.05603 0.38867 1.51999 0.38867H24.48C24.944 0.38867 25.32 0.761724 25.32 1.222C25.32 1.68228 24.944 2.05534 24.48 2.05534ZM24.48 9.83311H1.51999C1.05603 9.83311 0.679993 9.46006 0.679993 8.99978C0.679993 8.5395 1.05603 8.16645 1.51999 8.16645H24.48C24.944 8.16645 25.32 8.5395 25.32 8.99978C25.32 9.46006 24.944 9.83311 24.48 9.83311ZM1.51999 16.222H24.48C24.944 16.222 25.32 16.5951 25.32 17.0553C25.32 17.5156 24.944 17.8887 24.48 17.8887H1.51999C1.05603 17.8887 0.679993 17.5156 0.679993 17.0553C0.679993 16.5951 1.05603 16.222 1.51999 16.222Z" fill="#151843"/>
</svg>
