<svg width="26" height="18" viewBox="0 0 26 18" fill="none" xmlns="http://www.w3.org/2000/svg">
<path d="M24.48 2.05534H1.51998C1.05602 2.05534 0.679977 1.68228 0.679977 1.222C0.679977 0.761724 1.05602 0.38867 1.51998 0.38867H24.48C24.9439 0.38867 25.32 0.761724 25.32 1.222C25.32 1.68228 24.9439 2.05534 24.48 2.05534ZM24.48 9.83311H1.51998C1.05602 9.83311 0.679977 9.46006 0.679977 8.99978C0.679977 8.5395 1.05602 8.16645 1.51998 8.16645H24.48C24.9439 8.16645 25.32 8.5395 25.32 8.99978C25.32 9.46006 24.9439 9.83311 24.48 9.83311ZM1.51998 16.222H24.48C24.9439 16.222 25.32 16.5951 25.32 17.0553C25.32 17.5156 24.9439 17.8887 24.48 17.8887H1.51998C1.05602 17.8887 0.679977 17.5156 0.679977 17.0553C0.679977 16.5951 1.05602 16.222 1.51998 16.222Z" fill="white"/>
</svg>
