<svg width="36" height="36" viewBox="0 0 36 36" fill="none" xmlns="http://www.w3.org/2000/svg">
<path d="M34.7404 34.1709H0.569515C0.418471 34.1709 0.273612 34.2309 0.166807 34.3377C0.0600023 34.4445 0 34.5894 0 34.7404C0 34.8915 0.0600023 35.0363 0.166807 35.1431C0.273612 35.2499 0.418471 35.3099 0.569515 35.3099H34.7404C34.8915 35.3099 35.0363 35.2499 35.1432 35.1431C35.25 35.0363 35.31 34.8915 35.31 34.7404C35.31 34.5894 35.25 34.4445 35.1432 34.3377C35.0363 34.2309 34.8915 34.1709 34.7404 34.1709Z" fill="#7981EE"/>
<path d="M6.26468 21.6415H1.70856V33.0318H6.26468V21.6415Z" fill="#7981EE"/>
<path d="M15.3769 23.9197H10.8208V33.0319H15.3769V23.9197Z" fill="#7981EE"/>
<path d="M24.4892 15.9464H19.933V33.0319H24.4892V15.9464Z" fill="#7981EE"/>
<path d="M33.6014 7.40369H29.0453V33.0319H33.6014V7.40369Z" fill="#7981EE"/>
<path d="M24.21 8.0188L29.3699 3.17792L28.6295 2.31226L23.4298 7.193C23.7571 7.39597 24.026 7.68055 24.21 8.0188Z" fill="#7981EE"/>
<path d="M15.132 16.066L20.924 10.9916C20.6048 10.7747 20.3476 10.4783 20.1779 10.1317L14.3859 15.206C14.7051 15.423 14.9622 15.7194 15.132 16.066Z" fill="#7981EE"/>
<path d="M10.8208 17.0854C10.8217 16.706 10.9156 16.3325 11.0941 15.9977C6.03685 14.7333 6.26466 14.7504 6.26466 14.8074C6.26387 15.1876 6.16793 15.5615 5.9856 15.8951C11.0486 17.1595 10.8208 17.1424 10.8208 17.0854Z" fill="#7981EE"/>
<path d="M3.98663 15.9464C4.6157 15.9464 5.12566 15.4364 5.12566 14.8074C5.12566 14.1783 4.6157 13.6683 3.98663 13.6683C3.35756 13.6683 2.8476 14.1783 2.8476 14.8074C2.8476 15.4364 3.35756 15.9464 3.98663 15.9464Z" fill="#7981EE"/>
<path d="M13.0988 18.2245C13.7279 18.2245 14.2378 17.7145 14.2378 17.0854C14.2378 16.4564 13.7279 15.9464 13.0988 15.9464C12.4697 15.9464 11.9598 16.4564 11.9598 17.0854C11.9598 17.7145 12.4697 18.2245 13.0988 18.2245Z" fill="#7981EE"/>
<path d="M22.2111 10.2513C22.8402 10.2513 23.3501 9.74131 23.3501 9.11224C23.3501 8.48317 22.8402 7.97321 22.2111 7.97321C21.582 7.97321 21.0721 8.48317 21.0721 9.11224C21.0721 9.74131 21.582 10.2513 22.2111 10.2513Z" fill="#7981EE"/>
<path d="M31.8928 0L28.2081 0.0569515L31.329 3.72463L31.8928 0Z" fill="#7981EE"/>
</svg>
