<svg width="54" height="53" viewBox="0 0 54 53" fill="none" xmlns="http://www.w3.org/2000/svg">
<path d="M50.7099 44.6747H49.8786V14.8944C49.8786 14.0169 49.5282 13.1752 48.9046 12.5547C48.281 11.9341 47.4352 11.5855 46.5533 11.5855H40.7342V6.62214H42.3968C42.5619 6.6231 42.7236 6.5751 42.8612 6.48427C42.9988 6.39344 43.1061 6.26389 43.1694 6.11214C43.2327 5.96039 43.2492 5.79331 43.2167 5.63221C43.1842 5.47111 43.1043 5.32329 42.987 5.20758L37.9992 0.244205C37.9219 0.16667 37.8299 0.105129 37.7286 0.0631314C37.6273 0.021134 37.5187 -0.000488281 37.4089 -0.000488281C37.2992 -0.000488281 37.1905 0.021134 37.0892 0.0631314C36.9879 0.105129 36.896 0.16667 36.8187 0.244205C31.4484 5.59638 31.3653 5.41439 31.6563 6.10926C31.9472 6.80413 32.4211 6.62214 34.0837 6.62214V11.5855H28.6054L27.1921 10.171C27.1149 10.0934 27.0229 10.0319 26.9216 9.98988C26.8203 9.94788 26.7117 9.92626 26.6019 9.92626C26.4922 9.92626 26.3835 9.94788 26.2822 9.98988C26.1809 10.0319 26.089 10.0934 26.0117 10.171L24.5985 11.5855H6.65048C5.76857 11.5855 4.92278 11.9341 4.29918 12.5547C3.67558 13.1752 3.32524 14.0169 3.32524 14.8944V44.6747H2.49393C1.8325 44.6747 1.19816 44.9361 0.730455 45.4016C0.262752 45.867 0 46.4982 0 47.1564L0 48.8108C0 49.9078 0.437921 50.9599 1.21742 51.7355C1.99693 52.5112 3.05416 52.947 4.15655 52.947H49.0473C50.1497 52.947 51.2069 52.5112 51.9864 51.7355C52.7659 50.9599 53.2038 49.9078 53.2038 48.8108V47.1564C53.2038 46.4982 52.9411 45.867 52.4734 45.4016C52.0057 44.9361 51.3713 44.6747 50.7099 44.6747ZM40.7342 16.5489H44.8907V41.3658H40.7342V16.5489ZM37.4089 1.99793L40.3933 4.96768H39.9029C39.6824 4.96768 39.4709 5.05484 39.315 5.20997C39.1591 5.36511 39.0716 5.57552 39.0716 5.79491V41.3658H35.7463V5.79491C35.7463 5.57552 35.6587 5.36511 35.5028 5.20997C35.3469 5.05484 35.1355 4.96768 34.915 4.96768H34.4245L37.4089 1.99793ZM29.9271 41.3658V16.5489H34.0837V41.3658H29.9271ZM34.0837 13.24V14.8944H31.9306L30.268 13.24H34.0837ZM26.6019 11.9247L29.5863 14.8944H29.0958C28.8754 14.8944 28.6639 14.9816 28.508 15.1367C28.3521 15.2919 28.2645 15.5023 28.2645 15.7217V41.3658H24.9393V15.7217C24.9393 15.5023 24.8517 15.2919 24.6958 15.1367C24.5399 14.9816 24.3285 14.8944 24.108 14.8944H23.6175L26.6019 11.9247ZM19.1201 41.3658V26.4756H20.7827C20.9479 26.4766 21.1095 26.4286 21.2471 26.3378C21.3847 26.2469 21.492 26.1174 21.5553 25.9656C21.6187 25.8139 21.6351 25.6468 21.6026 25.4857C21.5702 25.3246 21.4902 25.1768 21.373 25.0611L16.3851 20.0977C16.3078 20.0202 16.2159 19.9586 16.1146 19.9166C16.0133 19.8746 15.9046 19.853 15.7949 19.853C15.6851 19.853 15.5765 19.8746 15.4752 19.9166C15.3739 19.9586 15.2819 20.0202 15.2047 20.0977C9.83439 25.4499 9.75126 25.2679 10.0422 25.9628C10.3332 26.6576 10.807 26.4756 12.4696 26.4756V41.3658H8.3131V16.5489H23.2767V41.3658H19.1201ZM13.301 24.8212H12.8105L15.7949 21.8514L18.7793 24.8212H18.2888C18.0683 24.8212 17.8569 24.9083 17.701 25.0635C17.5451 25.2186 17.4575 25.429 17.4575 25.6484V41.3658H14.1323V25.6484C14.1323 25.429 14.0447 25.2186 13.8888 25.0635C13.7329 24.9083 13.5214 24.8212 13.301 24.8212ZM4.98786 14.8944C4.98786 14.4556 5.16303 14.0348 5.47483 13.7246C5.78663 13.4143 6.20952 13.24 6.65048 13.24H22.9358L21.2732 14.8944H7.48179C7.26131 14.8944 7.04986 14.9816 6.89396 15.1367C6.73806 15.2919 6.65048 15.5023 6.65048 15.7217V42.193C6.65048 42.4124 6.73806 42.6228 6.89396 42.7779C7.04986 42.9331 7.26131 43.0202 7.48179 43.0202H45.722C45.9425 43.0202 46.154 42.9331 46.3099 42.7779C46.4658 42.6228 46.5533 42.4124 46.5533 42.193V15.7217C46.5533 15.5023 46.4658 15.2919 46.3099 15.1367C46.154 14.9816 45.9425 14.8944 45.722 14.8944H40.7342V13.24H46.5533C46.9943 13.24 47.4172 13.4143 47.729 13.7246C48.0408 14.0348 48.216 14.4556 48.216 14.8944V44.6747H4.98786V14.8944ZM33.3605 46.3291L32.8035 47.1564H20.4003L19.8434 46.3291H33.3605ZM51.5412 48.8108C51.5412 49.469 51.2784 50.1002 50.8107 50.5656C50.343 51.0311 49.7087 51.2925 49.0473 51.2925H4.15655C3.49512 51.2925 2.86078 51.0311 2.39307 50.5656C1.92537 50.1002 1.66262 49.469 1.66262 48.8108V47.1564C1.66262 46.937 1.7502 46.7266 1.9061 46.5714C2.06201 46.4163 2.27345 46.3291 2.49393 46.3291H17.8399L19.2614 48.4386C19.6106 48.968 18.9206 48.8108 33.2524 48.8108C33.826 48.8108 33.8676 48.5627 35.3639 46.3291H50.7099C50.9304 46.3291 51.1418 46.4163 51.2977 46.5714C51.4536 46.7266 51.5412 46.937 51.5412 47.1564V48.8108Z" fill="#7981EE"/>
</svg>
