<svg width="39" height="39" viewBox="0 0 39 39" fill="none" xmlns="http://www.w3.org/2000/svg">
<path d="M38.4011 19.4412C38.4011 29.6302 30.0242 37.8824 19.7005 37.8824C9.37686 37.8824 1 29.6302 1 19.4412C1 9.25212 9.37686 1 19.7005 1C30.0242 1 38.4011 9.25212 38.4011 19.4412Z" stroke="white"/>
<path d="M17.61 27.2648V20.2664H15.2856V17.4854H17.61V15.2942C17.61 12.9135 19.0524 11.6177 21.1584 11.6177C22.1675 11.6177 23.0342 11.6942 23.2856 11.7277V14.2153H21.8251C20.6796 14.2153 20.4584 14.7655 20.4584 15.5692V17.4854H23.0432L22.6887 20.2664H20.4584V27.2648" fill="white"/>
</svg>
