<svg width="17" height="17" viewBox="0 0 17 17" fill="none" xmlns="http://www.w3.org/2000/svg">
<path d="M15.7158 14.2941C15.8095 14.3871 15.8839 14.4977 15.9347 14.6195C15.9855 14.7414 16.0116 14.8721 16.0116 15.0041C16.0116 15.1361 15.9855 15.2668 15.9347 15.3887C15.8839 15.5105 15.8095 15.6211 15.7158 15.7141C15.6228 15.8078 15.5122 15.8822 15.3904 15.933C15.2685 15.9838 15.1378 16.0099 15.0058 16.0099C14.8738 16.0099 14.7431 15.9838 14.6212 15.933C14.4994 15.8822 14.3888 15.8078 14.2958 15.7141L8.0058 9.41409L1.7158 15.7141C1.62284 15.8078 1.51223 15.8822 1.39038 15.933C1.26852 15.9838 1.13781 16.0099 1.0058 16.0099C0.873786 16.0099 0.743081 15.9838 0.621222 15.933C0.499362 15.8822 0.388761 15.8078 0.295798 15.7141C0.20207 15.6211 0.127676 15.5105 0.0769072 15.3887C0.0261385 15.2668 0 15.1361 0 15.0041C0 14.8721 0.0261385 14.7414 0.0769072 14.6195C0.127676 14.4977 0.20207 14.3871 0.295798 14.2941L6.5958 8.00409L0.295798 1.71409C0.107495 1.52579 0.00170659 1.27039 0.0017066 1.00409C0.00170661 0.73779 0.107495 0.482395 0.295798 0.294092C0.484102 0.105788 0.739497 5.24944e-09 1.0058 0C1.2721 -5.24944e-09 1.52749 0.105788 1.7158 0.294092L8.0058 6.59409L14.2958 0.294092C14.4841 0.105788 14.7395 0 15.0058 0C15.2721 0 15.5275 0.105788 15.7158 0.294092C15.9041 0.482395 16.0099 0.73779 16.0099 1.00409C16.0099 1.27039 15.9041 1.52579 15.7158 1.71409L9.4158 8.00409L15.7158 14.2941Z" fill="#FBFBFF"/>
</svg>
