<svg width="38" height="38" viewBox="0 0 38 38" fill="none" xmlns="http://www.w3.org/2000/svg">
<path d="M21.25 12.5H15V17.5H21.25C21.913 17.5 22.5489 17.2366 23.0178 16.7678C23.4866 16.2989 23.75 15.663 23.75 15C23.75 14.337 23.4866 13.7011 23.0178 13.2322C22.5489 12.7634 21.913 12.5 21.25 12.5Z" fill="#FD9909"/>
<path d="M21.25 20H15V25H21.25C21.913 25 22.5489 24.7366 23.0178 24.2678C23.4866 23.7989 23.75 23.163 23.75 22.5C23.75 21.837 23.4866 21.2011 23.0178 20.7322C22.5489 20.2634 21.913 20 21.25 20Z" fill="#FD9909"/>
<path d="M18.75 0C15.0416 0 11.4165 1.09967 8.33307 3.15994C5.24964 5.22022 2.84641 8.14857 1.42727 11.5747C0.00812426 15.0008 -0.363188 18.7708 0.360284 22.4079C1.08376 26.0451 2.86952 29.386 5.49176 32.0083C8.11399 34.6305 11.4549 36.4163 15.0921 37.1397C18.7292 37.8632 22.4992 37.4919 25.9253 36.0727C29.3514 34.6536 32.2798 32.2504 34.3401 29.1669C36.4003 26.0835 37.5 22.4584 37.5 18.75C37.4944 13.7789 35.5171 9.01305 32.002 5.49796C28.487 1.98287 23.7211 0.00562434 18.75 0ZM26.25 22.5C26.2459 23.6053 25.8756 24.678 25.1971 25.5505C24.5187 26.4231 23.5702 27.0462 22.5 27.3225V28.75C22.5 29.0815 22.3683 29.3995 22.1339 29.6339C21.8995 29.8683 21.5815 30 21.25 30C20.9185 30 20.6005 29.8683 20.3661 29.6339C20.1317 29.3995 20 29.0815 20 28.75V27.5H17.5V28.75C17.5 29.0815 17.3683 29.3995 17.1339 29.6339C16.8995 29.8683 16.5815 30 16.25 30C15.9185 30 15.6005 29.8683 15.3661 29.6339C15.1317 29.3995 15 29.0815 15 28.75V27.5H11.25C10.9185 27.5 10.6005 27.3683 10.3661 27.1339C10.1317 26.8995 10 26.5815 10 26.25C10 25.9185 10.1317 25.6005 10.3661 25.3661C10.6005 25.1317 10.9185 25 11.25 25H12.5V12.5H11.25C10.9185 12.5 10.6005 12.3683 10.3661 12.1339C10.1317 11.8995 10 11.5815 10 11.25C10 10.9185 10.1317 10.6005 10.3661 10.3661C10.6005 10.1317 10.9185 10 11.25 10H15V8.75C15 8.41848 15.1317 8.10054 15.3661 7.86612C15.6005 7.6317 15.9185 7.5 16.25 7.5C16.5815 7.5 16.8995 7.6317 17.1339 7.86612C17.3683 8.10054 17.5 8.41848 17.5 8.75V10H20V8.75C20 8.41848 20.1317 8.10054 20.3661 7.86612C20.6005 7.6317 20.9185 7.5 21.25 7.5C21.5815 7.5 21.8995 7.6317 22.1339 7.86612C22.3683 8.10054 22.5 8.41848 22.5 8.75V10.1775C23.3815 10.3992 24.1852 10.8589 24.8232 11.5063C25.4612 12.1538 25.9091 12.9641 26.1178 13.8488C26.3265 14.7335 26.2881 15.6585 26.0068 16.5229C25.7254 17.3872 25.212 18.1577 24.5225 18.75C25.0624 19.2147 25.4961 19.7901 25.7942 20.4371C26.0923 21.0841 26.2477 21.7876 26.25 22.5Z" fill="#FD9909"/>
</svg>
