<svg width="264" height="295" viewBox="0 0 264 295" fill="none" xmlns="http://www.w3.org/2000/svg">
<path d="M0 98.0863C0 100.278 2.1272 102.47 4.2544 102.47H55.9404V129.544H4.2544C2.1272 129.544 0 131.736 0 133.928V178.57C0 180.762 2.1272 182.954 4.2544 182.954H55.9404V289.808C55.9404 292 57.3532 293.473 59.4804 293.473H109.055C111.183 293.473 112.595 292.017 112.595 289.808V188.844C112.595 186.652 114.008 185.179 116.135 185.179H155.805C157.218 185.179 158.631 185.916 159.345 187.371L203.253 292.034C203.967 293.489 205.38 294.226 206.793 294.226H259.908C262.733 294.226 264.162 291.297 263.448 289.105L219.54 186.635C218.825 184.443 219.54 182.251 221.667 181.515C242.907 173.467 256.368 153.705 256.368 127.352V61.4755C256.368 27.8095 229.461 0 196.871 0H59.4804C57.3532 0 55.9404 1.47246 55.9404 3.66443V49.0432H4.2544C2.1272 49.0432 0 51.2351 0 53.4271V98.0863Z" fill="white"/>
<path d="M112.596 59.2832C112.596 57.0912 114.008 55.6188 116.136 55.6188H182.712C191.919 55.6188 199.713 63.6671 199.713 73.188V112.71C199.713 122.231 191.919 130.279 182.712 130.279H116.136C114.008 130.279 112.596 128.807 112.596 126.615V59.2832Z" fill="#00044C"/>
</svg>
