<svg width="180" height="326" viewBox="0 0 180 326" fill="none" xmlns="http://www.w3.org/2000/svg">
<path d="M180 211.02C180 163.677 151.791 147.445 95.3726 140.682C55.0739 135.27 47.0141 124.45 47.0141 105.51C47.0141 86.5702 60.4481 74.3992 87.3129 74.3992C111.492 74.3992 124.926 82.5153 131.641 102.806C132.986 106.864 137.016 109.568 141.046 109.568H162.536C167.91 109.568 171.94 105.51 171.94 100.101V98.7476C166.566 68.9873 142.387 45.9926 111.492 43.2883V10.8237C111.492 5.41185 107.462 1.35377 100.747 0H80.5975C75.2232 0 71.1934 4.05808 69.849 10.8237V41.9346C29.5503 47.3464 4.02987 74.3992 4.02987 108.218C4.02987 152.856 30.8946 170.439 87.3129 177.205C124.926 183.967 137.016 192.083 137.016 213.728C137.016 235.372 118.208 250.25 92.6871 250.25C57.7594 250.25 45.6698 235.368 41.6399 215.078C40.2988 209.67 36.2689 206.962 32.239 206.962H9.4009C4.02989 206.962 0 211.02 0 216.432V217.786C5.37102 251.601 26.8648 275.949 71.1934 282.715V315.18C71.1934 320.588 75.2233 324.646 81.9386 326H102.088C107.462 326 111.492 321.942 112.837 315.18V282.715C153.135 275.949 180 247.543 180 211.02V211.02Z" fill="white"/>
</svg>
