<svg width="264" height="295" viewBox="0 0 264 295" fill="none" xmlns="http://www.w3.org/2000/svg">
<path fill-rule="evenodd" clip-rule="evenodd" d="M58.7904 0H99.9066C101.477 0 102.733 1.28696 102.733 2.85991V63.0325C102.733 64.634 104.018 65.8924 105.589 65.8924H158.383C159.953 65.8924 161.238 64.634 161.238 63.0325V2.85991C161.238 1.28696 162.495 0 164.093 0H205.181C206.751 0 208.036 1.28696 208.036 2.85991V63.0325C208.036 64.634 209.293 65.8924 210.892 65.8924H261.145C262.744 65.8924 264 67.1793 264 68.7523V109.821C264 111.422 262.744 112.681 261.145 112.681H210.892C209.293 112.681 208.036 113.968 208.036 115.54V179.46C208.036 181.032 209.293 182.319 210.892 182.319H261.145C262.744 182.319 264 183.578 264 185.179V226.248C264 227.821 262.744 229.108 261.145 229.108H210.892C209.293 229.108 208.036 230.395 208.036 231.968V292.14C208.036 293.713 206.751 295 205.181 295H164.093C162.495 295 161.238 293.713 161.238 292.14V231.968C161.238 230.366 159.953 229.108 158.383 229.108H105.617C104.047 229.108 102.762 230.395 102.762 231.968V292.14C102.762 293.713 101.506 295 99.9351 295H58.819C57.2485 295 55.9637 293.713 55.9637 292.14V231.968C55.9637 230.366 54.7073 229.108 53.1084 229.108H2.85529C1.25633 229.108 0 227.821 0 226.248V185.179C0 183.578 1.25633 182.319 2.85529 182.319H53.1084C54.7073 182.319 55.9637 181.032 55.9637 179.46V115.54C55.9637 113.968 54.7073 112.681 53.1084 112.681H2.85529C1.25633 112.681 0 111.422 0 109.821V68.7523C0 67.1793 1.25633 65.8924 2.85529 65.8924H53.1084C54.7073 65.8924 55.9637 64.634 55.9637 63.0325V2.85991C55.9066 1.28696 57.22 0 58.7904 0ZM161.267 179.488V115.54C161.267 113.968 159.982 112.681 158.411 112.681H105.617C104.047 112.681 102.762 113.968 102.762 115.54V179.46C102.762 181.032 104.047 182.319 105.617 182.319H158.411C159.982 182.348 161.267 181.032 161.267 179.488Z" fill="white"/>
</svg>
