<svg width="764" height="1369" viewBox="0 0 764 1369" fill="none" xmlns="http://www.w3.org/2000/svg">
<g filter="url(#filter0_d)">
<path d="M1237.66 -674.734C1276.5 -496.722 1504.88 549.752 1549.66 754.95C1358.94 850.108 1329.52 864.791 1007.51 1025.46C831.405 1113.33 829.34 388.787 544.676 467.64C260.013 546.492 8.21698 197.636 21.0874 -67.7128L1237.66 -674.734Z" fill="#0009A0"/>
<path d="M1237.66 -674.734C1276.5 -496.722 1504.88 549.752 1549.66 754.95C1358.94 850.108 1329.52 864.791 1007.51 1025.46C831.405 1113.33 829.34 388.787 544.676 467.64C260.013 546.492 8.21698 197.636 21.0874 -67.7128L1237.66 -674.734Z" fill="#000CD5"/>
</g>
<g filter="url(#filter1_d)">
<path d="M1267.63 -741.981C1306.48 -563.969 1534.85 482.504 1579.63 687.702C1388.92 782.861 1359.49 797.543 1037.48 958.214C861.376 1046.08 859.311 321.54 574.648 400.393C289.984 479.245 38.1883 130.389 51.0587 -134.96L1267.63 -741.981Z" fill="#0009A0"/>
<path d="M1267.63 -741.981C1306.48 -563.969 1534.85 482.504 1579.63 687.702C1388.92 782.861 1359.49 797.543 1037.48 958.214C861.376 1046.08 859.311 321.54 574.648 400.393C289.984 479.245 38.1883 130.389 51.0587 -134.96L1267.63 -741.981Z" fill="#030A80"/>
</g>
<g filter="url(#filter2_d)">
<path d="M1296.63 -818C1335.52 -640.012 1564.1 406.319 1608.92 611.489C1418.21 706.549 1388.78 721.215 1066.76 881.719C890.658 969.495 888.463 245.115 603.784 323.833C319.105 402.552 67.2198 53.6714 80.0442 -211.612L1296.63 -818Z" fill="#00044D"/>
</g>
<defs>
<filter id="filter0_d" x="0.614639" y="-690.734" width="1569.04" height="1747.6" filterUnits="userSpaceOnUse" color-interpolation-filters="sRGB">
<feFlood flood-opacity="0" result="BackgroundImageFix"/>
<feColorMatrix in="SourceAlpha" type="matrix" values="0 0 0 0 0 0 0 0 0 0 0 0 0 0 0 0 0 0 127 0"/>
<feOffset dy="4"/>
<feGaussianBlur stdDeviation="10"/>
<feColorMatrix type="matrix" values="0 0 0 0 0 0 0 0 0 0 0 0 0 0 0 0 0 0 0.5 0"/>
<feBlend mode="normal" in2="BackgroundImageFix" result="effect1_dropShadow"/>
<feBlend mode="normal" in="SourceGraphic" in2="effect1_dropShadow" result="shape"/>
</filter>
<filter id="filter1_d" x="30.5859" y="-757.981" width="1569.04" height="1747.6" filterUnits="userSpaceOnUse" color-interpolation-filters="sRGB">
<feFlood flood-opacity="0" result="BackgroundImageFix"/>
<feColorMatrix in="SourceAlpha" type="matrix" values="0 0 0 0 0 0 0 0 0 0 0 0 0 0 0 0 0 0 127 0"/>
<feOffset dy="4"/>
<feGaussianBlur stdDeviation="10"/>
<feColorMatrix type="matrix" values="0 0 0 0 0 0 0 0 0 0 0 0 0 0 0 0 0 0 0.25 0"/>
<feBlend mode="normal" in2="BackgroundImageFix" result="effect1_dropShadow"/>
<feBlend mode="normal" in="SourceGraphic" in2="effect1_dropShadow" result="shape"/>
</filter>
<filter id="filter2_d" x="59.5749" y="-834" width="1569.35" height="1747.11" filterUnits="userSpaceOnUse" color-interpolation-filters="sRGB">
<feFlood flood-opacity="0" result="BackgroundImageFix"/>
<feColorMatrix in="SourceAlpha" type="matrix" values="0 0 0 0 0 0 0 0 0 0 0 0 0 0 0 0 0 0 127 0"/>
<feOffset dy="4"/>
<feGaussianBlur stdDeviation="10"/>
<feColorMatrix type="matrix" values="0 0 0 0 0 0 0 0 0 0 0 0 0 0 0 0 0 0 0.25 0"/>
<feBlend mode="normal" in2="BackgroundImageFix" result="effect1_dropShadow"/>
<feBlend mode="normal" in="SourceGraphic" in2="effect1_dropShadow" result="shape"/>
</filter>
</defs>
</svg>
