<svg  height="100vh" preserveAspectRatio="none" fill="none" xmlns="http://www.w3.org/2000/svg">
<path d="M662.939 -756.765C758.177 -674.681 1318.05 -192.135 1427.83 -97.5146C1300.9 55.3469 1281.31 78.932 1067 337.031C949.788 478.182 693.383 63.6648 481.713 255.589C270.043 447.512 -64.3217 377.175 -146.765 218.344L662.939 -756.765Z" fill="#0009A0"/>
<path d="M662.939 -756.765C758.177 -674.681 1318.05 -192.135 1427.83 -97.5146C1300.9 55.3469 1281.31 78.932 1067 337.031C949.788 478.182 693.383 63.6648 481.713 255.589C270.043 447.512 -64.3217 377.175 -146.765 218.344L662.939 -756.765Z" fill="#000CD5"/>
<path d="M665.144 -816.052C760.382 -733.968 1320.25 -251.423 1430.04 -156.802C1303.1 -3.94086 1283.52 19.6442 1069.2 277.744C951.993 418.894 695.588 4.37713 483.918 196.301C272.248 388.225 -62.1167 317.887 -144.56 159.056L665.144 -816.052Z" fill="#0009A0"/>
<path d="M665.144 -816.052C760.382 -733.968 1320.25 -251.423 1430.04 -156.802C1303.1 -3.94086 1283.52 19.6442 1069.2 277.744C951.993 418.894 695.588 4.37713 483.918 196.301C272.248 388.225 -62.1167 317.887 -144.56 159.056L665.144 -816.052Z" fill="#030A80"/>
<path d="M662.815 -874.602C758.075 -792.55 1318.07 -310.195 1427.88 -215.612C1300.91 -62.8059 1281.32 -39.2294 1066.94 218.776C949.698 359.875 693.24 -54.4815 481.51 137.373C269.78 329.228 -64.6679 258.922 -147.128 100.153L662.815 -874.602Z" fill="#00044D"/>
</svg>
