<svg width="517" height="256" viewBox="0 0 517 256" fill="none" xmlns="http://www.w3.org/2000/svg">
<g clip-path="url(#clip0)">
<path d="M177.085 204.627C179.461 198.419 179.805 192.783 177.854 192.038C175.903 191.293 172.395 195.722 170.019 201.929C167.643 208.137 167.299 213.773 169.251 214.518C171.202 215.263 174.71 210.834 177.085 204.627Z" fill="#2F2E41"/>
<path d="M175.065 225.306C177.197 212.187 168.276 199.825 155.139 197.696C142.003 195.567 129.625 204.477 127.493 217.596C125.361 230.716 134.283 243.077 147.419 245.206C160.556 247.335 172.934 238.426 175.065 225.306Z" fill="#2F2E41"/>
<path d="M147.619 240.338H140.298V253.438H147.619V240.338Z" fill="#2F2E41"/>
<path d="M162.26 240.338H154.939V253.438H162.26V240.338Z" fill="#2F2E41"/>
<path d="M146.399 255.875C149.768 255.875 152.499 254.852 152.499 253.59C152.499 252.328 149.768 251.305 146.399 251.305C143.03 251.305 140.298 252.328 140.298 253.59C140.298 254.852 143.03 255.875 146.399 255.875Z" fill="#2F2E41"/>
<path d="M161.04 255.57C164.409 255.57 167.141 254.547 167.141 253.285C167.141 252.023 164.409 251 161.04 251C157.671 251 154.939 252.023 154.939 253.285C154.939 254.547 157.671 255.57 161.04 255.57Z" fill="#2F2E41"/>
<path d="M152.131 223.58C156.678 223.447 160.255 219.658 160.121 215.117C159.988 210.576 156.194 207.004 151.647 207.137C147.101 207.271 143.523 211.06 143.657 215.6C143.791 220.141 147.585 223.714 152.131 223.58Z" fill="white"/>
<path d="M151.889 218.1C153.405 218.1 154.634 216.873 154.634 215.359C154.634 213.844 153.405 212.617 151.889 212.617C150.373 212.617 149.144 213.844 149.144 215.359C149.144 216.873 150.373 218.1 151.889 218.1Z" fill="#3F3D56"/>
<path d="M127.904 199.071C125.958 190.368 132.178 181.574 141.796 179.43C151.414 177.285 160.789 182.601 162.734 191.303C164.68 200.006 158.306 203.216 148.688 205.36C139.069 207.505 129.85 207.773 127.904 199.071Z" fill="#E6E6E6"/>
<path d="M135.024 215.441C135.919 213.556 131.771 209.719 125.759 206.871C119.746 204.024 114.147 203.243 113.251 205.128C112.356 207.013 116.505 210.85 122.517 213.698C128.529 216.545 134.129 217.326 135.024 215.441Z" fill="#2F2E41"/>
<path d="M139.443 230.133C139.443 232.489 145.515 237.14 152.254 237.14C158.992 237.14 165.31 230.508 165.31 228.153C165.31 225.798 158.992 228.61 152.254 228.61C145.515 228.61 139.443 227.778 139.443 230.133Z" fill="white"/>
<path d="M320.752 156.052L294.578 181.851L235.425 240.145L234.228 241.324L227.558 247.895L213.576 234.099L212.345 232.886L186.78 207.668H186.775L178.583 199.582L173.743 194.804L159.33 180.588L157.383 178.666L134.409 156.001C129.845 151.445 125.976 146.242 122.927 140.562C122.648 140.053 122.385 139.539 122.127 139.025C116.679 128.177 114.348 116.033 115.393 103.941C116.437 91.8497 120.817 80.284 128.046 70.5282C135.274 60.7724 145.069 53.2082 156.342 48.6756C167.615 44.1429 179.925 42.8191 191.905 44.8511H191.911C192.124 44.8846 192.331 44.9182 192.543 44.9629C194.791 45.359 197.015 45.8757 199.207 46.5107C204.943 48.1665 210.424 50.5974 215.5 53.736C216.032 54.0657 216.558 54.4009 217.078 54.7418C220.799 57.1973 224.261 60.0224 227.413 63.174L227.609 62.9785L227.804 63.174C229.713 61.2681 231.737 59.4804 233.864 57.8208C234.328 57.4575 234.799 57.0999 235.268 56.7535C242.464 51.4547 250.667 47.6779 259.375 45.6544C268.083 43.6309 277.112 43.4032 285.911 44.9852C288.161 45.3811 290.387 45.8997 292.581 46.5387C293.314 46.7455 294.041 46.969 294.763 47.2092C295.345 47.3992 295.926 47.5948 296.503 47.8071C301.301 49.5201 305.881 51.7895 310.15 54.5686C311.084 55.1776 312.005 55.8147 312.914 56.4797C320.602 62.0614 326.988 69.2412 331.631 77.5245C336.274 85.8078 339.064 94.9978 339.809 104.462C340.554 113.925 339.236 123.438 335.947 132.344C332.657 141.25 327.473 149.338 320.752 156.052Z" fill="#6C63FF"/>
<path opacity="0.15" d="M294.578 181.851L235.425 240.145L234.228 241.324L227.558 247.895L213.576 234.099L212.345 232.886L186.78 207.668C190.887 206.712 197.198 208.025 199.509 209.165C204.987 211.864 209.491 216.295 215.053 218.821C220.019 221.06 225.568 221.673 230.904 220.57C240.875 218.48 248.591 210.78 255.395 203.203C262.198 195.62 269.153 187.484 278.715 183.969C283.757 182.114 289.173 181.695 294.578 181.851Z" fill="black"/>
<path d="M337.583 64.2525C329.444 56.1003 319.311 50.2153 308.192 47.1813C307.453 46.9745 306.72 46.7901 305.976 46.6169C302.776 45.8534 299.524 45.3323 296.246 45.0578C295.675 45.002 295.104 44.9629 294.528 44.9349C291.653 44.7533 288.768 44.7645 285.895 44.9684C270.153 46.0204 255.304 52.6485 244.02 63.6602L243.818 63.459L243.617 63.6602C236.244 56.4756 227.298 51.1035 217.487 47.9692C216.933 47.7904 216.374 47.6171 215.814 47.4551C208.258 45.2663 200.375 44.4246 192.527 44.9684C192.309 44.9796 192.09 44.9964 191.878 45.0187C177.487 46.1207 163.851 51.8898 153.047 61.4473C152.028 62.3414 151.027 63.2802 150.053 64.2525C140.907 73.4039 134.627 85.0173 131.98 97.6744C129.333 110.331 130.433 123.484 135.148 135.527C135.343 136.052 135.556 136.572 135.78 137.092C139.11 145.021 143.958 152.225 150.053 158.298L171.83 179.767L173.542 181.46L220.665 227.913L221.879 229.114L234.256 241.318L243.818 250.745L337.583 158.292C350.052 145.812 357.055 128.902 357.055 111.272C357.055 93.6424 350.052 76.7324 337.583 64.2525ZM336.403 157.102L243.818 248.387L235.453 240.139L223.34 228.198L222.126 227.002L175.92 181.443L174.236 179.784L151.239 157.108C145.336 151.227 140.631 144.259 137.386 136.589C137.162 136.069 136.949 135.549 136.753 135.03C132.128 123.28 131.035 110.438 133.608 98.0766C136.181 85.7155 142.308 74.3724 151.239 65.4372C152.28 64.3978 153.345 63.4031 154.434 62.4532H154.44C164.834 53.369 177.872 47.8537 191.637 46.7175C193.467 46.561 195.298 46.4828 197.132 46.4828C197.82 46.4828 198.502 46.4939 199.191 46.5163C204.814 46.6892 210.39 47.5908 215.78 49.1985C216.335 49.3606 216.888 49.5338 217.437 49.7182C223.268 51.6163 228.795 54.3433 233.848 57.8152C237.137 60.0677 240.211 62.6192 243.029 65.4372L243.623 66.0295L243.818 65.8339L244.014 66.0295L244.607 65.4372C250.876 59.1697 258.368 54.2561 266.617 51.0012C274.867 47.7464 283.699 46.2198 292.564 46.5163C293.275 46.5387 293.985 46.5722 294.696 46.6225C295.267 46.656 295.837 46.6951 296.403 46.751C300.009 47.074 303.582 47.7002 307.084 48.623C307.833 48.813 308.578 49.0197 309.316 49.2488C320.051 52.491 329.761 58.4568 337.5 66.5644C345.238 74.6719 350.739 84.6442 353.468 95.5084C356.196 106.372 356.058 117.757 353.068 128.553C350.077 139.348 344.335 149.184 336.403 157.102Z" fill="#3F3D56"/>
<path opacity="0.15" d="M206.397 49.0477C202.805 51.8808 198.95 54.4959 196.616 58.3684C194.899 61.2294 194.155 64.5543 193.6 67.84C192.526 74.2326 192.068 80.7817 189.964 86.9117C187.865 93.0417 183.77 98.8979 177.699 101.183C173.933 102.597 169.782 102.519 165.77 102.245C155.872 101.574 145.907 99.8031 136.999 95.4501C132.02 93.0137 127.191 89.728 121.657 89.3648C120.531 89.2925 119.4 89.3544 118.289 89.5492C123.117 74.4969 133.22 61.6893 146.744 53.4783C160.267 45.2673 176.302 42.2041 191.905 44.8511H191.911C192.124 44.8846 192.331 44.9182 192.543 44.9629C194.791 45.359 197.015 45.8757 199.207 46.5107C201.651 47.2167 204.052 48.0638 206.397 49.0477Z" fill="black"/>
<path d="M48.5465 226.22C51.1526 227.134 53.9507 227.364 56.6712 226.885C59.3918 226.406 61.9431 225.236 64.0793 223.487C69.5198 218.927 71.2255 211.413 72.6134 204.457L76.7185 183.88L68.124 189.79C61.9433 194.04 55.6234 198.426 51.3439 204.583C47.0644 210.739 45.1964 219.143 48.6348 225.804L48.5465 226.22Z" fill="#E6E6E6"/>
<path d="M49.2813 251.132C48.4114 244.804 47.5169 238.395 48.1271 231.999C48.669 226.319 50.4042 220.771 53.9369 216.222C55.812 213.812 58.0937 211.747 60.6793 210.12C61.3535 209.695 61.9741 210.762 61.3028 211.185C56.8289 214.009 53.3685 218.179 51.4205 223.094C49.269 228.559 48.9235 234.516 49.2943 240.322C49.5185 243.833 49.9937 247.321 50.4725 250.804C50.5103 250.962 50.4867 251.128 50.4066 251.269C50.3266 251.409 50.1959 251.515 50.0411 251.563C49.8832 251.605 49.7148 251.584 49.5726 251.503C49.4303 251.423 49.3257 251.289 49.2813 251.132H49.2813Z" fill="#F2F2F2"/>
<path d="M57.6597 239.935C58.7774 241.631 60.3138 243.012 62.1208 243.943C63.9278 244.874 65.9445 245.325 67.9767 245.253C73.1994 245.005 77.5534 241.365 81.4729 237.908L93.0659 227.686L85.3933 227.319C79.8756 227.056 74.2155 226.81 68.9601 228.509C63.7047 230.208 58.8579 234.298 57.8969 239.731L57.6597 239.935Z" fill="#E6E6E6"/>
<path d="M46.823 254.77C51.0099 247.371 55.8663 239.148 64.5439 236.52C66.9567 235.792 69.4867 235.531 71.9976 235.751C72.7889 235.82 72.5913 237.038 71.8014 236.97C67.5926 236.621 63.3919 237.731 59.9065 240.113C56.5526 242.393 53.9412 245.562 51.7309 248.924C50.3771 250.983 49.1644 253.129 47.9515 255.272C47.5639 255.957 46.4309 255.463 46.823 254.77H46.823Z" fill="#F2F2F2"/>
<path d="M167.908 66.5628C181.216 66.5628 192.005 55.7881 192.005 42.4969C192.005 29.2057 181.216 18.431 167.908 18.431C154.599 18.431 143.811 29.2057 143.811 42.4969C143.811 55.7881 154.599 66.5628 167.908 66.5628Z" fill="#2F2E41"/>
<path d="M164.247 61.3841H156.927V74.4832H164.247V61.3841Z" fill="#2F2E41"/>
<path d="M178.889 61.3841H171.568V74.4832H178.889V61.3841Z" fill="#2F2E41"/>
<path d="M163.027 76.9202C166.397 76.9202 169.128 75.8973 169.128 74.6355C169.128 73.3737 166.397 72.3508 163.027 72.3508C159.658 72.3508 156.927 73.3737 156.927 74.6355C156.927 75.8973 159.658 76.9202 163.027 76.9202Z" fill="#2F2E41"/>
<path d="M177.669 76.6156C181.038 76.6156 183.769 75.5927 183.769 74.3309C183.769 73.069 181.038 72.0461 177.669 72.0461C174.299 72.0461 171.568 73.069 171.568 74.3309C171.568 75.5927 174.299 76.6156 177.669 76.6156Z" fill="#2F2E41"/>
<path d="M168.518 44.6293C173.066 44.6293 176.754 40.9468 176.754 36.4043C176.754 31.8617 173.066 28.1792 168.518 28.1792C163.97 28.1792 160.282 31.8617 160.282 36.4043C160.282 40.9468 163.97 44.6293 168.518 44.6293Z" fill="white"/>
<path d="M173.262 40.0254C174.33 38.9594 174.324 37.2246 173.249 36.1505C172.174 35.0765 170.437 35.07 169.369 36.136C168.301 37.202 168.307 38.9368 169.382 40.0108C170.457 41.0848 172.194 41.0913 173.262 40.0254Z" fill="#3F3D56"/>
<path d="M144.533 20.1164C142.587 11.4138 148.807 2.6202 158.425 0.475327C168.043 -1.66955 177.417 3.64656 179.363 12.3491C181.309 21.0517 174.934 24.2614 165.316 26.4062C155.698 28.5511 146.478 28.819 144.533 20.1164Z" fill="#E6E6E6"/>
<path d="M361.682 206.47C363.293 205.143 361.168 199.91 356.934 194.783C352.7 189.656 347.962 186.576 346.35 187.903C344.739 189.231 346.864 194.463 351.098 199.59C355.332 204.717 360.07 207.797 361.682 206.47Z" fill="#2F2E41"/>
<path d="M378.854 244.961C391.99 242.832 400.911 230.471 398.78 217.351C396.648 204.231 384.27 195.322 371.134 197.451C357.997 199.58 349.076 211.941 351.208 225.061C353.339 238.18 365.717 247.09 378.854 244.961Z" fill="#2F2E41"/>
<path d="M385.975 240.093H378.654V253.192H385.975V240.093Z" fill="#2F2E41"/>
<path d="M371.333 240.093H364.013V253.192H371.333V240.093Z" fill="#2F2E41"/>
<path d="M379.874 255.629C383.243 255.629 385.975 254.606 385.975 253.344C385.975 252.083 383.243 251.06 379.874 251.06C376.505 251.06 373.773 252.083 373.773 253.344C373.773 254.606 376.505 255.629 379.874 255.629Z" fill="#2F2E41"/>
<path d="M365.233 255.325C368.602 255.325 371.333 254.302 371.333 253.04C371.333 251.778 368.602 250.755 365.233 250.755C361.864 250.755 359.132 251.778 359.132 253.04C359.132 254.302 361.864 255.325 365.233 255.325Z" fill="#2F2E41"/>
<path d="M383.43 208.366C375.833 202.096 371.611 196.348 377.298 189.474C382.985 182.6 393.755 182.11 401.352 188.38C408.949 194.649 410.497 205.304 404.809 212.177C399.122 219.051 391.027 214.635 383.43 208.366Z" fill="#6C63FF"/>
<path d="M366.904 216.939C371.451 216.806 375.028 213.017 374.894 208.476C374.761 203.936 370.967 200.363 366.42 200.496C361.874 200.63 358.296 204.419 358.43 208.96C358.564 213.5 362.358 217.073 366.904 216.939Z" fill="white"/>
<path d="M363.768 209.422C365.284 209.422 366.513 208.195 366.513 206.681C366.513 205.167 365.284 203.939 363.768 203.939C362.252 203.939 361.022 205.167 361.022 206.681C361.022 208.195 362.252 209.422 363.768 209.422Z" fill="#3F3D56"/>
<path d="M354.214 215.492C352.546 217.158 351.367 222.558 353.713 224.9C356.058 227.243 362.953 224.751 364.621 223.085C366.288 221.42 362.098 221.212 359.752 218.869C357.406 216.526 355.881 213.827 354.214 215.492Z" fill="white"/>
<path d="M397.867 253.388C399.819 252.643 399.475 247.007 397.099 240.8C394.723 234.592 391.215 230.164 389.264 230.908C387.313 231.653 387.657 237.289 390.033 243.497C392.408 249.705 395.916 254.133 397.867 253.388Z" fill="#2F2E41"/>
<path d="M516.44 256H0.559524C0.411129 256 0.268811 255.941 0.16388 255.836C0.0589492 255.732 0 255.589 0 255.441C0 255.293 0.0589492 255.151 0.16388 255.046C0.268811 254.941 0.411129 254.882 0.559524 254.882H516.44C516.589 254.882 516.731 254.941 516.836 255.046C516.941 255.151 517 255.293 517 255.441C517 255.589 516.941 255.732 516.836 255.836C516.731 255.941 516.589 256 516.44 256Z" fill="#CCCCCC"/>
</g>
<defs>
<clipPath id="clip0">
<rect width="517" height="256" fill="white"/>
</clipPath>
</defs>
</svg>
