<svg width="39" height="39" viewBox="0 0 39 39" fill="none" xmlns="http://www.w3.org/2000/svg">
<path d="M5.86558 38.0096H32.14C33.6951 38.0079 35.186 37.3893 36.2856 36.2897C37.3853 35.19 38.0038 33.6991 38.0055 32.144V10.329C38.0034 8.79092 37.3977 7.31515 36.3186 6.21913C35.2396 5.1231 33.7735 4.49439 32.2356 4.46824V4.08688C32.2362 3.55038 32.131 3.01904 31.926 2.52322C31.7211 2.0274 31.4205 1.57683 31.0413 1.19727C30.6621 0.817716 30.2119 0.516613 29.7163 0.311177C29.2206 0.105741 28.6894 0 28.1529 0C27.6164 0 27.0852 0.105741 26.5896 0.311177C26.0939 0.516613 25.6437 0.817716 25.2645 1.19727C24.8853 1.57683 24.5847 2.0274 24.3798 2.52322C24.1748 3.01904 24.0696 3.55038 24.0702 4.08688V4.46339H13.9354V4.08688C13.9359 3.55038 13.8307 3.01904 13.6258 2.52322C13.4208 2.0274 13.1202 1.57683 12.741 1.19727C12.3619 0.817716 11.9116 0.516613 11.416 0.311177C10.9204 0.105741 10.3891 0 9.85263 0C9.31613 0 8.78489 0.105741 8.28928 0.311177C7.79367 0.516613 7.34341 0.817716 6.96424 1.19727C6.58507 1.57683 6.28442 2.0274 6.07949 2.52322C5.87456 3.01904 5.76936 3.55038 5.7699 4.08688V4.46824C4.23207 4.49439 2.76595 5.1231 1.68691 6.21913C0.607866 7.31515 0.0021301 8.79092 0 10.329V32.144C0.00173915 33.6991 0.620277 35.19 1.71991 36.2897C2.81954 37.3893 4.31047 38.0079 5.86558 38.0096ZM32.14 35.4759H5.86558C4.98222 35.4749 4.13533 35.1235 3.5107 34.4989C2.88607 33.8743 2.53471 33.0274 2.5337 32.144V16.4731H35.4718V32.144C35.4708 33.0274 35.1195 33.8743 34.4948 34.4989C33.8702 35.1235 33.0233 35.4749 32.14 35.4759ZM26.6039 4.08688C26.6035 3.88325 26.6434 3.68154 26.7211 3.49331C26.7988 3.30508 26.9128 3.13401 27.0567 2.9899C27.2005 2.84579 27.3714 2.73146 27.5595 2.65345C27.7476 2.57545 27.9493 2.5353 28.1529 2.5353C28.3565 2.5353 28.5582 2.57545 28.7463 2.65345C28.9344 2.73146 29.1053 2.84579 29.2491 2.9899C29.393 3.13401 29.5071 3.30508 29.5848 3.49331C29.6625 3.68154 29.7023 3.88325 29.7019 4.08688V7.3769C29.7013 7.78728 29.5378 8.18063 29.2473 8.47057C28.9569 8.76052 28.5633 8.92337 28.1529 8.92337C27.7425 8.92337 27.3489 8.76052 27.0585 8.47057C26.7681 8.18063 26.6046 7.78728 26.6039 7.3769V4.08688ZM8.30361 4.08688C8.30327 3.88325 8.34309 3.68154 8.42078 3.49331C8.49848 3.30508 8.61253 3.13401 8.7564 2.9899C8.90027 2.84579 9.07115 2.73146 9.25926 2.65345C9.44736 2.57545 9.649 2.5353 9.85263 2.5353C10.0563 2.5353 10.2579 2.57545 10.446 2.65345C10.6341 2.73146 10.805 2.84579 10.9489 2.9899C11.0927 3.13401 11.2068 3.30508 11.2845 3.49331C11.3622 3.68154 11.402 3.88325 11.4017 4.08688V7.3769C11.401 7.78728 11.2375 8.18063 10.9471 8.47057C10.6566 8.76052 10.263 8.92337 9.85263 8.92337C9.44225 8.92337 9.04864 8.76052 8.75821 8.47057C8.46778 8.18063 8.30428 7.78728 8.30361 7.3769V4.08688ZM5.7699 7.00194V7.3769C5.771 8.45899 6.20163 9.49638 6.96717 10.2611C7.73272 11.0259 8.77055 11.4555 9.85263 11.4555C10.9347 11.4555 11.9726 11.0259 12.7381 10.2611C13.5036 9.49638 13.9343 8.45899 13.9354 7.3769V6.9971H24.0702V7.3769C24.0713 8.45899 24.5019 9.49638 25.2674 10.2611C26.033 11.0259 27.0708 11.4555 28.1529 11.4555C29.235 11.4555 30.2728 11.0259 31.0384 10.2611C31.8039 9.49638 32.2345 8.45899 32.2356 7.3769V7.00194C33.1016 7.02725 33.9238 7.38872 34.5278 8.00975C35.1319 8.63079 35.4705 9.4626 35.4718 10.329V13.9394H2.5337V10.329C2.53504 9.4626 2.87362 8.63079 3.4777 8.00975C4.08178 7.38872 4.9039 7.02725 5.7699 7.00194ZM25.0886 20.5836C25.3261 20.346 25.6483 20.2126 25.9843 20.2125C26.3203 20.2125 26.6425 20.3459 26.8801 20.5835C26.9977 20.7011 27.0911 20.8408 27.1548 20.9945C27.2184 21.1482 27.2512 21.3129 27.2512 21.4793C27.2513 21.6457 27.2185 21.8104 27.1548 21.9642C27.0912 22.1179 26.9978 22.2575 26.8802 22.3752L18.5756 30.68C18.4579 30.7976 18.3183 30.8909 18.1646 30.9546C18.0109 31.0182 17.8462 31.051 17.6798 31.051C17.5135 31.051 17.3487 31.0182 17.195 30.9546C17.0414 30.8909 16.9017 30.7976 16.7841 30.68L13.659 27.5548C13.4215 27.3172 13.288 26.995 13.288 26.6591C13.288 26.3231 13.4215 26.0009 13.659 25.7634C13.8966 25.5258 14.2188 25.3923 14.5547 25.3923C14.8907 25.3923 15.2129 25.5258 15.4505 25.7633L17.6798 27.9925L25.0886 20.5836Z" fill="#7981EE"/>
</svg>
