<svg width="224" height="294" viewBox="0 0 224 294" fill="none" xmlns="http://www.w3.org/2000/svg">
<path d="M38.0811 9.99787e-05V16.467V194.725H0.00012207V227.632H38.0811V277.536V294H54.6102H141.968C141.968 294 161.779 294.22 182.098 284.098C202.419 273.978 224 250.399 224 212.277C224 176.229 208.215 152.636 190.479 140.182C203.036 128.025 213.084 108.627 213.084 81.7202C213.084 44.5146 195.56 21.1534 177.745 10.5047C159.929 -0.143959 141.966 9.99787e-05 141.966 9.99787e-05H54.6072H38.0811ZM71.1097 32.9045H141.966C141.966 32.9045 151.264 33.0574 160.749 38.7257C170.234 44.394 180.046 53.655 180.046 81.7202C180.046 108.171 170.709 116.068 161.331 121.166C152.66 125.882 144.2 126.158 142.919 126.176C142.193 126.196 140.965 126.196 140.965 126.196H71.1097V32.9045ZM142.945 159.06C142.96 159.06 142.975 159.06 142.995 159.06C143.143 159.054 155.408 158.619 167.295 164.578C179.256 170.576 190.966 180.381 190.966 212.28C190.966 239.433 179.778 248.477 167.339 254.671C154.9 260.869 141.966 261.095 141.966 261.095H71.1097V227.632H131.026V194.722H71.1097V159.104H141.966V159.08C142.29 159.074 142.624 159.06 142.945 159.06Z" fill="white"/>
</svg>
