<svg width="249" height="373" viewBox="0 0 249 373" fill="none" xmlns="http://www.w3.org/2000/svg">
<path d="M0.111443 188.072C0.131324 188.824 0.302309 189.539 0.624386 190.228C0.727769 190.458 0.80729 190.682 0.950435 190.894C1.44747 191.672 2.0797 192.383 2.97038 192.889C2.98231 192.897 3.00616 192.897 3.01809 192.904C3.034 192.912 3.03798 192.93 3.05388 192.938L121.371 257.843C121.463 257.896 121.57 257.87 121.67 257.922C122.521 258.331 123.459 258.636 124.497 258.636C125.535 258.636 126.473 258.331 127.332 257.907C127.439 257.866 127.562 257.881 127.666 257.829L243.88 192.912C244.791 192.405 245.427 191.679 245.944 190.887C246.083 190.667 246.17 190.462 246.27 190.228C246.596 189.535 246.767 188.824 246.795 188.072C246.795 187.912 246.906 187.782 246.894 187.629C246.894 187.558 246.834 187.51 246.818 187.439C246.747 186.587 246.52 185.753 246.023 184.971L129.805 2.82183C129.761 2.74737 129.686 2.71759 129.634 2.64686C129.495 2.43839 129.324 2.27459 129.153 2.08845C128.938 1.85392 128.72 1.64545 128.469 1.43697C128.278 1.29179 128.107 1.13171 127.904 1.01258C127.825 0.960463 127.785 0.886009 127.706 0.841336C127.57 0.763159 127.423 0.763159 127.288 0.699873C127.018 0.565854 126.747 0.469064 126.449 0.372273C126.203 0.290373 125.956 0.208473 125.69 0.160077C125.427 0.104236 125.173 0.0930682 124.91 0.0819C124.767 0.0670091 124.64 0 124.497 0C124.354 0 124.242 0.0670091 124.099 0.0744545C123.845 0.0967909 123.606 0.100514 123.36 0.148909C123.077 0.197304 122.819 0.282927 122.54 0.36855C122.25 0.461618 121.98 0.562132 121.709 0.69615C121.586 0.759436 121.447 0.759436 121.324 0.822723C121.252 0.863673 121.208 0.934404 121.141 0.975354C120.922 1.10937 120.735 1.27317 120.528 1.4407C120.282 1.64172 120.059 1.83903 119.845 2.07356C119.689 2.25225 119.518 2.41233 119.391 2.60219C119.332 2.67664 119.256 2.71387 119.204 2.78832L0.890793 184.941C0.377856 185.723 0.151212 186.576 0.0716866 187.443C0.0637341 187.517 0.00806026 187.566 0.000107739 187.644C-0.00386852 187.785 0.10349 187.92 0.111443 188.072ZM130.684 26.7701L225.188 174.901L130.684 134.316V26.7701ZM118.314 134.282L21.8457 174.976L118.314 26.4574V134.282ZM118.314 146.992V242.733L19.6428 188.612L118.314 146.992ZM130.684 242.64V147.051L227.434 188.612L130.684 242.64Z" fill="white"/>
<path d="M246.365 207.863C244.405 205.852 241.176 205.454 238.671 206.798L124.497 269.909L10.3663 206.798C7.87319 205.439 4.64447 205.852 2.66032 207.863C0.68412 209.888 0.477352 212.903 2.16726 215.14L119.447 369.838C119.538 369.957 119.69 369.995 119.781 370.103C120.024 370.378 120.266 370.62 120.548 370.847C120.684 370.951 120.763 371.112 120.91 371.205C121.026 371.283 121.173 371.249 121.296 371.324C121.495 371.432 121.666 371.588 121.884 371.689C122.672 372.046 123.543 372.273 124.473 372.273C124.477 372.273 124.477 372.273 124.485 372.273C124.485 372.273 124.485 372.273 124.493 372.273C124.501 372.273 124.501 372.273 124.501 372.273C124.505 372.273 124.505 372.273 124.513 372.273C125.443 372.273 126.31 372.042 127.101 371.689C127.32 371.592 127.491 371.435 127.69 371.324C127.809 371.246 127.956 371.283 128.075 371.205C128.223 371.115 128.302 370.955 128.437 370.847C128.72 370.616 128.966 370.378 129.201 370.103C129.292 369.995 129.447 369.957 129.535 369.838L246.858 215.14C248.556 212.903 248.345 209.888 246.365 207.863ZM118.314 279.957V348.314L29.0627 230.594L118.314 279.957ZM130.684 348.314V279.957L219.971 230.594L130.684 348.314Z" fill="white"/>
</svg>
